<?xml version="1.0" encoding="utf-8" ?>
<svg xmlns="http://www.w3.org/2000/svg" xmlns:xlink="http://www.w3.org/1999/xlink" width="1080" height="1080">
	<clipPath id="cl_3">
		<rect width="1080" height="1080"/>
	</clipPath>
	<g clip-path="url(#cl_3)">
		<path fill="#DB8F00" transform="matrix(0.205882 0 0 -0.205882 300.914 356.996)" d="M-686.41 131.914C-186.686 272.321 -201.678 262.47 285.373 526.999C683.111 743.021 1139.27 405.924 903.49 10.8394C667.713 -384.246 -364.436 -716.017 -753.319 -616.837C-1005.08 -552.629 -1123.02 9.24121 -686.41 131.914Z" fill-rule="evenodd"/>
		<path fill="none" stroke="#241700" stroke-width="76.120003" stroke-linecap="round" stroke-linejoin="round" transform="matrix(0.205882 0 0 -0.205882 300.914 356.996)" d="M-686.41 131.914C-186.686 272.321 -201.678 262.47 285.373 526.999C683.111 743.021 1139.27 405.924 903.49 10.8394C667.713 -384.246 -364.436 -716.017 -753.319 -616.837C-1005.08 -552.629 -1123.02 9.24121 -686.41 131.914Z" fill-rule="evenodd"/>
		<path fill="#976200" transform="matrix(0.205882 0 0 -0.205882 300.914 356.996)" d="M-417.345 -496.319C-557.787 -496.319 -671.638 -382.468 -671.638 -242.026C-671.638 -101.584 -557.787 12.2664 -417.345 12.2664C-276.903 12.2664 -163.053 -101.584 -163.053 -242.026C-163.053 -382.468 -276.903 -496.319 -417.345 -496.319Z" fill-rule="evenodd"/>
		<path fill="none" stroke="#241700" stroke-width="50.917679" stroke-linecap="round" stroke-linejoin="round" transform="matrix(0.205882 0 0 -0.205882 300.914 356.996)" d="M-417.345 -496.319C-557.787 -496.319 -671.638 -382.468 -671.638 -242.026C-671.638 -101.584 -557.787 12.2664 -417.345 12.2664C-276.903 12.2664 -163.053 -101.584 -163.053 -242.026C-163.053 -382.468 -276.903 -496.319 -417.345 -496.319Z" fill-rule="evenodd"/>
		<path fill="none" stroke="#241700" stroke-width="76.25" stroke-linecap="round" stroke-linejoin="round" transform="matrix(0.205882 0 0 -0.205882 302.236 357.354)" d="M-443.765 -626.488C-443.765 -626.488 -345.797 -819.82 -523.61 -893.23" fill-rule="evenodd"/>
		<path fill="none" stroke="#241700" stroke-width="76.25" stroke-linecap="round" stroke-linejoin="round" transform="matrix(0.205882 0 0 -0.205882 302.236 357.354)" d="M931.533 64.5596C931.533 64.5596 1061.44 47.4136 1061.44 -40.0244" fill-rule="evenodd"/>
		<path fill="none" stroke="#241700" stroke-width="50.919998" stroke-linecap="round" stroke-linejoin="round" transform="matrix(0.205882 0 0 -0.205882 302.236 357.354)" d="M1041.95 12.2676C1041.95 12.2676 1037.95 56.9087 1077.1 64.5596" fill-rule="evenodd"/>
		<path fill="none" stroke="#241700" stroke-width="50.919998" stroke-linecap="round" stroke-linejoin="round" transform="matrix(0.205882 0 0 -0.205882 302.236 357.354)" d="M1019.82 31.8486C1019.82 31.8486 977.844 -3.4834 968.092 -63.5156" fill-rule="evenodd"/>
		<path fill="none" stroke="#241700" stroke-width="74.224571" stroke-linecap="round" stroke-linejoin="round" transform="matrix(0.205882 0 0 -0.205882 300.914 356.996)" d="M-696.442 -627.725C-696.442 -627.725 -762.014 -631.855 -756.137 -720.969" fill-rule="evenodd"/>
		<path fill="none" stroke="#241700" stroke-width="76.120003" stroke-linecap="round" stroke-linejoin="round" transform="matrix(0.205882 0 0 -0.205882 302.236 357.354)" d="M854.675 478.648C854.675 478.648 1050.61 609.217 916.845 787.03" fill-rule="evenodd"/>
		<path fill="none" stroke="#241700" stroke-width="50.919998" stroke-linecap="round" stroke-linejoin="round" transform="matrix(0.205882 0 0 -0.205882 302.236 357.354)" d="M939.884 751.141C939.884 751.141 1004.94 769.086 998.411 837.601" fill-rule="evenodd"/>
		<path fill="none" stroke="#241700" stroke-width="50.919998" stroke-linecap="round" stroke-linejoin="round" transform="matrix(0.205882 0 0 -0.205882 302.236 357.354)" d="M939.884 751.141C939.884 751.141 864.643 706.28 805.916 751.141" fill-rule="evenodd"/>
		<path fill="none" stroke="#241700" stroke-width="76.120003" stroke-linecap="round" stroke-linejoin="round" transform="matrix(0.205882 0 0 -0.205882 302.236 357.354)" d="M526.747 594.26L522.065 729.934" fill-rule="evenodd"/>
		<path fill="none" stroke="#241700" stroke-width="76.120003" stroke-linecap="round" stroke-linejoin="round" transform="matrix(0.205882 0 0 -0.205882 302.236 357.354)" d="M-0.398438 387.195C-0.398438 387.195 -166.352 615.742 -22.7959 751.141" fill-rule="evenodd"/>
		<path fill="none" stroke="#241700" stroke-width="81.919998" stroke-linecap="round" stroke-linejoin="round" transform="matrix(0.205882 0 0 -0.205882 303.056 354.331)" d="M-696.448 128.989C-696.448 128.989 -556.237 410.22 -706.318 478.648" fill-rule="evenodd"/>
		<path fill="#F854CB" transform="matrix(0.243079 0 0 -0.243079 551.807 761.376)" d="M-0.400391 648.531C83.8027 648.531 163.873 630.692 236.232 598.589C243.658 595.295 541.229 1115.65 548.486 1112.06C558.793 1106.96 278.703 577.768 288.654 572.091C360.176 531.294 422.271 475.834 470.834 409.819C476.418 402.228 956.791 788.496 962.01 780.632C968.316 771.133 499.385 367.438 505.141 357.562C532.484 310.626 553.479 259.548 566.943 205.504C569.219 196.372 1042.82 241.894 1044.66 232.599C1046.79 221.867 577.074 156.291 578.6 145.356C582.32 118.73 584.242 91.5327 584.242 63.8896C584.242 26.1006 580.65 -10.8564 573.787 -46.6562C571.049 -60.9414 943.543 -133.203 939.783 -147.099C936.312 -159.937 556.658 -114.44 552.348 -126.913C532.207 -185.197 503.1 -239.316 466.68 -287.616C460.008 -296.464 908.1 -584.509 900.949 -592.957C894.873 -600.13 433.621 -327.766 427.213 -334.636C373.865 -391.848 309.184 -438.357 236.764 -470.573C229.041 -474.009 313.883 -651.637 305.988 -654.744C297.205 -658.199 195.664 -487.094 186.682 -490.13C127.934 -509.986 65.0137 -520.752 -0.400391 -520.752C-10.0918 -520.752 -26.5762 -954.162 -36.1523 -953.695C-45.4102 -953.243 -47.7656 -518.929 -56.9082 -518.051C-170.525 -507.133 -274.686 -463.64 -359.93 -397.031C-363.811 -393.998 -464.914 -531.978 -468.717 -528.849C-472.295 -525.904 -378.58 -381.856 -382.088 -378.83C-441.842 -327.255 -491.061 -263.8 -526.057 -192.149C-528.5 -187.151 -837.496 -308.326 -839.797 -303.25C-842.873 -296.465 -539.199 -163.399 -542.02 -156.48C-559.424 -113.795 -571.926 -68.5986 -578.824 -21.5903C-579.33 -18.1455 -731.248 -30.1992 -731.693 -26.7344C-732.189 -22.8716 -581.207 -3.48828 -581.627 0.397461C-583.883 21.2534 -585.041 42.4375 -585.041 63.8896C-585.041 92.3926 -582.996 120.422 -579.047 147.839C-577.463 158.84 -1138.14 221.695 -1135.95 232.489C-1133.89 242.681 -568.982 200.823 -566.393 210.816C-553.281 261.392 -533.562 309.319 -508.215 353.618C-505.98 357.525 -631.119 430.739 -628.797 434.589C-626.232 438.838 -496.199 373.718 -493.531 377.896C-472.342 411.084 -447.893 441.996 -420.641 470.177C-407.885 483.367 -672.768 822.219 -658.832 834.166C-645.59 845.517 -353.584 530.026 -339.355 540.174C-278.092 583.872 -208.057 616.05 -132.424 633.536C-113.324 637.952 -82.7305 1022.85 -62.9668 1025.34C-38.8242 1028.39 -25.3613 648.531 -0.400391 648.531Z" fill-rule="evenodd"/>
		<path fill="none" stroke="#24001A" stroke-width="50.919998" stroke-linecap="round" stroke-linejoin="round" transform="matrix(0.243079 0 0 -0.243079 551.807 761.376)" d="M-0.400391 648.531C83.8027 648.531 163.873 630.692 236.232 598.589C243.658 595.295 541.229 1115.65 548.486 1112.06C558.793 1106.96 278.703 577.768 288.654 572.091C360.176 531.294 422.271 475.834 470.834 409.819C476.418 402.228 956.791 788.496 962.01 780.632C968.316 771.133 499.385 367.438 505.141 357.562C532.484 310.626 553.479 259.548 566.943 205.504C569.219 196.372 1042.82 241.894 1044.66 232.599C1046.79 221.867 577.074 156.291 578.6 145.356C582.32 118.73 584.242 91.5327 584.242 63.8896C584.242 26.1006 580.65 -10.8564 573.787 -46.6562C571.049 -60.9414 943.543 -133.203 939.783 -147.099C936.312 -159.937 556.658 -114.44 552.348 -126.913C532.207 -185.197 503.1 -239.316 466.68 -287.616C460.008 -296.464 908.1 -584.509 900.949 -592.957C894.873 -600.13 433.621 -327.766 427.213 -334.636C373.865 -391.848 309.184 -438.357 236.764 -470.573C229.041 -474.009 313.883 -651.637 305.988 -654.744C297.205 -658.199 195.664 -487.094 186.682 -490.13C127.934 -509.986 65.0137 -520.752 -0.400391 -520.752C-10.0918 -520.752 -26.5762 -954.162 -36.1523 -953.695C-45.4102 -953.243 -47.7656 -518.929 -56.9082 -518.051C-170.525 -507.133 -274.686 -463.64 -359.93 -397.031C-363.811 -393.998 -464.914 -531.978 -468.717 -528.849C-472.295 -525.904 -378.58 -381.856 -382.088 -378.83C-441.842 -327.255 -491.061 -263.8 -526.057 -192.149C-528.5 -187.151 -837.496 -308.326 -839.797 -303.25C-842.873 -296.465 -539.199 -163.399 -542.02 -156.48C-559.424 -113.795 -571.926 -68.5986 -578.824 -21.5903C-579.33 -18.1455 -731.248 -30.1992 -731.693 -26.7344C-732.189 -22.8716 -581.207 -3.48828 -581.627 0.397461C-583.883 21.2534 -585.041 42.4375 -585.041 63.8896C-585.041 92.3926 -582.996 120.422 -579.047 147.839C-577.463 158.84 -1138.14 221.695 -1135.95 232.489C-1133.89 242.681 -568.982 200.823 -566.393 210.816C-553.281 261.392 -533.562 309.319 -508.215 353.618C-505.98 357.525 -631.119 430.739 -628.797 434.589C-626.232 438.838 -496.199 373.718 -493.531 377.896C-472.342 411.084 -447.893 441.996 -420.641 470.177C-407.885 483.367 -672.768 822.219 -658.832 834.166C-645.59 845.517 -353.584 530.026 -339.355 540.174C-278.092 583.872 -208.057 616.05 -132.424 633.536C-113.324 637.952 -82.7305 1022.85 -62.9668 1025.34C-38.8242 1028.39 -25.3613 648.531 -0.400391 648.531Z" fill-rule="evenodd"/>
		<path fill="#C01693" transform="matrix(0.243079 0 0 -0.243079 551.807 761.376)" d="M-0.399902 -21.9739C-142.914 -21.9739 -258.444 93.5564 -258.444 236.071C-258.444 378.585 -142.914 494.116 -0.399902 494.116C142.114 494.116 257.645 378.585 257.645 236.071C257.645 93.5564 142.114 -21.9739 -0.399902 -21.9739Z" fill-rule="evenodd"/>
		<path fill="none" stroke="#24001A" stroke-width="50.914284" stroke-linecap="round" stroke-linejoin="round" transform="matrix(0.243079 0 0 -0.243079 551.807 761.376)" d="M-0.399902 -21.9739C-142.914 -21.9739 -258.444 93.5564 -258.444 236.071C-258.444 378.585 -142.914 494.116 -0.399902 494.116C142.114 494.116 257.645 378.585 257.645 236.071C257.645 93.5564 142.114 -21.9739 -0.399902 -21.9739Z" fill-rule="evenodd"/>
		<path fill="#00DC98" transform="matrix(0.217647 0 0 -0.217647 814.507 362.899)" d="M-18.4707 636.659C76.4785 636.659 161.586 575.076 242.445 537.539C296.826 512.294 367.697 535.857 412.395 496.946C464.793 451.331 478.975 383.695 514.09 323.272C547.896 265.103 606.195 238.129 620.082 170.139C628.467 129.077 613.625 61.6274 613.625 18.1035C613.625 -34.0137 643.66 -86.0918 631.756 -134.56C623.238 -169.25 571.227 -229.192 557.244 -261.376C520.188 -346.67 486.977 -435.06 418.361 -495.946C360.068 -547.674 283.619 -554.6 209.145 -582.117C140.873 -607.342 64.9355 -659.608 -12.0566 -659.608C-95.8535 -659.608 -178.719 -597.67 -251.941 -568.034C-329.4 -536.682 -388.568 -519.654 -447.266 -462.066C-488.283 -421.827 -530.264 -404.561 -559.164 -354.465C-586.553 -306.994 -610.092 -249.228 -624.475 -195.033C-638.242 -143.159 -623.482 -76.564 -623.482 -20.3838C-623.482 40.4482 -645.529 95.7231 -629.477 151.417C-614.93 201.887 -565.754 234.809 -539.826 279.258C-512.084 326.815 -506.113 416.052 -467.375 454.688C-404.971 516.922 -323.242 522.744 -239.408 554.72C-169.426 581.412 -97.7812 636.659 -18.4707 636.659Z" fill-rule="evenodd"/>
		<path fill="none" stroke="#002419" stroke-width="50.914745" stroke-linecap="round" stroke-linejoin="round" transform="matrix(0.217647 0 0 -0.217647 814.507 362.899)" d="M-18.4707 636.659C76.4785 636.659 161.586 575.076 242.445 537.539C296.826 512.294 367.697 535.857 412.395 496.946C464.793 451.331 478.975 383.695 514.09 323.272C547.896 265.103 606.195 238.129 620.082 170.139C628.467 129.077 613.625 61.6274 613.625 18.1035C613.625 -34.0137 643.66 -86.0918 631.756 -134.56C623.238 -169.25 571.227 -229.192 557.244 -261.376C520.188 -346.67 486.977 -435.06 418.361 -495.946C360.068 -547.674 283.619 -554.6 209.145 -582.117C140.873 -607.342 64.9355 -659.608 -12.0566 -659.608C-95.8535 -659.608 -178.719 -597.67 -251.941 -568.034C-329.4 -536.682 -388.568 -519.654 -447.266 -462.066C-488.283 -421.827 -530.264 -404.561 -559.164 -354.465C-586.553 -306.994 -610.092 -249.228 -624.475 -195.033C-638.242 -143.159 -623.482 -76.564 -623.482 -20.3838C-623.482 40.4482 -645.529 95.7231 -629.477 151.417C-614.93 201.887 -565.754 234.809 -539.826 279.258C-512.084 326.815 -506.113 416.052 -467.375 454.688C-404.971 516.922 -323.242 522.744 -239.408 554.72C-169.426 581.412 -97.7812 636.659 -18.4707 636.659Z" fill-rule="evenodd"/>
		<path fill="#00986A" transform="matrix(0.217647 0 0 -0.217647 814.507 362.899)" d="M-88.4116 -462.064C-230.925 -462.064 -346.456 -346.534 -346.456 -204.02C-346.456 -61.5056 -230.925 54.0251 -88.4116 54.0251C54.1025 54.0251 169.633 -61.5056 169.633 -204.02C169.633 -346.534 54.1025 -462.064 -88.4116 -462.064Z" fill-rule="evenodd"/>
		<path fill="none" stroke="#002419" stroke-width="50.914284" stroke-linecap="round" stroke-linejoin="round" transform="matrix(0.217647 0 0 -0.217647 814.507 362.899)" d="M-88.4116 -462.064C-230.925 -462.064 -346.456 -346.534 -346.456 -204.02C-346.456 -61.5056 -230.925 54.0251 -88.4116 54.0251C54.1025 54.0251 169.633 -61.5056 169.633 -204.02C169.633 -346.534 54.1025 -462.064 -88.4116 -462.064Z" fill-rule="evenodd"/>
	</g>
</svg>
