<?xml version="1.0" encoding="utf-8" ?>
<svg xmlns="http://www.w3.org/2000/svg" xmlns:xlink="http://www.w3.org/1999/xlink" width="1080" height="1080">
	<clipPath id="cl_3">
		<rect width="1080" height="1080"/>
	</clipPath>
	<g clip-path="url(#cl_3)">
		<path fill="#121212" transform="matrix(0.272 0 0 -0.272 540 540)" d="M178.215 657.539L751.309 -335.094C769.387 -366.404 769.453 -404.967 751.469 -436.336L547.969 -791.439L630.848 -934.994C645.562 -960.479 636.828 -993.062 611.348 -1007.77L611.34 -1007.78C585.855 -1022.49 553.27 -1013.76 538.555 -988.277L455.676 -844.723L46.3984 -843.412C10.2422 -843.297 -23.125 -823.961 -41.2031 -792.648L-614.297 199.982L-618.344 197.645C-636.574 187.119 -658.238 184.27 -678.57 189.719C-698.902 195.164 -716.242 208.469 -726.77 226.699C-737.293 244.928 -740.141 266.594 -734.695 286.928C-729.246 307.262 -715.949 324.598 -697.719 335.121L-362.109 528.885L-448.484 678.49L-646.617 564.1C-684.578 542.184 -733.125 555.191 -755.039 593.154C-776.957 631.117 -763.949 679.66 -725.988 701.576L-200.336 1005.06C-162.375 1026.98 -113.832 1013.97 -91.9141 976.01C-70 938.047 -83.0039 889.502 -120.965 867.586L-319.094 753.195L-232.719 603.59L102.887 797.352C121.113 807.875 142.781 810.727 163.113 805.277C183.453 799.832 200.785 786.525 211.309 768.297C221.836 750.066 224.691 728.402 219.238 708.066C213.789 687.734 200.488 670.396 182.262 659.875L178.215 657.539ZM324.66 81.7305C316.781 95.375 299.305 100.055 285.664 92.1797L-178.406 -175.754C-192.055 -183.633 -196.738 -201.102 -188.859 -214.748L-173.289 -241.715C-165.41 -255.359 -147.938 -260.043 -134.289 -252.164L329.781 15.7676C343.422 23.6445 348.109 41.1172 340.23 54.7637L324.66 81.7305ZM413.84 -72.7344C405.965 -59.0898 388.484 -54.4082 374.844 -62.2852L-89.2266 -330.217C-102.875 -338.096 -107.555 -355.568 -99.6797 -369.211L-84.1094 -396.18C-76.2305 -409.826 -58.7578 -414.508 -45.1094 -406.629L418.961 -138.695C432.602 -130.82 437.289 -113.348 429.41 -99.7031L413.84 -72.7344ZM146.297 390.664C138.422 404.305 120.945 408.988 107.305 401.109L-356.766 133.18C-370.414 125.301 -375.098 107.828 -367.219 94.1836L-351.648 67.2148C-343.773 53.5723 -326.301 48.8887 -312.652 56.7676L151.418 324.699C165.059 332.576 169.746 350.051 161.867 363.695L146.297 390.664ZM235.48 236.197C227.602 249.842 210.125 254.521 196.484 246.645L-267.586 -21.2871C-281.234 -29.166 -285.918 -46.6367 -278.039 -60.2812L-262.469 -87.25C-254.594 -100.895 -237.117 -105.578 -223.469 -97.6992L240.602 170.234C254.242 178.109 258.926 195.586 251.051 209.229L235.48 236.197ZM503.023 -227.199C495.145 -213.555 477.668 -208.875 464.027 -216.75L-0.0429688 -484.684C-13.6914 -492.562 -18.375 -510.035 -10.5 -523.678L5.07422 -550.646C12.9492 -564.293 30.4219 -568.973 44.0703 -561.094L508.141 -293.162C521.781 -285.285 526.469 -267.812 518.594 -254.168L503.023 -227.199Z" fill-rule="evenodd"/>
		<path fill="#FDBF4A" transform="matrix(0.0620642 0.0224508 0.0224508 -0.0620642 621.476 156.53)" d="M459.633 904.567L212.578 -903.77L-213.367 -903.77L-460.422 904.567L459.633 904.567Z" fill-rule="evenodd"/>
		<path fill="#FDBF4A" transform="matrix(0.0398644 0.0526006 0.0526006 -0.0398644 803.432 247.935)" d="M459.633 904.567L212.578 -903.77L-213.367 -903.77L-460.422 904.567L459.633 904.567Z" fill-rule="evenodd"/>
		<path fill="#FDBF4A" transform="matrix(0.0110339 0.0650711 0.0650711 -0.0110339 903.843 427.55)" d="M459.633 904.567L212.578 -903.77L-213.367 -903.77L-460.422 904.567L459.633 904.567Z" fill-rule="evenodd"/>
		<path fill="#FDBF4A" transform="matrix(-0.019336 0.063104 0.063104 0.019336 892.553 633.874)" d="M459.633 904.567L212.578 -903.77L-213.367 -903.77L-460.422 904.567L459.633 904.567Z" fill-rule="evenodd"/>
		<path fill="#FDBF4A" transform="matrix(-0.0403625 0.0522194 0.0522194 0.0403625 829.989 855.441)" d="M459.633 904.567L212.578 -903.77L-213.367 -903.77L-460.422 904.567L459.633 904.567Z" fill-rule="evenodd"/>
		<path fill="#FDBF4A" transform="matrix(-0.0627556 0.0204385 0.0204385 0.0627556 669.546 950.916)" d="M459.633 904.567L212.578 -903.77L-213.367 -903.77L-460.422 904.567L459.633 904.567Z" fill-rule="evenodd"/>
		<path fill="#FDBF4A" transform="matrix(-0.0630916 -0.0193764 -0.0193764 0.0630916 472.154 946.527)" d="M459.633 904.567L212.578 -903.77L-213.367 -903.77L-460.422 904.567L459.633 904.567Z" fill-rule="evenodd"/>
		<path fill="#FDBF4A" transform="matrix(-0.0362691 -0.0551412 -0.0551412 0.0362691 306.514 847.079)" d="M459.633 904.567L212.578 -903.77L-213.367 -903.77L-460.422 904.567L459.633 904.567Z" fill-rule="evenodd"/>
		<path fill="#FDBF4A" transform="matrix(-0.0191874 -0.0631494 -0.0631494 0.0191874 220.407 687.292)" d="M459.633 904.567L212.578 -903.77L-213.367 -903.77L-460.422 904.567L459.633 904.567Z" fill-rule="evenodd"/>
		<path fill="#FDBF4A" transform="matrix(-0.0129084 -0.0647254 -0.0647254 0.0129084 162.842 523.224)" d="M459.633 904.567L212.578 -903.77L-213.367 -903.77L-460.422 904.567L459.633 904.567Z" fill-rule="evenodd"/>
		<path fill="#FDBF4A" transform="matrix(0.0171029 -0.0637455 -0.0637455 -0.0171029 184.439 349.002)" d="M459.633 904.567L212.578 -903.77L-213.367 -903.77L-460.422 904.567L459.633 904.567Z" fill-rule="evenodd"/>
		<path fill="#FDBF4A" transform="matrix(0.0492767 -0.0439068 -0.0439068 -0.0492767 279.236 205.003)" d="M459.633 904.567L212.578 -903.77L-213.367 -903.77L-460.422 904.567L459.633 904.567Z" fill-rule="evenodd"/>
		<path fill="#FDBF4A" transform="matrix(0.0623219 -0.021725 -0.021725 -0.0623219 435.246 128.046)" d="M459.633 904.567L212.578 -903.77L-213.367 -903.77L-460.422 904.567L459.633 904.567Z" fill-rule="evenodd"/>
	</g>
</svg>
