<?xml version="1.0" encoding="utf-8" ?>
<svg xmlns="http://www.w3.org/2000/svg" xmlns:xlink="http://www.w3.org/1999/xlink" width="1080" height="1080">
	<clipPath id="cl_4">
		<rect width="1080" height="1080"/>
	</clipPath>
	<g clip-path="url(#cl_4)">
		<path fill="#003049" transform="matrix(0.42353 0 0 -0.42353 540 540)" d="M-0.382812 -991.274C-552.25 -991.274 -999.633 -544.075 -999.633 7.57324C-999.633 559.223 -552.25 1006.42 -0.382812 1006.42C551.492 1006.42 998.867 559.223 998.867 7.57324C998.867 -544.075 551.492 -991.274 -0.382812 -991.274Z" fill-rule="evenodd"/>
		<path fill="#42AA8B" transform="matrix(0.42353 0 0 -0.42353 540 540)" d="M-833.402 -116.065C-816.418 -124.557 -797.008 -129.006 -776.789 -129.006L-571.767 -129.006C-537.394 -129.006 -504.639 -142.755 -480.376 -167.018L-426.593 -220.801C-402.33 -245.064 -369.575 -258.813 -335.203 -258.813L-259.583 -258.813C-188.008 -258.813 -130.181 -200.986 -130.181 -129.41L-130.181 32.3429C-130.181 86.1259 -86.912 129.395 -33.1292 129.395C20.6538 129.395 63.9227 172.664 63.9227 226.447L63.9227 399.118C63.9227 433.491 77.6718 466.246 101.935 490.509L155.718 544.292C179.981 568.554 193.73 601.31 193.73 635.682L193.73 805.118C193.73 809.971 193.325 814.419 192.921 819.272C130.646 833.83 65.9446 841.513 -0.374023 841.513C-465.01 841.513 -841.49 465.032 -841.49 0.396729C-841.49 -39.2328 -838.659 -78.0536 -833.402 -116.065ZM797.473 -266.9C784.532 -261.239 770.379 -258.408 755.013 -258.408L711.339 -258.408C675.754 -258.408 646.638 -229.293 646.638 -193.707C646.638 -158.121 617.522 -129.006 581.937 -129.006L441.616 -129.006C407.244 -129.006 374.489 -142.755 350.226 -167.018L167.04 -350.203C142.777 -374.466 129.028 -407.221 129.028 -441.594L129.028 -517.213C129.028 -588.789 186.855 -646.616 258.431 -646.616L334.05 -646.616C368.423 -646.616 401.178 -660.365 425.441 -684.628C434.337 -693.524 444.447 -701.207 454.961 -706.869C613.883 -604.156 736.007 -449.681 797.068 -266.9L797.473 -266.9ZM-1035.59 0.396729C-1035.59 572.194 -572.171 1035.62 -0.374023 1035.62C571.423 1035.62 1034.85 572.194 1034.85 0.396729C1034.85 -571.401 571.423 -1034.82 -0.374023 -1034.82C-572.171 -1034.82 -1035.59 -571.401 -1035.59 0.396729ZM-517.984 -452.512C-517.984 -488.098 -488.868 -517.213 -453.283 -517.213L-323.88 -517.213C-288.294 -517.213 -259.179 -488.098 -259.179 -452.512C-259.179 -416.926 -288.294 -387.811 -323.88 -387.811L-453.283 -387.811C-488.868 -387.811 -517.984 -416.926 -517.984 -452.512ZM64.3271 0.396729C28.7415 0.396729 -0.374023 -28.7189 -0.374023 -64.3046L-0.374023 -193.707C-0.374023 -229.293 28.7415 -258.408 64.3271 -258.408C99.9127 -258.408 129.028 -229.293 129.028 -193.707L129.028 -64.3046C129.028 -28.7189 99.9127 0.396729 64.3271 0.396729ZM258.431 453.305L258.431 323.903C258.431 288.317 287.546 259.202 323.132 259.202C358.718 259.202 387.833 288.317 387.833 323.903L387.833 453.305C387.833 488.891 358.718 518.007 323.132 518.007C287.546 518.007 258.431 488.891 258.431 453.305Z" fill-rule="evenodd"/>
		<path fill="none" stroke="#121212" stroke-width="53.418941" stroke-linejoin="round" transform="matrix(0.42353 0 0 -0.42353 540 540)" d="M-833.402 -116.065C-816.418 -124.557 -797.008 -129.006 -776.789 -129.006L-571.767 -129.006C-537.394 -129.006 -504.639 -142.755 -480.376 -167.018L-426.593 -220.801C-402.33 -245.064 -369.575 -258.813 -335.203 -258.813L-259.583 -258.813C-188.008 -258.813 -130.181 -200.986 -130.181 -129.41L-130.181 32.3429C-130.181 86.1259 -86.912 129.395 -33.1292 129.395C20.6538 129.395 63.9227 172.664 63.9227 226.447L63.9227 399.118C63.9227 433.491 77.6718 466.246 101.935 490.509L155.718 544.292C179.981 568.554 193.73 601.31 193.73 635.682L193.73 805.118C193.73 809.971 193.325 814.419 192.921 819.272C130.646 833.83 65.9446 841.513 -0.374023 841.513C-465.01 841.513 -841.49 465.032 -841.49 0.396729C-841.49 -39.2328 -838.659 -78.0536 -833.402 -116.065ZM797.473 -266.9C784.532 -261.239 770.379 -258.408 755.013 -258.408L711.339 -258.408C675.754 -258.408 646.638 -229.293 646.638 -193.707C646.638 -158.121 617.522 -129.006 581.937 -129.006L441.616 -129.006C407.244 -129.006 374.489 -142.755 350.226 -167.018L167.04 -350.203C142.777 -374.466 129.028 -407.221 129.028 -441.594L129.028 -517.213C129.028 -588.789 186.855 -646.616 258.431 -646.616L334.05 -646.616C368.423 -646.616 401.178 -660.365 425.441 -684.628C434.337 -693.524 444.447 -701.207 454.961 -706.869C613.883 -604.156 736.007 -449.681 797.068 -266.9L797.473 -266.9ZM-1035.59 0.396729C-1035.59 572.194 -572.171 1035.62 -0.374023 1035.62C571.423 1035.62 1034.85 572.194 1034.85 0.396729C1034.85 -571.401 571.423 -1034.82 -0.374023 -1034.82C-572.171 -1034.82 -1035.59 -571.401 -1035.59 0.396729ZM-517.984 -452.512C-517.984 -488.098 -488.868 -517.213 -453.283 -517.213L-323.88 -517.213C-288.294 -517.213 -259.179 -488.098 -259.179 -452.512C-259.179 -416.926 -288.294 -387.811 -323.88 -387.811L-453.283 -387.811C-488.868 -387.811 -517.984 -416.926 -517.984 -452.512ZM64.3271 0.396729C28.7415 0.396729 -0.374023 -28.7189 -0.374023 -64.3046L-0.374023 -193.707C-0.374023 -229.293 28.7415 -258.408 64.3271 -258.408C99.9127 -258.408 129.028 -229.293 129.028 -193.707L129.028 -64.3046C129.028 -28.7189 99.9127 0.396729 64.3271 0.396729ZM258.431 453.305L258.431 323.903C258.431 288.317 287.546 259.202 323.132 259.202C358.718 259.202 387.833 288.317 387.833 323.903L387.833 453.305C387.833 488.891 358.718 518.007 323.132 518.007C287.546 518.007 258.431 488.891 258.431 453.305Z" fill-rule="evenodd"/>
		<clipPath id="cl_5">
			<path d="M112.899 540C112.899 304.119 304.119 112.899 540 112.899C775.881 112.899 967.101 304.119 967.101 540C967.101 775.881 775.881 967.101 540 967.101C304.119 967.101 112.899 775.881 112.899 540Z" clip-rule="evenodd"/>
		</clipPath>
		<g clip-path="url(#cl_5)">
			<path fill="#BC1C1A" transform="matrix(0.421584 0 0 -0.421584 540 730.491)" d="M805.738 -172.393C616.152 -412.126 322.699 -565.938 -6.7147 -565.938C-338.121 -565.938 -633.121 -410.265 -822.59 -168.044C-818.48 -168.24 -810.316 -169.774 -804.129 -170.323C-796.105 -171.035 -784.387 -171.967 -774.48 -172.315C-763.84 -172.688 -750.559 -172.524 -740.301 -172.565C-731.191 -172.603 -722.074 -172.568 -712.949 -172.564C-698.902 -172.56 -668.894 -172.218 -655.973 -172.535C-649.074 -172.706 -642.223 -173.612 -635.402 -174.473C-627.019 -175.531 -614.059 -177.305 -605.715 -178.883C-598.801 -180.191 -592.019 -182.008 -585.309 -183.948C-578.488 -185.921 -569.324 -189.183 -564.777 -190.726C-562.496 -191.497 -560.238 -192.315 -558.012 -193.198C-554.207 -194.706 -547.457 -197.881 -541.957 -199.773C-535.48 -201.999 -524.488 -205.058 -519.16 -206.555C-516.16 -207.4 -513.113 -208.169 -510.027 -208.753C-486.066 -213.298 -458.832 -210.405 -445.918 -207.833C-435.254 -205.707 -424.707 -203.082 -414.34 -200.032C-400.738 -196.028 -376.472 -187.825 -364.262 -183.804C-356.48 -181.246 -349.058 -177.799 -341.035 -175.904C-330.012 -173.3 -312.676 -169.212 -298.105 -168.183C-260.512 -165.528 -156.144 -163.712 -115.465 -159.973C-94.3866 -158.035 -73.3631 -151.613 -54.035 -145.75C-35.2616 -140.055 -11.996 -129.44 0.504044 -124.79C7.24623 -122.286 14.1369 -120.123 20.9806 -117.854C28.9572 -115.208 40.2428 -113.611 48.3712 -108.918C55.5239 -104.789 66.4181 -104.596 75.6915 -104.284C98.8556 -103.508 152.043 -101.947 187.371 -104.255C221.121 -106.462 263.324 -115.13 287.637 -118.139C302.77 -120.012 317.981 -121.674 333.254 -122.311C350.348 -123.024 377.692 -122.416 390.231 -122.417C396.309 -122.417 402.387 -122.558 408.457 -122.317C417.574 -121.955 432.754 -120.492 444.934 -120.246C461.645 -119.908 487.731 -117.401 508.731 -120.295C545.981 -125.424 624.356 -143.042 668.426 -151.024C703.191 -157.321 753.02 -164.965 773.137 -168.182C778.434 -169.03 783.77 -169.629 789.098 -170.327C794.418 -171.027 802.301 -172.03 805.074 -172.374C805.301 -172.402 805.738 -172.393 805.738 -172.393Z" fill-rule="evenodd"/>
		</g>
	</g>
</svg>
