<svg width="381" height="320" viewBox="0 0 381 320" fill="none" xmlns="http://www.w3.org/2000/svg">
<g clip-path="url(#clip0_84_2)">
<path d="M136.865 0.500305C108.48 0.500472 81.258 9.82482 61.1868 26.4221C41.1156 43.0194 29.8395 65.5301 29.8394 89.0022C29.8438 101.748 33.1773 114.342 39.6118 125.924L39.5898 125.91C39.5898 125.91 42.7423 151.513 33.8767 166.269C25.0111 181.024 0.5 193.232 0.5 193.232C0.5 193.232 51.086 193.754 73.5107 189.582C95.9355 185.41 125.794 177.03 125.794 177.03L125.457 176.83C129.243 177.223 133.05 177.448 136.865 177.504C165.25 177.504 192.472 168.179 212.543 151.582C232.615 134.985 243.891 112.474 243.891 89.002C243.891 65.5298 232.615 43.0191 212.543 26.4218C192.472 9.82451 165.25 0.50045 136.865 0.500305Z" fill="#1E91CE"/>
<path d="M243.769 126.863C272.154 126.863 299.376 136.187 319.447 152.784C339.518 169.382 350.794 191.892 350.795 215.365C350.79 228.11 347.457 240.704 341.022 252.286L341.044 252.272C341.044 252.272 337.892 277.875 346.757 292.631C355.623 307.386 380.134 319.594 380.134 319.594C380.134 319.594 329.548 320.116 307.123 315.944C284.699 311.772 254.84 303.392 254.84 303.392L255.177 303.193C251.391 303.585 247.583 303.81 243.769 303.866C215.384 303.866 188.162 294.541 168.09 277.944C148.019 261.347 136.743 238.836 136.743 215.364C136.743 191.892 148.019 169.381 168.09 152.784C188.162 136.187 215.384 126.863 243.769 126.863Z" fill="#43AA8B"/>
<path d="M239.139 258.363V248.86C231.487 248.202 225.07 246.104 219.886 242.566C214.702 238.945 210.959 234.173 208.655 228.249L226.427 221.831C227.332 224.876 228.854 227.303 230.994 229.113C233.133 230.923 235.848 232.157 239.139 232.816V213.439L234.079 212.328C229.636 211.341 225.481 209.942 221.614 208.132C217.829 206.322 214.785 203.894 212.481 200.85C210.177 197.723 209.025 193.815 209.025 189.125C209.025 183.777 210.506 179.334 213.468 175.796C216.43 172.258 220.215 169.502 224.823 167.527C229.43 165.552 234.203 164.359 239.139 163.948V155.432H248.149V163.948C254.155 164.441 259.627 166.087 264.564 168.885C269.583 171.682 273.244 175.919 275.548 181.597L257.899 188.014C256.336 183.983 253.086 181.309 248.149 179.992V197.641L249.507 197.888C252.88 198.464 256.295 199.287 259.75 200.356C263.206 201.344 266.374 202.701 269.254 204.429C272.216 206.157 274.602 208.42 276.412 211.217C278.222 214.015 279.127 217.553 279.127 221.831C279.127 227.179 277.646 231.828 274.684 235.778C271.722 239.645 267.855 242.689 263.083 244.911C258.393 247.132 253.415 248.49 248.149 248.983V258.363H239.139ZM239.139 195.79V179.499C236.177 179.828 233.75 180.692 231.858 182.09C229.965 183.407 229.019 185.135 229.019 187.274C229.019 189.331 229.883 191.141 231.611 192.704C233.339 194.185 235.601 195.173 238.399 195.666L239.139 195.79ZM248.149 233.186C250.946 232.857 253.456 232.034 255.677 230.717C257.981 229.319 259.133 227.179 259.133 224.3C259.133 222.078 258.146 220.268 256.171 218.869C254.196 217.47 251.522 216.319 248.149 215.413V233.186Z" fill="#F5F5F5"/>
<path d="M108.492 48.6185C108.931 71.9171 108.035 84.6964 108.492 104.627C108.615 109.966 105.984 115.589 102.701 118.705C94.6787 126.318 83.0745 128.7 73.5109 125.439C70.0544 124.26 65.7849 121.209 65.1709 116.563C62.8335 98.8778 68.311 80.0327 81.2831 59.5524C85.7331 52.5267 99.6016 41.2096 102.469 40.9671C105.249 40.7319 108.423 44.9399 108.492 48.6185Z" fill="#F5F5F5"/>
<path d="M120.115 48.6185C119.676 71.9171 120.572 84.6964 120.115 104.627C119.993 109.966 122.623 115.589 125.907 118.705C133.929 126.318 145.533 128.7 155.097 125.439C158.553 124.26 162.823 121.209 163.437 116.563C165.774 98.8778 160.296 80.0327 147.324 59.5524C142.874 52.5267 129.006 41.2096 126.138 40.9671C123.359 40.7319 120.184 44.9399 120.115 48.6185Z" fill="#F5F5F5"/>
<path d="M139.266 91.2288C139.266 91.2288 134.291 71.9659 130.227 63.4232C126.515 55.6211 119.341 50.9705 116.479 42.5689C114.575 36.977 114.69 24.3315 114.69 24.3315C114.69 24.3315 114.806 36.977 112.901 42.5689C110.039 50.9705 102.865 55.6211 99.1533 63.4232C95.0891 71.9659 90.1138 91.2288 90.1138 91.2288" stroke="#004062" stroke-width="5.58464" stroke-linecap="round"/>
<path d="M86.9917 64.0386C86.9917 64.0386 91.1617 63.0545 94.6367 61.7012C98.1117 60.348 103.362 56.8827 103.362 56.8827" fill="#004062"/>
<path d="M86.9917 64.0386C86.9917 64.0386 91.1617 63.0545 94.6367 61.7012C98.1117 60.348 103.362 56.8827 103.362 56.8827" stroke="#004062" stroke-width="3.88423" stroke-linecap="round"/>
<path d="M96.9146 68.876C96.9146 68.876 97.3055 73.9369 99.9697 76.6433C102.634 79.3498 105.182 80.7152 105.182 80.7152" fill="#004062"/>
<path d="M96.9146 68.876C96.9146 68.876 97.3055 73.9369 99.9697 76.6433C102.634 79.3498 105.182 80.7152 105.182 80.7152" stroke="#004062" stroke-width="3.88423" stroke-linecap="round"/>
<path d="M79.1299 90.266C80.0744 87.573 81.6834 85.3648 85.3849 83.6458C90.0207 81.4927 92.8746 81.7673 92.7264 81.8263" fill="#004062"/>
<path d="M79.1299 90.266C80.0744 87.573 81.6834 85.3648 85.3849 83.6458C90.0207 81.4927 92.8746 81.7673 92.7264 81.8263" stroke="#004062" stroke-width="3.88423" stroke-linecap="round"/>
<path d="M142.804 64.5742C142.804 64.5742 138.634 63.59 135.159 62.2368C131.684 60.8836 126.434 57.4183 126.434 57.4183" fill="#004062"/>
<path d="M142.804 64.5742C142.804 64.5742 138.634 63.59 135.159 62.2368C131.684 60.8836 126.434 57.4183 126.434 57.4183" stroke="#004062" stroke-width="3.88423" stroke-linecap="round"/>
<path d="M132.881 69.4115C132.881 69.4115 132.49 74.4724 129.826 77.1788C127.162 79.8853 124.614 81.2507 124.614 81.2507" fill="#004062"/>
<path d="M132.881 69.4115C132.881 69.4115 132.49 74.4724 129.826 77.1788C127.162 79.8853 124.614 81.2507 124.614 81.2507" stroke="#004062" stroke-width="3.88423" stroke-linecap="round"/>
<path d="M150.666 90.8016C149.722 88.1085 148.112 85.9004 144.411 84.1813C139.775 82.0283 136.921 82.3028 137.069 82.3619" fill="#004062"/>
<path d="M150.666 90.8016C149.722 88.1085 148.112 85.9004 144.411 84.1813C139.775 82.0283 136.921 82.3028 137.069 82.3619" stroke="#004062" stroke-width="3.88423" stroke-linecap="round"/>
<path d="M186.178 121.161C202.349 121.161 215.459 107.693 215.459 91.0786C215.459 74.4646 202.349 60.9963 186.178 60.9963C170.006 60.9963 156.896 74.4646 156.896 91.0786C156.896 107.693 170.006 121.161 186.178 121.161Z" fill="#004062"/>
<path d="M167.312 82.8639C167.312 82.8639 170.651 85.4285 173.36 85.7994C176.321 86.2049 181.218 84.9021 181.218 84.9021" stroke="#F5F5F5" stroke-width="4.40777" stroke-linecap="round"/>
<path d="M189.834 76.0413C189.834 76.0413 191.677 79.8836 193.927 81.4774C196.386 83.2195 201.325 84.3422 201.325 84.3422" stroke="#F5F5F5" stroke-width="4.40777" stroke-linecap="round"/>
<path d="M182.7 97.8418C182.7 97.8418 185.159 94.3832 187.643 93.2115C190.357 91.9308 195.411 91.6993 195.411 91.6993" stroke="#F5F5F5" stroke-width="4.40777" stroke-linecap="round"/>
<path d="M175.997 106.116C175.997 106.116 171.993 104.922 170.074 102.923C167.976 100.739 166.039 95.9379 166.039 95.9379" stroke="#F5F5F5" stroke-width="4.40777" stroke-linecap="round"/>
<path d="M206.316 102.309C206.316 102.309 202.977 104.874 200.268 105.245C197.307 105.65 192.41 104.348 192.41 104.348" stroke="#F5F5F5" stroke-width="4.40777" stroke-linecap="round"/>
<path d="M161.491 85.3893L147.796 72.7679L171.737 70.7902L161.491 85.3893Z" fill="#004062"/>
</g>
<defs>
<clipPath id="clip0_84_2">
<rect width="379.634" height="319.115" fill="white" transform="translate(0.5 0.5)"/>
</clipPath>
</defs>
</svg>
