<svg width="435" height="323" viewBox="0 0 435 323" fill="none" xmlns="http://www.w3.org/2000/svg">
<g clip-path="url(#clip0_84_30)">
<path d="M217.131 276.269C188.617 276.269 160.382 277.458 134.038 279.77C107.695 282.081 83.7583 285.468 63.5958 289.739C43.4333 294.01 27.4396 299.08 16.5278 304.659C5.61605 310.239 -0.000142599 316.22 2.71552e-09 322.259H434.262C434.262 316.22 428.646 310.239 417.734 304.659C406.822 299.08 390.828 294.01 370.666 289.739C350.504 285.468 326.567 282.081 300.224 279.77C273.88 277.458 245.645 276.269 217.131 276.269Z" fill="#43AA8B"/>
<path d="M216.152 24.6579L225.999 28.8647L226.471 42.9976L226.282 61.101C226.282 61.101 241.861 68.8886 243.047 70.0417C244.234 71.1948 257.67 86.3855 259.525 89.5273C261.38 92.669 275.484 133.395 274.866 140.464C274.248 147.533 275.3 146.43 275.3 146.43L282.737 149.939L288.653 153.315L288.335 161.159L288.419 174.94L301.053 177.513L318.851 184.365L320.339 191.919L320.556 197.049L320.706 230.138L336.799 230.405L337.25 292.372L87.3967 292.388L87.2798 230.121L113.617 229.403L113.4 187.039L121.639 180.889L145.252 174.539L145.068 166.233L145.519 153.867L151.435 149.371L158.32 146.631L160.192 129.769L162.866 119.424L167.879 102.88L178.023 83.3943L190.423 69.8412L202.99 63.3238L207.319 60.533L207.369 30.0679L210.494 26.9429L216.152 24.6579Z" fill="#F5F5F5"/>
<path d="M216.551 0.00757378C212.939 -0.334726 209.818 10.9923 211.224 20.4862C211.534 22.5774 211.559 24.0515 211.285 24.1463C211.034 24.2333 210.087 24.8507 209.18 25.5194C208.273 26.188 206.916 27.1296 206.164 27.6112L204.797 28.4862L204.664 44.1854L204.53 59.8826L200.694 61.4959C177.568 71.2221 159.914 103.125 156.51 141.342L156.166 145.197L154.348 145.777C148.803 147.548 143.28 151.607 143.28 153.91L143.302 155.236L143.166 164.328L143.029 173.418L137.279 174.57C121.506 177.729 111.428 182.49 111.228 186.879C111.2 187.488 111.144 196.986 111.103 207.986L111.029 227.986L98.1543 228.121L85.2793 228.254V261.322V294.388H250.94H338.779V277.736V252.998V228.262L330.154 228.125L321.529 227.986L321.482 213.236C321.471 209.897 321.536 207.448 321.596 205.314L321.606 204.254L321.436 195.443C321.435 195.443 321.436 195.443 321.436 195.433C321.262 194.783 321.283 193.514 321.283 191.459C321.283 188.194 321.046 186.225 320.533 185.234C318.451 181.207 310.271 177.71 296.033 174.759L289.533 173.414L289.283 163.173L289.033 152.935L288.151 151.589C287.116 150.013 283.221 147.662 279.158 146.162C277.577 145.578 276.28 144.848 276.277 144.541C276.258 142.336 274.63 129.991 273.77 125.535C267.797 94.5852 250.869 68.8494 231.619 61.4527L227.795 59.982L227.785 44.232L227.775 28.482L226.404 27.607C225.65 27.1255 224.289 26.1839 223.383 25.5152C222.476 24.8466 221.527 24.2295 221.275 24.1422C221.001 24.0472 221.026 22.5732 221.336 20.482C222.482 12.7499 220.298 1.8473 217.279 0.232C217.036 0.1015 216.794 0.0262844 216.553 0.00348442L216.551 0.00757378ZM216.279 26.9862C223.763 26.9862 224.279 28.158 224.279 45.1346V58.4861H216.279H208.279V45.1346C208.279 28.158 208.796 26.9862 216.279 26.9862ZM210.029 61.9861H216.279H222.529L226.279 63.158C250.487 70.7168 267.831 100.132 272.511 141.57L272.802 144.154L269.666 143.42C245.528 137.773 200.158 136.988 171.779 141.726C168.617 142.254 164.598 143.02 162.849 143.43L159.67 144.174L160.004 140.83C163.924 101.472 182.32 70.5914 206.279 63.1522L210.029 61.9861ZM214.773 142.16C244.624 142.055 274.903 145.492 284.152 152.547L285.779 153.787V163.326V172.865L283.904 172.568C247.484 166.816 190.297 166.806 148.654 172.545L146.279 172.873V164.055V155.237V154.213C146.845 153.918 147.422 153.53 147.957 153.026C155.499 145.912 184.924 142.266 214.775 142.16L214.773 142.16ZM217.601 171.947C262.438 172.078 306.957 176.743 316.644 185.844C317.718 186.852 318.398 191.137 317.404 190.629C305.232 184.399 287.538 180.956 253.529 178.195C243.203 177.357 202.105 177.034 189.279 177.691C155.868 179.403 130.183 183.469 118.889 188.838C117.042 189.716 115.36 190.521 115.154 190.627C114.948 190.733 114.779 189.917 114.779 188.814V186.81L116.654 185.263C127.61 176.223 172.765 171.817 217.601 171.947ZM216.834 181.055C262.163 181.068 307.285 185.697 316.523 194.935L317.779 196.191V212.215V228.236H305.234H292.687L284.359 225.535C276.774 223.075 268.373 220.407 238.279 210.894C232.642 209.112 225.359 206.78 222.096 205.713L216.164 203.771L211.096 205.474C208.309 206.411 201.079 208.743 195.029 210.656C169.48 218.736 154.568 223.475 147.443 225.781L139.857 228.236H127.318H114.779V212.074V195.912L115.904 194.879C125.969 185.646 171.505 181.042 216.834 181.055ZM216.283 207.564L257.601 220.693C280.326 227.914 299.215 233.935 299.578 234.074C299.982 234.229 300.364 233.823 300.564 233.025L300.89 231.724L317.961 231.855L335.029 231.986L335.158 261.111L335.287 290.236H212.033H88.7792V260.986V231.736H110.041H131.301L131.879 233.006C132.213 233.739 132.741 234.168 133.127 234.019C133.494 233.878 147.347 229.461 163.912 224.205C180.476 218.948 199.036 213.055 205.156 211.107L216.283 207.564Z" fill="#F5F5F5"/>
<path d="M314.938 26.1884C290.228 26.1874 270.196 44.498 270.195 74.6191C270.236 94.022 285.279 106.43 292.502 121.666L314.938 168.991L337.373 121.669C344.596 106.433 359.637 94.0223 359.677 74.6191C359.676 44.4994 339.646 26.1894 314.938 26.1884ZM314.938 49.9535C317.553 49.9537 320.143 50.469 322.559 51.4701C324.976 52.4712 327.171 53.9384 329.021 55.788C330.87 57.6376 332.337 59.8334 333.338 62.2499C334.338 64.6665 334.853 67.2564 334.853 69.8719C334.853 75.1538 332.754 80.2192 329.02 83.954C325.285 87.6889 320.219 89.7873 314.938 89.7876C312.322 89.7878 309.732 89.2728 307.315 88.2721C304.899 87.2714 302.703 85.8044 300.854 83.9551C299.004 82.1057 297.537 79.9102 296.536 77.4938C295.534 75.0774 295.019 72.4875 295.019 69.8719C295.019 67.2562 295.534 64.666 296.535 62.2493C297.536 59.8325 299.003 57.6366 300.853 55.787C302.702 53.9373 304.898 52.4702 307.315 51.4692C309.731 50.4683 312.322 49.9533 314.938 49.9535Z" fill="#FDBF4A"/>
<path d="M89.416 260.898V232.159H110.176C128.789 232.159 131.009 232.29 131.643 233.423C132.274 234.55 136.904 233.239 174.319 221.342L216.288 207.996L258.108 221.302C295.567 233.222 300.021 234.481 300.823 233.384C301.6 232.321 303.873 232.159 318.084 232.159H334.45V246.029C334.45 253.657 334.674 266.59 334.948 274.768L335.445 289.636H212.431H89.416V260.898Z" fill="#F5F5F5"/>
<path d="M115.129 211.767V195.913L117.965 193.976C129.938 185.797 174.796 180.778 227.436 181.727C273.479 182.556 303.661 186.771 314.149 193.836L316.677 195.539L316.881 211.58L317.085 227.622H304.654H292.222L264.745 218.884C249.632 214.078 232.577 208.623 226.845 206.76L216.422 203.374L178.374 215.498L140.327 227.622H127.728H115.129V211.767Z" fill="#F5F5F5"/>
<path d="M147.058 163.266L147.271 153.942L149.847 152.207C159.744 145.544 193.155 141.717 230.083 143.015C253.852 143.851 271.652 146.72 280.754 151.183L284.913 153.222L285.125 162.856L285.337 172.491L282.478 172.023C280.906 171.766 278.768 171.408 277.729 171.228C263.048 168.683 215.855 167.23 190.607 168.545C174.899 169.364 154.745 171.109 149.379 172.115L146.845 172.591L147.058 163.266Z" fill="#F5F5F5"/>
<path d="M159.941 143.237C160.017 142.854 160.276 140.669 160.517 138.381C161.835 125.872 165.53 111.827 170.415 100.756C179.128 81.0141 191.846 67.9289 206.942 63.1749C209.795 62.2763 210.647 62.1864 216.296 62.1864C222.148 62.1864 222.717 62.2523 226.014 63.3083C233.079 65.5719 238.823 69.1003 244.788 74.841C255.534 85.182 263.224 99.8201 268.314 119.621C269.845 125.58 271.797 136.197 272.274 141.165C272.525 143.783 272.498 143.936 271.826 143.725C268.511 142.688 256.472 140.778 247.856 139.922C229.291 138.077 202.768 138.077 184.518 139.921C176.158 140.766 165.988 142.38 160.752 143.695C159.97 143.891 159.827 143.81 159.941 143.237Z" fill="#F5F5F5"/>
<path d="M208.628 45.2646C208.806 31.0614 208.951 29.9555 210.836 28.369C212.835 26.6873 219.73 26.6897 221.731 28.369C223.611 29.9512 223.756 31.0637 223.935 45.2607L224.1 58.4011H216.281H208.462L208.628 45.2646Z" fill="#F5F5F5"/>
<path d="M115.129 188.525C115.129 186.849 115.23 186.673 116.925 185.392C123.21 180.644 137.317 177.17 160.316 174.707C185.89 171.968 225.107 171.417 255.229 173.374C284.772 175.294 306.725 179.446 314.536 184.59C316.71 186.021 317.215 186.748 317.652 189.079C317.865 190.214 317.813 190.451 317.392 190.268C303.985 184.436 291.713 181.763 266.762 179.241C250.248 177.572 245.554 177.396 216.659 177.362C193.473 177.335 187.633 177.438 180.169 178.006C149.07 180.375 130.29 183.629 118.971 188.61L115.129 190.301V188.525Z" fill="#F5F5F5"/>
<path d="M88.3408 253.67V231.072L106.84 231.101C119.112 231.12 125.779 231.154 126.644 231.203C130.314 231.411 131.37 231.631 132.156 232.356C132.399 232.58 132.485 232.618 132.739 232.618C133.766 232.618 137.47 231.668 143.428 229.877C150.122 227.863 158.249 225.303 189.667 215.311C196.958 212.992 202.997 211.076 203.086 211.053L203.249 211.012V212.151V213.289L202.731 213.459C202.046 213.683 177.979 221.333 168.355 224.385C141.055 233.042 134.952 234.824 132.598 234.824C131.752 234.824 131.387 234.696 130.931 234.241C130.489 233.799 130.303 233.737 128.983 233.589C126.877 233.353 125.474 233.334 107.91 233.306L90.5468 233.278V254.773V276.269H89.4438H88.3408V253.67Z" fill="#F5F5F5"/>
<path d="M114.01 212.029V195.318H115.948C117.015 195.318 117.887 195.328 117.887 195.338C117.887 195.349 117.512 195.612 117.053 195.923L116.219 196.487V211.511V226.535H128.174H140.129L171.607 216.506C188.92 210.991 203.123 206.464 203.169 206.448C203.234 206.425 203.253 206.677 203.253 207.571V208.724L171.844 218.732L140.436 228.741H127.224H114.013L114.01 212.029Z" fill="#F5F5F5"/>
<path d="M115.955 194.023C116.999 193.312 118.185 192.539 118.589 192.306C127.127 187.395 147.423 183.625 175.408 181.752C183.485 181.211 190.935 180.893 201.428 180.64L203.25 180.596V181.699V182.802L201.428 182.845C188.233 183.158 178.063 183.668 167.888 184.526C142.834 186.639 125.445 190.294 118.565 194.894L117.932 195.318H115.994H114.057L115.955 194.023Z" fill="#F5F5F5"/>
<path d="M145.734 172.881C145.779 171.557 146.163 154.503 146.163 153.842V153.358L148.185 152.016C149.297 151.279 150.613 150.464 151.11 150.207C157.966 146.651 171.823 143.929 189.947 142.579C193.47 142.317 197.24 142.102 200.542 141.976C201.535 141.938 202.55 141.896 202.798 141.883L203.25 141.859V142.95V144.041L203.032 144.074C202.913 144.092 202.229 144.125 201.512 144.146C200.147 144.187 197.02 144.333 195.028 144.45C174.509 145.65 158.731 148.536 151.698 152.376C151.23 152.632 148.643 154.297 148.382 154.51C148.357 154.531 147.969 171.21 147.993 171.234C148.003 171.244 148.49 171.164 149.076 171.057C153.869 170.182 167.851 168.872 182.628 167.914C189.925 167.441 195.117 167.205 201.228 167.068L203.25 167.023V168.136V169.248L202.598 169.249C201.587 169.249 197.273 169.373 194.426 169.484C181.112 170.001 156.868 171.971 150.408 173.062C149.539 173.208 146.09 173.846 145.847 173.905L145.698 173.941L145.734 172.881Z" fill="#F5F5F5"/>
<path d="M280.59 172.74C267.633 170.526 249.92 169.479 221.164 169.23L203.316 169.075V168.042V167.009H212.608C227.971 167.009 247.432 167.617 260.537 168.496C268.732 169.046 273.421 169.546 279.196 170.487C281.885 170.926 284.136 171.284 284.198 171.284C284.338 171.284 284.075 155.052 283.923 154.288C283.712 153.225 277.304 150.499 271.409 148.964C258.127 145.507 240.995 143.921 216.619 143.893L203.317 143.878V142.875L203.316 141.872L215.549 141.873C235.373 141.873 249.876 142.835 262.141 144.961C271.245 146.539 276.531 148.093 282.232 150.867L285.879 152.641L286.042 160.559C286.132 164.914 286.254 169.65 286.314 171.084C286.392 172.952 286.335 173.682 286.113 173.66C285.943 173.643 283.458 173.228 280.59 172.738V172.74Z" fill="#F5F5F5"/>
<path d="M267.221 220.728C253.912 216.476 237.037 211.068 229.721 208.71L216.419 204.423L210.067 206.438C206.573 207.546 203.617 208.453 203.499 208.453C203.381 208.453 203.321 208.008 203.367 207.463L203.45 206.473L209.949 204.403L216.449 202.333L222.917 204.432C233.231 207.779 247.844 212.457 270.923 219.8L292.406 226.635H304.225H316.043L315.942 215.338C315.886 209.125 315.76 202.19 315.662 199.928L315.484 195.814L313.127 194.393C311.831 193.611 309.53 192.487 308.013 191.894C293.348 186.16 260.649 182.846 217.287 182.698L203.317 182.65V181.608L203.316 180.565L220.63 180.729C241.204 180.923 251.012 181.312 266.152 182.535C288.015 184.3 303.657 187.345 311.739 191.407C312.914 191.997 314.749 193.07 315.816 193.79L317.757 195.1V199.326C317.757 201.65 317.837 209.167 317.934 216.029L318.111 228.507L304.765 228.483L291.419 228.459L267.221 220.728Z" fill="#F5F5F5"/>
<path d="M85.4 261.424C85.4 231.707 85.44 228.549 85.8229 228.402C86.0556 228.313 91.831 228.24 98.6573 228.24H111.069L111.104 224.429C111.123 222.334 111.213 212.789 111.304 203.218L111.47 185.817L112.231 184.819C113.339 183.367 115.095 182.15 118.422 180.529C123.323 178.14 130.278 176.07 139.169 174.353L143.072 173.599L143.246 167.029C143.342 163.415 143.421 158.918 143.422 157.035C143.422 153.16 143.547 152.77 145.339 151.07C147.488 149.032 150.446 147.34 154.173 146.02L156.233 145.29L156.374 144.184C156.452 143.575 156.645 141.694 156.804 140.003C160.099 104.912 176.398 74.1424 197.434 63.299C199.125 62.4272 201.441 61.3295 202.581 60.8595L204.653 60.0051V54.4579C204.653 51.407 204.732 46.5452 204.829 43.6539L205.005 38.3969H206.567H208.129V48.5575V58.7181H216.284H224.44V48.5575V38.3969H226.041H227.642L227.712 49.2515L227.782 60.1061L230.59 61.2407C236.475 63.6191 240.49 66.098 245.262 70.2985C257.182 80.7921 267.342 99.2688 272.268 119.414C273.711 125.319 275.478 136.413 275.948 142.525C276.147 145.12 276.17 145.146 279.387 146.407C283.516 148.025 287.078 150.275 288.203 151.974C288.869 152.981 288.871 153.009 289.139 162.469C289.287 167.687 289.409 172.323 289.411 172.772V173.588L292.687 174.213C297.513 175.134 306.041 177.287 309.224 178.389C313.793 179.971 316.853 181.596 318.732 183.441C319.855 184.543 320.476 185.397 320.683 186.127C321.116 187.645 321.576 201.923 321.407 208.597C321.329 211.69 321.336 217.376 321.422 221.231L321.58 228.24C327.659 228.209 330.881 227.873 344.609 228.24V261.423V294.28H212.006H85.3999L85.4 261.424ZM336.624 286.462C336.119 273.855 335.92 265.202 335.76 248.895L335.585 230.914L321.122 230.924C305.39 230.934 301.759 231.12 300.577 231.993L299.842 232.537L297.369 231.962C292.565 230.846 281.472 227.405 237.809 213.49C226.265 209.811 216.579 206.801 216.284 206.801C215.99 206.801 206.304 209.811 194.76 213.49C151.162 227.385 140.773 230.608 135.516 231.875C133.004 232.481 132.627 232.514 132.234 232.166C131.077 231.138 130.257 231.096 108.863 230.985L88.0737 230.876V260.843V290.811H212.436H336.798L336.624 286.462ZM150.949 225.587C156.442 223.834 173.424 218.421 188.687 213.559L216.439 204.717L226.255 207.902C231.654 209.653 248.568 215.066 263.842 219.93L291.613 228.774H304.996H318.379L318.202 216.542C318.105 209.813 318.025 202.189 318.024 199.598L318.024 194.887L315.551 193.259C311.3 190.46 307.385 188.925 299.708 187.047C287.14 183.972 269.029 182.005 242.756 180.86C232.428 180.41 197.37 180.411 188.343 180.86C160.061 182.271 140.744 184.695 127.942 188.438C122.922 189.906 119.656 191.335 116.55 193.42L113.876 195.216L113.807 211.994L113.738 228.773H127.35H140.961L150.949 225.587ZM117.691 189.576C129.741 183.88 149.854 180.41 184.466 178.055C190.328 177.656 195.086 177.585 214.814 177.601C239.318 177.622 248.838 177.878 258.927 178.786C287.849 181.39 303.68 184.498 315.58 189.907C316.662 190.399 317.669 190.726 317.818 190.634C318.193 190.403 317.862 187.836 317.307 186.673C316.136 184.216 309.636 181.205 300.912 179.078C283.046 174.723 256.526 172.31 222.167 171.914C174.943 171.37 133.789 175.863 119.873 183.081C117.254 184.44 114.707 186.482 114.587 187.321C114.483 188.042 114.787 190.806 114.97 190.806C115.035 190.806 116.26 190.252 117.691 189.576ZM148.636 173.55C153.389 172.638 166.988 171.336 183.664 170.197C194.217 169.477 221.537 169.198 236.37 169.659C258.308 170.341 269.906 171.222 280.939 173.044C284.026 173.554 286.571 173.939 286.595 173.899C286.619 173.859 286.553 170.398 286.448 166.206C286.343 162.015 286.245 157.192 286.231 155.489L286.206 152.391L282.797 150.756C278.464 148.677 276.034 147.794 271.366 146.6C258.253 143.248 240.106 141.611 216.018 141.609C194.871 141.609 178.266 142.921 165.215 145.63C157.196 147.294 152.665 148.905 148.609 151.532L146.147 153.127L145.995 155.857C145.912 157.358 145.772 162.045 145.684 166.273C145.532 173.588 145.548 173.961 146.011 173.961C146.279 173.961 147.46 173.776 148.636 173.55ZM164.113 143.347C175.884 140.811 188.797 139.461 206.602 138.905C229.041 138.205 254.154 140.043 269.206 143.487C271.106 143.922 272.717 144.222 272.784 144.155C273.159 143.78 271.341 131.547 269.895 124.71C264.7 100.155 253.899 80.4792 239.891 70.0524C235.542 66.8155 231.75 64.8707 226.057 62.9563L222.994 61.9267H216.263H209.532L205.956 63.15C203.99 63.8229 200.997 65.0899 199.306 65.9656C179.093 76.4322 164.008 104.389 160.151 138.532C159.918 140.591 159.665 142.743 159.588 143.313C159.45 144.332 159.462 144.348 160.192 144.191C160.601 144.103 162.366 143.723 164.113 143.347Z" fill="#F5F5F5"/>
<path d="M88.3408 283.454V276.369H89.4104H90.4799V282.519V288.668H212.446H334.412L334.228 283.388C333.721 268.799 333.545 259.501 333.539 246.89L333.529 233.052L324.906 233.073C320.163 233.085 313.127 233.181 309.269 233.287C302.618 233.469 302.215 233.509 301.459 234.067C299.521 235.5 299.317 235.442 239.666 216.466L216.259 209.02L210.053 211.009C206.64 212.103 203.72 212.998 203.564 212.998C203.401 212.998 203.316 212.583 203.364 212.02L203.447 211.041L209.869 209L216.292 206.958L231.26 211.721C285.88 229.101 294.587 231.796 298.394 232.5C299.734 232.747 299.981 232.719 300.645 232.247C301.869 231.375 305.391 231.19 320.851 231.185L335.313 231.175L335.492 249.023C335.654 265.292 335.872 274.674 336.356 286.323L336.531 290.534H212.438H88.3408V283.454Z" fill="#F5F5F5"/>
<path d="M324.045 243.641V264.891V286.141H327.545H331.045V264.891V243.641H327.545H324.045Z" fill="#004062"/>
<path d="M301.545 243.641V264.891V286.141H305.045H308.545V264.891V243.641H305.045H301.545Z" fill="#004062"/>
<path d="M279.045 243.641V264.891V286.141H282.545H286.045V264.891V243.641H282.545H279.045Z" fill="#004062"/>
<path d="M256.545 243.641V264.891V286.141H260.045H263.545V264.891V243.641H260.045H256.545Z" fill="#004062"/>
<path d="M234.045 243.641V264.891V286.141H237.545H241.045V264.891V243.641H237.545H234.045Z" fill="#004062"/>
<path d="M211.545 243.641V264.891V286.141H215.045H218.545V264.891V243.641H215.045H211.545Z" fill="#004062"/>
<path d="M189.045 243.641V264.891V286.141H192.545H196.045V264.891V243.641H192.545H189.045Z" fill="#004062"/>
<path d="M166.545 243.641V264.891V286.141H170.045H173.545V264.891V243.641H170.045H166.545Z" fill="#004062"/>
<path d="M144.045 243.641V264.891V286.141H147.545H151.045V264.891V243.641H147.545H144.045Z" fill="#004062"/>
<path d="M121.545 243.641V264.891V286.141H125.045H128.545V264.891V243.641H125.045H121.545Z" fill="#004062"/>
<path d="M99.0449 243.641V264.891V286.141H102.545H106.045V264.891V243.641H102.545H99.0449Z" fill="#004062"/>
<path d="M169.6 109.524C168.668 109.566 167.539 111.355 166.752 114.867C166.131 117.637 165.982 123.369 166.49 124.969C167.809 129.123 171.268 121.662 171.268 114.662C171.268 111.186 170.532 109.481 169.6 109.524Z" fill="#004062"/>
<path d="M179.344 107.647C176.614 108.15 174.78 119.836 176.83 123.666C177.569 125.047 178.367 124.554 179.697 121.897C181.915 117.468 181.661 107.22 179.344 107.647Z" fill="#004062"/>
<path d="M252.656 107.539C252.171 107.528 251.707 108.005 251.317 109.125C250.244 112.202 250.92 119.404 252.59 122.674C253.629 124.71 255.101 124.476 255.74 122.174C257.243 116.763 254.758 107.586 252.656 107.539Z" fill="#004062"/>
<path d="M262.598 109.475C262.113 109.464 261.648 109.941 261.258 111.061C260.185 114.138 260.862 121.34 262.531 124.61C263.571 126.646 265.042 126.412 265.682 124.11C267.185 118.699 264.7 109.522 262.598 109.475Z" fill="#004062"/>
<path d="M189.383 106.68C188.69 106.542 187.909 107.23 187.172 108.887C185.282 113.137 185.753 121.721 187.955 123.151C189.67 124.264 191.501 119.26 191.467 113.549C191.442 109.426 190.537 106.909 189.383 106.68Z" fill="#004062"/>
<path d="M232.787 105.643C232.539 105.602 232.28 105.63 232.014 105.733C229.24 106.797 228.913 117.397 231.531 121.393C233.5 124.398 235.765 120.902 235.766 114.858C235.767 109.608 234.526 105.932 232.787 105.643Z" fill="#004062"/>
<path d="M221.449 105.16C220.43 105.314 219.423 106.706 218.807 109.58C217.911 113.756 218.426 118.423 220.057 120.924C222.187 124.191 224.897 120.053 224.887 113.549C224.878 108.082 223.147 104.904 221.449 105.16Z" fill="#004062"/>
<path d="M198.972 122.204C200.743 122.266 202.307 118.644 202.465 114.114C202.623 109.583 201.316 105.861 199.545 105.799C197.774 105.737 196.21 109.359 196.052 113.89C195.894 118.42 197.201 122.142 198.972 122.204Z" fill="#004062"/>
<path d="M210.012 121.791C211.783 121.853 213.347 118.23 213.505 113.7C213.663 109.17 212.356 105.448 210.585 105.386C208.814 105.324 207.25 108.946 207.091 113.476C206.933 118.006 208.241 121.729 210.012 121.791Z" fill="#004062"/>
<path d="M243.966 122.775C245.361 122.653 246.17 118.869 245.773 114.324C245.375 109.779 243.921 106.193 242.526 106.315C241.13 106.437 240.321 110.221 240.719 114.766C241.117 119.312 242.57 122.897 243.966 122.775Z" fill="#004062"/>
<path d="M212.265 158.523C212.303 148.873 213.306 145.982 216.324 146.829C218.338 147.394 218.887 149.576 219.129 157.964L219.35 165.65H215.794H212.237L212.265 158.523Z" fill="#004062"/>
<path d="M197.765 158.523C197.803 148.872 198.806 145.982 201.824 146.828C203.838 147.394 204.387 149.576 204.629 157.964L204.85 165.649H201.294H197.737L197.765 158.523Z" fill="#004062"/>
<path d="M183.265 159.512C183.303 149.862 184.306 146.972 187.324 147.818C189.338 148.383 189.887 150.566 190.129 158.953L190.35 166.639H186.794H183.237L183.265 159.512Z" fill="#004062"/>
<path d="M168.765 160.502C168.803 150.851 169.806 147.961 172.824 148.807C174.838 149.372 175.387 151.555 175.629 159.943L175.85 167.628H172.294H168.737L168.765 160.502Z" fill="#004062"/>
<path d="M153.744 162.059C153.782 152.409 154.785 149.519 157.803 150.365C159.817 150.93 160.366 153.112 160.608 161.5L160.829 169.186H157.273H153.716L153.744 162.059Z" fill="#004062"/>
<path d="M227.015 158.958C227.053 149.307 228.056 146.417 231.074 147.264C233.088 147.829 233.637 150.011 233.879 158.399L234.1 166.084H230.544H226.987L227.015 158.958Z" fill="#004062"/>
<path d="M241.314 159.511C241.353 149.861 242.356 146.97 245.373 147.817C247.387 148.382 247.937 150.564 248.178 158.952L248.4 166.638H244.843H241.286L241.314 159.511Z" fill="#004062"/>
<path d="M256.265 160.499C256.303 150.848 257.306 147.958 260.324 148.805C262.338 149.37 262.887 151.552 263.129 159.94L263.35 167.626H259.794H256.237L256.265 160.499Z" fill="#004062"/>
<path d="M270.765 162.108C270.803 152.457 271.806 149.567 274.824 150.413C276.838 150.979 277.387 153.161 277.629 161.549L277.85 169.234H274.294H270.737L270.765 162.108Z" fill="#004062"/>
<path d="M133.988 186.003H130.313V228.497H133.988V186.003Z" fill="#004062"/>
<path d="M154.663 182.339H150.988V222.49H154.663V182.339Z" fill="#004062"/>
<path d="M175.5 180.39H171.825V215.852H175.5V180.39Z" fill="#004062"/>
<path d="M196.076 179.067H192.401V209.295H196.076V179.067Z" fill="#004062"/>
<path d="M216.651 177.601H212.977V205.347H216.651V177.601Z" fill="#004062"/>
<path d="M237.576 179.539H233.901V208.823H237.576V179.539Z" fill="#004062"/>
<path d="M258.086 180.562H254.411V215.68H258.086V180.562Z" fill="#004062"/>
<path d="M279.038 182.169H275.363V222.66H279.038V182.169Z" fill="#004062"/>
<path d="M299.663 185.735H295.988V228.299H299.663V185.735Z" fill="#004062"/>
</g>
<defs>
<clipPath id="clip0_84_30">
<rect width="434.262" height="322.259" fill="white"/>
</clipPath>
</defs>
</svg>
