<svg width="348" height="321" viewBox="0 0 348 321" fill="none" xmlns="http://www.w3.org/2000/svg">
<g clip-path="url(#clip0_84_94)">
<path d="M53.6685 196.989C78.9384 196.989 99.4237 190.341 99.4237 182.14C99.4237 173.939 78.9384 167.291 53.6685 167.291C28.3985 167.291 7.91309 173.939 7.91309 182.14C7.91309 190.341 28.3985 196.989 53.6685 196.989Z" fill="#1E91CE"/>
<path d="M53.6685 320.71C78.9384 320.71 99.4237 314.062 99.4237 305.861C99.4237 297.66 78.9384 291.012 53.6685 291.012C28.3985 291.012 7.91309 297.66 7.91309 305.861C7.91309 314.062 28.3985 320.71 53.6685 320.71Z" fill="#FDBF4A"/>
<path d="M99.4237 182.14H7.91309V305.861H99.4237V182.14Z" fill="#FDBF4A"/>
<path d="M53.6684 201.801C83.0326 201.801 106.837 194.075 106.837 184.546C106.837 175.016 83.0326 167.291 53.6684 167.291C24.3043 167.291 0.5 175.016 0.5 184.546C0.5 194.075 24.3043 201.801 53.6684 201.801Z" fill="#1E91CE"/>
<path d="M106.837 167.291H0.5V184.546H106.837V167.291Z" fill="#1E91CE"/>
<path d="M53.6684 184.546C83.0326 184.546 106.837 176.82 106.837 167.291C106.837 157.761 83.0326 150.035 53.6684 150.035C24.3043 150.035 0.5 157.761 0.5 167.291C0.5 176.82 24.3043 184.546 53.6684 184.546Z" fill="#004062"/>
<path d="M294.523 196.989C319.793 196.989 340.278 190.341 340.278 182.14C340.278 173.939 319.793 167.291 294.523 167.291C269.253 167.291 248.768 173.939 248.768 182.14C248.768 190.341 269.253 196.989 294.523 196.989Z" fill="#1E91CE"/>
<path d="M294.523 320.71C319.793 320.71 340.278 314.062 340.278 305.861C340.278 297.66 319.793 291.012 294.523 291.012C269.253 291.012 248.768 297.66 248.768 305.861C248.768 314.062 269.253 320.71 294.523 320.71Z" fill="#FDBF4A"/>
<path d="M340.278 182.14H248.768V305.861H340.278V182.14Z" fill="#FDBF4A"/>
<path d="M294.523 201.801C323.887 201.801 347.691 194.075 347.691 184.546C347.691 175.016 323.887 167.291 294.523 167.291C265.159 167.291 241.354 175.016 241.354 184.546C241.354 194.075 265.159 201.801 294.523 201.801Z" fill="#1E91CE"/>
<path d="M347.691 167.291H241.354V184.546H347.691V167.291Z" fill="#1E91CE"/>
<path d="M294.523 184.546C323.887 184.546 347.691 176.82 347.691 167.291C347.691 157.761 323.887 150.035 294.523 150.035C265.159 150.035 241.354 157.761 241.354 167.291C241.354 176.82 265.159 184.546 294.523 184.546Z" fill="#004062"/>
<path d="M174.096 196.989C199.366 196.989 219.851 190.341 219.851 182.14C219.851 173.939 199.366 167.291 174.096 167.291C148.826 167.291 128.34 173.939 128.34 182.14C128.34 190.341 148.826 196.989 174.096 196.989Z" fill="#1E91CE"/>
<path d="M174.096 320.71C199.366 320.71 219.851 314.062 219.851 305.861C219.851 297.66 199.366 291.012 174.096 291.012C148.826 291.012 128.34 297.66 128.34 305.861C128.34 314.062 148.826 320.71 174.096 320.71Z" fill="#FDBF4A"/>
<path d="M219.851 182.14H128.34V305.861H219.851V182.14Z" fill="#FDBF4A"/>
<path d="M174.096 201.801C203.46 201.801 227.264 194.075 227.264 184.546C227.264 175.016 203.46 167.291 174.096 167.291C144.732 167.291 120.927 175.016 120.927 184.546C120.927 194.075 144.732 201.801 174.096 201.801Z" fill="#1E91CE"/>
<path d="M227.264 167.291H120.927V184.546H227.264V167.291Z" fill="#1E91CE"/>
<path d="M174.096 184.546C203.46 184.546 227.264 176.82 227.264 167.291C227.264 157.761 203.46 150.035 174.096 150.035C144.732 150.035 120.927 157.761 120.927 167.291C120.927 176.82 144.732 184.546 174.096 184.546Z" fill="#004062"/>
<path d="M58.394 33.8483C46.7465 33.8684 37.2267 43.147 36.9125 54.7904H36.8711V55.3714V112.037C36.8711 112.037 72.2929 122.018 78.8964 108.66C84.5673 97.1883 79.9173 55.3714 79.9173 55.3714V54.7904H79.9013C79.5868 43.1366 70.0521 33.8518 58.394 33.8483Z" fill="#BC1C1A"/>
<path d="M57.3185 30.6115C65.6079 30.6115 72.3279 23.8915 72.3279 15.6021C72.3279 7.3126 65.6079 0.592651 57.3185 0.592651C49.029 0.592651 42.3091 7.3126 42.3091 15.6021C42.3091 23.8915 49.029 30.6115 57.3185 30.6115Z" fill="#BC1C1A"/>
<path d="M50.3973 97.0253C50.3973 97.0253 37.1195 121.504 36.6088 131.944C36.0981 142.383 36.6088 166.142 36.6088 166.142" fill="#BC1C1A"/>
<path d="M53.6967 90.9401C52.0835 90.0661 50.1892 89.8684 48.4303 90.3905C46.6714 90.9126 45.1917 92.1117 44.3165 93.7244C44.3165 93.7244 40.8956 100.027 37.3991 107.701C33.9025 115.374 30.0827 123.726 29.6972 131.606C29.1505 142.782 29.6892 166.287 29.6892 166.287C29.708 167.196 29.9058 168.093 30.2712 168.925C30.6365 169.758 31.1623 170.51 31.8186 171.14C32.4748 171.769 33.2486 172.263 34.0957 172.593C34.9429 172.923 35.8468 173.083 36.7557 173.064C37.6654 173.045 38.5625 172.847 39.3955 172.481C40.2286 172.115 40.9814 171.589 41.6108 170.932C42.2401 170.275 42.7338 169.5 43.0635 168.652C43.3932 167.804 43.5524 166.899 43.5321 165.989C43.5321 165.989 43.0496 141.983 43.524 132.28C43.6493 129.721 46.7245 120.618 49.9945 113.442C53.2645 106.266 56.4806 100.328 56.4806 100.328C56.9146 99.529 57.1869 98.6521 57.2818 97.7477C57.3768 96.8433 57.2926 95.929 57.034 95.0571C56.7754 94.1853 56.3476 93.3729 55.7749 92.6665C55.2022 91.9601 54.4963 91.3734 53.6967 90.9401Z" fill="#BC1C1A"/>
<path d="M47.7332 42.6299C47.7332 42.6299 38.5632 47.4444 36.8712 57.7585C35.1791 68.0726 27.3291 101.373 27.3291 101.373" fill="#BC1C1A"/>
<path d="M49.3124 37.5609C47.9678 37.1426 46.5122 37.2752 45.2654 37.9295C45.2654 37.9295 33.7722 43.8225 31.6265 56.9017C30.0636 66.4282 22.16 100.156 22.16 100.156C21.8384 101.526 22.074 102.969 22.8152 104.166C23.5564 105.363 24.7425 106.217 26.1129 106.54C27.4825 106.862 28.9239 106.627 30.1208 105.887C31.3177 105.148 32.1723 103.964 32.4971 102.595C32.4971 102.595 40.2913 69.7209 42.1125 58.6193C43.351 51.0703 50.1986 47.3332 50.1986 47.3332C50.8168 47.0091 51.3651 46.5662 51.812 46.03C52.259 45.4938 52.5959 44.8748 52.8035 44.2084C53.0111 43.5419 53.0853 42.841 53.0219 42.1459C52.9585 41.4507 52.7587 40.7748 52.4339 40.1569C51.7781 38.9124 50.6555 37.9788 49.3124 37.5609Z" fill="#BC1C1A"/>
<path d="M71.9362 95.6809C71.9362 95.6809 63.1108 122.094 64.4207 132.463C65.7306 142.833 70.3592 166.142 70.3592 166.142" fill="#BC1C1A"/>
<path d="M74.1276 89.1128C72.3866 88.5328 70.4865 88.6681 68.8451 89.4887C67.2038 90.3094 65.9556 91.7483 65.3749 93.4891C65.3749 93.4891 63.0938 100.29 60.9828 108.454C58.8718 116.617 56.5667 125.504 57.5554 133.331C58.9578 144.433 63.571 167.487 63.571 167.487C63.928 169.288 64.9853 170.872 66.5105 171.893C68.0357 172.914 69.9039 173.287 71.7041 172.93C73.5043 172.573 75.089 171.516 76.1097 169.991C77.1304 168.466 77.5036 166.598 77.1471 164.797C77.1471 164.797 72.5059 141.236 71.2885 131.598C70.9672 129.056 72.4122 119.547 74.3864 111.912C76.3607 104.277 78.504 97.8734 78.504 97.8734C78.7923 97.0108 78.9078 96.0998 78.8439 95.1926C78.78 94.2854 78.5379 93.3996 78.1314 92.586C77.725 91.7724 77.1622 91.0469 76.4752 90.4509C75.7882 89.8549 74.9905 89.4002 74.1276 89.1128Z" fill="#BC1C1A"/>
<path d="M94.9425 0.565685C93.5521 0.345024 92.1309 0.685277 90.9912 1.51174C89.8515 2.33821 89.0865 3.58328 88.8642 4.97343C88.8642 4.97343 87.8736 11.2164 86.5035 18.0241C85.8184 21.428 85.0383 24.9712 84.2682 27.8513C83.4981 30.7315 82.4237 33.2294 82.4879 33.1297C82.255 33.4919 78.9993 35.9726 75.8998 37.4041C72.8003 38.8355 70.0333 39.7256 70.0333 39.7256C69.3689 39.9387 68.753 40.2806 68.2208 40.7318C67.6886 41.183 67.2505 41.7346 66.9315 42.3551C66.6125 42.9757 66.4189 43.6529 66.3616 44.3483C66.3044 45.0436 66.3848 45.7435 66.598 46.4078C66.8112 47.0722 67.1531 47.6881 67.6043 48.2203C68.0555 48.7525 68.6071 49.1906 69.2276 49.5096C69.8481 49.8286 70.5254 50.0222 71.2207 50.0794C71.9161 50.1366 72.6159 50.0563 73.2802 49.843C73.2802 49.843 76.5916 48.7887 80.3546 47.0509C84.1176 45.3131 88.5122 43.4032 91.421 38.8786C93.0559 36.3354 93.6607 33.8356 94.5269 30.5964C95.3929 27.3572 96.2078 23.6518 96.9189 20.1182C98.3413 13.051 99.3581 6.64398 99.3581 6.64398C99.4673 5.95494 99.4397 5.25114 99.2769 4.57276C99.1141 3.89439 98.8192 3.25476 98.4092 2.69033C97.9992 2.12591 97.482 1.64774 96.8872 1.28319C96.2923 0.91865 95.6315 0.674847 94.9425 0.565685Z" fill="#BC1C1A"/>
<path d="M138.263 254.064C135.779 257.011 134.567 260.823 134.893 264.664C135.22 268.504 137.058 272.057 140.005 274.541L171.501 301.101C172.96 302.331 174.647 303.262 176.465 303.84C178.284 304.419 180.199 304.633 182.1 304.471C184.002 304.31 185.853 303.775 187.548 302.898C189.243 302.021 190.748 300.819 191.979 299.36C193.209 297.901 194.14 296.214 194.718 294.395C195.296 292.577 195.511 290.662 195.349 288.76C195.187 286.859 194.652 285.008 193.775 283.313C192.898 281.618 191.696 280.112 190.237 278.882L158.74 252.323C155.794 249.839 151.981 248.626 148.141 248.953C144.301 249.28 140.748 251.118 138.263 254.064Z" fill="#004062"/>
<path d="M174.282 265.429C170.182 267.988 166.362 271.188 163.208 275.212C159.792 279.572 157.461 283.875 155.899 287.945L159.769 291.208C161.182 287.168 163.461 282.77 167.033 278.212C170.111 274.285 174.04 271.216 178.3 268.817L174.282 265.429Z" fill="#F5F5F5"/>
<path d="M179.917 242.216C177.315 243.636 175.384 246.031 174.549 248.875C173.713 251.718 174.042 254.777 175.462 257.379L190.642 285.19C191.345 286.478 192.295 287.615 193.437 288.536C194.58 289.458 195.893 290.145 197.301 290.558C198.709 290.972 200.185 291.104 201.644 290.948C203.103 290.791 204.517 290.349 205.805 289.646C207.094 288.942 208.231 287.992 209.152 286.85C210.073 285.707 210.76 284.394 211.173 282.986C211.587 281.578 211.719 280.102 211.563 278.643C211.406 277.184 210.963 275.77 210.26 274.482L195.08 246.671C193.66 244.069 191.265 242.138 188.421 241.303C185.578 240.467 182.518 240.796 179.917 242.216Z" fill="#004062"/>
<path d="M202.57 260.394C198.919 261.087 195.289 262.316 191.908 264.323C188.245 266.496 185.375 268.932 183.122 271.414L184.987 274.831C187.125 272.328 189.984 269.811 193.814 267.538C197.114 265.581 200.785 264.475 204.507 263.942L202.57 260.394Z" fill="#F5F5F5"/>
<path d="M258.691 254.064C256.206 257.011 254.994 260.823 255.32 264.664C255.647 268.504 257.486 272.057 260.432 274.541L291.928 301.101C293.387 302.331 295.074 303.262 296.893 303.84C298.711 304.419 300.626 304.633 302.528 304.471C304.429 304.31 306.28 303.775 307.975 302.898C309.67 302.021 311.176 300.819 312.406 299.36C313.636 297.901 314.567 296.214 315.145 294.395C315.723 292.577 315.938 290.662 315.776 288.76C315.614 286.859 315.08 285.008 314.202 283.313C313.325 281.618 312.123 280.112 310.664 278.882L279.167 252.323C276.221 249.839 272.408 248.626 268.568 248.953C264.728 249.28 261.175 251.118 258.691 254.064Z" fill="#004062"/>
<path d="M294.709 265.429C290.609 267.988 286.789 271.188 283.636 275.212C280.219 279.572 277.888 283.875 276.327 287.945L280.196 291.208C281.609 287.168 283.888 282.77 287.461 278.212C290.538 274.285 294.467 271.216 298.727 268.817L294.709 265.429Z" fill="#F5F5F5"/>
<path d="M300.344 242.216C297.743 243.636 295.812 246.031 294.976 248.875C294.141 251.718 294.469 254.777 295.889 257.379L311.069 285.19C311.772 286.478 312.722 287.615 313.864 288.536C315.007 289.458 316.32 290.145 317.728 290.558C319.136 290.972 320.612 291.104 322.071 290.948C323.53 290.791 324.944 290.349 326.233 289.646C327.521 288.942 328.658 287.992 329.579 286.85C330.5 285.707 331.187 284.394 331.601 282.986C332.014 281.578 332.147 280.102 331.99 278.643C331.833 277.184 331.391 275.77 330.687 274.482L315.507 246.671C314.087 244.069 311.692 242.138 308.848 241.303C306.005 240.467 302.946 240.796 300.344 242.216Z" fill="#004062"/>
<path d="M322.998 260.394C319.346 261.087 315.717 262.316 312.335 264.323C308.672 266.496 305.802 268.932 303.55 271.414L305.414 274.831C307.552 272.328 310.411 269.811 314.241 267.538C317.541 265.581 321.213 264.475 324.934 263.942L322.998 260.394Z" fill="#F5F5F5"/>
<path d="M178.278 33.8483C166.63 33.8684 157.111 43.147 156.796 54.7904H156.755V55.3714V112.037C156.755 112.037 192.177 122.018 198.78 108.66C204.451 97.1883 199.801 55.3714 199.801 55.3714V54.7904H199.785C199.471 43.1366 189.936 33.8518 178.278 33.8483Z" fill="#1E91CE"/>
<path d="M177.203 30.6115C185.492 30.6115 192.212 23.8915 192.212 15.6021C192.212 7.3126 185.492 0.592651 177.203 0.592651C168.913 0.592651 162.193 7.3126 162.193 15.6021C162.193 23.8915 168.913 30.6115 177.203 30.6115Z" fill="#1E91CE"/>
<path d="M170.282 97.0253C170.282 97.0253 157.004 121.504 156.493 131.944C155.982 142.383 156.493 166.142 156.493 166.142" fill="#1E91CE"/>
<path d="M173.579 90.9401C171.965 90.0661 170.071 89.8684 168.312 90.3905C166.553 90.9126 165.074 92.1117 164.198 93.7244C164.198 93.7244 160.777 100.027 157.281 107.701C153.784 115.374 149.965 123.726 149.579 131.606C149.032 142.782 149.571 166.287 149.571 166.287C149.59 167.196 149.788 168.093 150.153 168.925C150.518 169.758 151.044 170.51 151.7 171.14C152.357 171.769 153.13 172.263 153.978 172.593C154.825 172.923 155.729 173.083 156.638 173.064C157.547 173.045 158.444 172.847 159.277 172.481C160.11 172.115 160.863 171.589 161.493 170.932C162.122 170.275 162.616 169.5 162.945 168.652C163.275 167.804 163.434 166.899 163.414 165.989C163.414 165.989 162.931 141.983 163.406 132.28C163.531 129.721 166.606 120.618 169.876 113.442C173.146 106.266 176.362 100.328 176.362 100.328C176.796 99.529 177.069 98.6521 177.164 97.7477C177.259 96.8433 177.174 95.929 176.916 95.0571C176.657 94.1853 176.229 93.3729 175.657 92.6665C175.084 91.9601 174.378 91.3734 173.579 90.9401Z" fill="#1E91CE"/>
<path d="M167.617 42.6299C167.617 42.6299 158.447 47.4444 156.755 57.7585C155.063 68.0726 147.213 101.373 147.213 101.373" fill="#1E91CE"/>
<path d="M165.147 37.9296C165.147 37.9296 153.662 43.8225 151.516 56.9017C149.953 66.4282 142.042 100.156 142.042 100.156C141.72 101.526 141.956 102.969 142.697 104.166C143.438 105.363 144.624 106.217 145.995 106.54C147.365 106.864 148.809 106.631 150.008 105.891C151.206 105.151 152.062 103.965 152.387 102.595C152.387 102.595 160.173 69.7209 161.994 58.6193C163.233 51.0703 170.088 47.3333 170.088 47.3333C170.707 47.0091 171.255 46.5663 171.702 46.0301C172.149 45.4939 172.486 44.8749 172.693 44.2084C172.901 43.5419 172.975 42.8411 172.912 42.1459C172.848 41.4507 172.648 40.7749 172.324 40.157C171.999 39.5394 171.555 38.992 171.019 38.5458C170.482 38.0996 169.863 37.7635 169.197 37.5567C168.53 37.3498 167.83 37.2763 167.135 37.3403C166.44 37.4042 165.765 37.6045 165.147 37.9296Z" fill="#1E91CE"/>
<path d="M191.82 95.681C191.82 95.681 182.995 122.094 184.304 132.463C185.614 142.833 190.243 166.142 190.243 166.142" fill="#1E91CE"/>
<path d="M194.017 89.1127C193.155 88.8244 192.244 88.7089 191.336 88.7728C190.429 88.8367 189.543 89.0788 188.73 89.4853C187.916 89.8917 187.191 90.4545 186.595 91.1416C185.999 91.8286 185.544 92.6263 185.257 93.4891C185.257 93.4891 182.983 100.29 180.872 108.453C178.761 116.617 176.448 125.504 177.437 133.331C178.84 144.433 183.453 167.487 183.453 167.487C183.629 168.38 183.98 169.228 184.485 169.985C184.99 170.741 185.639 171.391 186.395 171.896C187.151 172.402 187.999 172.753 188.891 172.931C189.783 173.108 190.702 173.108 191.594 172.93C193.392 172.572 194.975 171.514 195.994 169.989C197.013 168.464 197.385 166.596 197.029 164.797C197.029 164.797 192.388 141.236 191.17 131.598C190.849 129.056 192.302 119.547 194.276 111.912C196.25 104.277 198.386 97.8733 198.386 97.8733C198.674 97.0113 198.79 96.1008 198.727 95.194C198.663 94.2871 198.422 93.4016 198.016 92.5881C197.61 91.7746 197.049 91.0489 196.362 90.4526C195.676 89.8563 194.879 89.401 194.017 89.1127Z" fill="#1E91CE"/>
<path d="M192.245 41.4589C191.547 41.4554 190.855 41.5893 190.209 41.853C189.563 42.1168 188.976 42.5052 188.48 42.9962C187.983 43.4864 187.588 44.0696 187.317 44.7125C187.046 45.3555 186.905 46.0455 186.9 46.7432C186.896 47.4409 187.029 48.1327 187.292 48.7789C187.555 49.4252 187.943 50.0133 188.433 50.5097C188.433 50.5097 193.802 55.9359 199.107 61.6702C201.76 64.5374 204.401 67.4909 206.268 69.772C206.688 70.2853 206.872 70.5658 207.201 70.9955C206.83 71.375 206.609 71.6299 206.142 72.0779C204.057 74.0799 201.162 76.6342 198.268 79.1052C192.48 84.0471 186.692 88.6814 186.692 88.6814C185.592 89.5613 184.886 90.8422 184.73 92.2425C184.574 93.6427 184.981 95.0475 185.861 96.1479C186.74 97.2483 188.021 97.954 189.422 98.1099C190.822 98.2658 192.227 97.8591 193.327 96.9793C193.327 96.9793 199.215 92.2682 205.17 87.1834C208.148 84.641 211.142 82.0108 213.507 79.7404C214.689 78.6053 215.706 77.5742 216.566 76.5719C216.996 76.0707 217.388 75.5838 217.781 74.9719C218.175 74.36 218.739 73.7949 218.911 71.8896C219.097 69.8276 218.55 69.1199 218.228 68.4309C217.907 67.7418 217.574 67.1992 217.201 66.6348C216.455 65.5061 215.549 64.3401 214.487 63.0428C212.364 60.4482 209.641 57.4132 206.911 54.4626C201.451 48.5612 195.994 43.0354 195.994 43.0354C195.503 42.5393 194.919 42.1447 194.276 41.8742C193.633 41.6037 192.942 41.4626 192.245 41.4589Z" fill="#1E91CE"/>
<path d="M295.301 33.8483C283.653 33.8684 274.133 43.147 273.819 54.7904H273.778V55.3714V112.037C273.778 112.037 309.2 122.018 315.803 108.66C321.474 97.1883 316.824 55.3714 316.824 55.3714V54.7904H316.808C316.494 43.1366 306.959 33.8518 295.301 33.8483Z" fill="#1E91CE"/>
<path d="M294.225 30.6115C302.515 30.6115 309.235 23.8915 309.235 15.6021C309.235 7.3126 302.515 0.592651 294.225 0.592651C285.936 0.592651 279.216 7.3126 279.216 15.6021C279.216 23.8915 285.936 30.6115 294.225 30.6115Z" fill="#1E91CE"/>
<path d="M287.305 97.0253C287.305 97.0253 274.027 121.504 273.516 131.944C273.005 142.383 273.516 166.142 273.516 166.142" fill="#1E91CE"/>
<path d="M290.604 90.9401C288.991 90.0661 287.097 89.8684 285.338 90.3905C283.579 90.9126 282.099 92.1117 281.224 93.7244C281.224 93.7244 277.803 100.027 274.307 107.701C270.81 115.374 266.99 123.726 266.605 131.606C266.058 142.782 266.597 166.287 266.597 166.287C266.616 167.196 266.813 168.093 267.179 168.925C267.544 169.758 268.07 170.51 268.726 171.14C269.382 171.769 270.156 172.263 271.003 172.593C271.851 172.923 272.754 173.083 273.663 173.064C274.572 173.044 275.469 172.845 276.301 172.479C277.133 172.113 277.885 171.586 278.513 170.929C279.142 170.272 279.635 169.498 279.964 168.65C280.293 167.802 280.452 166.898 280.432 165.989C280.432 165.989 279.957 141.983 280.432 132.28C280.557 129.721 283.632 120.618 286.902 113.442C290.172 106.266 293.388 100.328 293.388 100.328C293.822 99.529 294.095 98.6521 294.19 97.7477C294.285 96.8433 294.2 95.929 293.942 95.0571C293.683 94.1853 293.255 93.3729 292.683 92.6665C292.11 91.9601 291.404 91.3734 290.604 90.9401Z" fill="#1E91CE"/>
<path d="M284.64 42.6299C284.64 42.6299 275.47 47.4444 273.778 57.7585C272.086 68.0726 264.236 101.373 264.236 101.373" fill="#1E91CE"/>
<path d="M282.173 37.9296C282.173 37.9296 270.68 43.8225 268.534 56.9017C266.971 66.4282 259.068 100.156 259.068 100.156C258.746 101.526 258.982 102.969 259.723 104.166C260.464 105.363 261.65 106.217 263.021 106.54C264.39 106.862 265.832 106.627 267.028 105.887C268.225 105.148 269.08 103.964 269.405 102.595C269.405 102.595 277.199 69.7209 279.02 58.6193C280.259 51.0703 287.106 47.3333 287.106 47.3333C287.725 47.0091 288.273 46.5662 288.72 46.03C289.167 45.4939 289.504 44.8749 289.711 44.2084C289.919 43.5419 289.993 42.841 289.93 42.1459C289.866 41.4507 289.666 40.7749 289.342 40.157C288.686 38.9118 287.562 37.978 286.218 37.5604C284.874 37.1428 283.419 37.2755 282.173 37.9296Z" fill="#1E91CE"/>
<path d="M308.843 95.681C308.843 95.681 300.018 122.094 301.328 132.463C302.638 142.833 307.266 166.142 307.266 166.142" fill="#1E91CE"/>
<path d="M311.035 89.1128C309.294 88.5328 307.394 88.6681 305.753 89.4887C304.111 90.3094 302.863 91.7483 302.283 93.4891C302.283 93.4891 300.001 100.29 297.89 108.454C295.779 116.617 293.474 125.504 294.463 133.331C295.865 144.433 300.479 167.487 300.479 167.487C300.836 169.288 301.893 170.872 303.418 171.893C304.943 172.914 306.812 173.287 308.612 172.93C310.412 172.573 311.997 171.516 313.017 169.991C314.038 168.466 314.411 166.598 314.055 164.797C314.055 164.797 309.414 141.236 308.196 131.598C307.875 129.056 309.32 119.547 311.294 111.912C313.268 104.277 315.412 97.8734 315.412 97.8734C315.7 97.0108 315.816 96.0998 315.752 95.1926C315.688 94.2854 315.446 93.3996 315.039 92.586C314.633 91.7724 314.07 91.0469 313.383 90.4509C312.696 89.8549 311.898 89.4002 311.035 89.1128Z" fill="#1E91CE"/>
<path d="M309.262 41.4589C308.565 41.4554 307.873 41.5893 307.227 41.853C306.581 42.1168 305.994 42.5052 305.498 42.9962C305.002 43.4868 304.607 44.0704 304.337 44.7136C304.066 45.3567 303.925 46.0469 303.921 46.7446C303.918 47.4423 304.051 48.1339 304.315 48.78C304.579 49.426 304.967 50.0138 305.458 50.5097C305.458 50.5097 310.827 55.9359 316.132 61.6702C318.785 64.5374 321.426 67.4909 323.293 69.772C323.712 70.2844 323.89 70.5663 324.218 70.9955C323.847 71.3746 323.633 71.6308 323.167 72.0779C321.082 74.0799 318.187 76.6342 315.293 79.1052C309.505 84.0471 303.709 88.6814 303.709 88.6814C302.609 89.5624 301.905 90.8439 301.751 92.2441C301.596 93.6443 302.004 95.0485 302.885 96.1479C303.765 97.2483 305.046 97.954 306.446 98.1099C307.846 98.2658 309.251 97.8591 310.352 96.9793C310.352 96.9793 316.239 92.2682 322.195 87.1834C325.172 84.641 328.159 82.0108 330.524 79.7404C331.706 78.6053 332.731 77.5742 333.59 76.5719C334.02 76.0707 334.404 75.5838 334.798 74.9719C335.192 74.36 335.755 73.7949 335.928 71.8896C336.114 69.8276 335.575 69.1199 335.253 68.4309C334.931 67.7418 334.598 67.1992 334.226 66.6348C333.48 65.5061 332.574 64.3401 331.512 63.0428C329.388 60.4482 326.658 57.4132 323.928 54.4626C318.468 48.5612 313.01 43.0354 313.01 43.0354C312.52 42.5392 311.936 42.1447 311.293 41.8742C310.65 41.6037 309.96 41.4626 309.262 41.4589Z" fill="#1E91CE"/>
</g>
<defs>
<clipPath id="clip0_84_94">
<rect width="347.192" height="320.21" fill="white" transform="translate(0.5 0.5)"/>
</clipPath>
</defs>
</svg>
