<svg width="160" height="125" viewBox="0 0 160 125" fill="none" xmlns="http://www.w3.org/2000/svg">
<path d="M114.5 125C105.167 125 97.3333 122 91 116C84.6667 109.667 81.5 102.167 81.5 93.5C81.5 89.5 82 85.8333 83 82.5C84.3333 78.8333 86.3333 74.8334 89 70.5L132.5 0H160L125 61C131.667 63.3333 136.833 67.1667 140.5 72.5C144.167 77.8333 146 84.3333 146 92C146 101.333 142.833 109.167 136.5 115.5C130.167 121.833 122.833 125 114.5 125ZM33 125C23.6667 125 15.8333 122 9.5 116C3.16667 109.667 0 102.167 0 93.5C0 89.5 0.5 85.8333 1.5 82.5C2.83333 78.8333 4.83333 74.8334 7.5 70.5L51 0H78.5L43.5 61C50.1667 63.3333 55.3333 67.1667 59 72.5C62.6667 77.8333 64.5 84.3333 64.5 92C64.5 101.333 61.3333 109.167 55 115.5C48.6667 121.833 41.3333 125 33 125Z" fill="#1E1E1E" fill-opacity="0.25"/>
</svg>
