<svg width="74" height="75" viewBox="0 0 74 75" fill="none" xmlns="http://www.w3.org/2000/svg">
<path d="M55.6429 28.125C55.6869 27.3486 55.7162 26.5723 55.7162 25.7812C55.7162 18.3105 53.3871 11.7188 49.8275 7.08984C46.2679 2.47559 41.683 0 36.9662 0C32.2494 0 27.6644 2.47559 24.1048 7.08984C20.5453 11.7188 18.2162 18.3105 18.2162 25.7812C18.2162 26.5723 18.2455 27.3486 18.2894 28.125H34.6224V46.875H29.9349C28.9095 46.875 27.9281 47.0947 27.0492 47.4902L9.45639 28.125H13.6019C13.558 27.3486 13.5287 26.5723 13.5287 25.7812C13.5287 16.4062 16.7806 8.02734 21.8929 2.44629C8.54819 7.22168 2.19077 17.959 0.0813932 25.4297C-0.314115 26.8213 0.784518 28.125 2.23471 28.125H3.11362L23.6654 50.7275C23.182 51.6797 22.9037 52.7637 22.9037 53.9062V67.9688C22.9037 71.8506 26.0531 75 29.9349 75H43.9974C47.8792 75 51.0287 71.8506 51.0287 67.9688V53.9062C51.0287 52.7637 50.7503 51.6797 50.2669 50.7275L70.8187 28.125H71.6976C73.1478 28.125 74.2464 26.8213 73.8509 25.4297C71.7415 17.959 65.3841 7.22168 52.0394 2.44629C57.1517 8.02734 60.4037 16.4209 60.4037 25.7812C60.4037 26.5723 60.3744 27.3486 60.3304 28.125H64.4759L46.8832 47.4902C46.0042 47.0947 45.0228 46.875 43.9974 46.875H39.3099V28.125H55.6429Z" fill="#43AA8B"/>
</svg>
