<?xml version="1.0" encoding="UTF-8" standalone="no"?>
<!-- Created with Inkscape (http://www.inkscape.org/) -->

<svg
   width="204.8075"
   height="192.81039"
   viewBox="0 0 54.188649 51.014414"
   version="1.1"
   id="svg1"
   inkscape:version="1.3.2 (091e20e, 2023-11-25, custom)"
   sodipodi:docname="linkedin graphic.svg"
   inkscape:export-filename="linkedin graphic.png"
   inkscape:export-xdpi="96"
   inkscape:export-ydpi="96"
   xml:space="preserve"
   xmlns:inkscape="http://www.inkscape.org/namespaces/inkscape"
   xmlns:sodipodi="http://sodipodi.sourceforge.net/DTD/sodipodi-0.dtd"
   xmlns="http://www.w3.org/2000/svg"
   xmlns:svg="http://www.w3.org/2000/svg"><sodipodi:namedview
     id="namedview1"
     pagecolor="#ffffff"
     bordercolor="#000000"
     borderopacity="0.25"
     inkscape:showpageshadow="2"
     inkscape:pageopacity="0.0"
     inkscape:pagecheckerboard="0"
     inkscape:deskcolor="#d1d1d1"
     inkscape:document-units="px"
     showguides="true"
     inkscape:zoom="0.76095324"
     inkscape:cx="2444.9597"
     inkscape:cy="391.61408"
     inkscape:window-width="2880"
     inkscape:window-height="1514"
     inkscape:window-x="-11"
     inkscape:window-y="-11"
     inkscape:window-maximized="1"
     inkscape:current-layer="layer1"
     inkscape:export-bgcolor="#f5f5f5ff"><sodipodi:guide
       position="-294.0488,250.83122"
       orientation="1,0"
       id="guide93"
       inkscape:locked="false" /><sodipodi:guide
       position="-359.93953,258.94463"
       orientation="1,0"
       id="guide94"
       inkscape:locked="false" /><sodipodi:guide
       position="-227.91221,277.13834"
       orientation="1,0"
       id="guide95"
       inkscape:locked="false" /><sodipodi:guide
       position="-475.49417,175.35192"
       orientation="0,-1"
       id="guide96"
       inkscape:locked="false" /><sodipodi:guide
       position="-435.6647,109.21534"
       orientation="0,-1"
       id="guide97"
       inkscape:locked="false" /><sodipodi:guide
       position="-445.99086,43.324616"
       orientation="0,-1"
       id="guide98"
       inkscape:locked="false" /><sodipodi:guide
       position="-338.30377,253.78156"
       orientation="1,0"
       id="guide99"
       inkscape:locked="false" /><sodipodi:guide
       position="-249.54798,85.366833"
       orientation="1,0"
       id="guide100"
       inkscape:locked="false" /><sodipodi:guide
       position="-494.1796,153.71616"
       orientation="0,-1"
       id="guide101"
       inkscape:locked="false" /><sodipodi:guide
       position="-482.87,65.94382"
       orientation="0,-1"
       id="guide102"
       inkscape:locked="false" /></sodipodi:namedview><defs
     id="defs1" /><g
     inkscape:label="Layer 1"
     inkscape:groupmode="layer"
     id="layer1"
     transform="translate(-426.32198,23.094807)"><g
       id="g20477"><g
         id="g20330"
         transform="matrix(0.8900315,0,0,0.8900315,84.078917,-144.67368)"><g
           id="g20329"
           transform="matrix(1.151548,0,0,1.1830487,365.52026,59.381131)"><g
             id="g20324"
             transform="matrix(0.40285415,0,0,0.41645955,-26.452211,50.028645)"><path
               style="fill:#bc1c1a;stroke:none;stroke-width:7.08224;stroke-linecap:round"
               d="m 153.17135,63.746134 c 0.4659,23.28155 -0.48502,36.05154 0,55.967376 0.12992,5.3348 -2.66174,10.95452 -6.14652,14.0683 -8.51358,7.60723 -20.82883,9.9875 -30.97848,6.72832 -3.66827,-1.17794 -8.19935,-4.22675 -8.85099,-8.86915 -2.4806,-17.67228 3.33254,-36.503626 17.09949,-56.968966 4.72267,-7.02052 19.44096,-18.3293 22.48412,-18.5717 2.94998,-0.23498 6.31882,3.9699 6.39238,7.64582 z"
               id="path20314"
               sodipodi:nodetypes="ssssssss" /><g
               id="g20323"><path
                 style="fill:#bc1c1a;stroke:none;stroke-width:7.08224;stroke-linecap:round"
                 d="m 165.50624,63.746135 c -0.4659,23.28155 0.48502,36.05154 0,55.967375 -0.12992,5.3348 2.66174,10.95452 6.14652,14.0683 8.51358,7.60723 20.82883,9.9875 30.97848,6.72832 3.66827,-1.17794 8.19935,-4.22675 8.85099,-8.86915 2.4806,-17.67228 -3.33254,-36.503625 -17.09949,-56.968965 -4.72267,-7.02052 -19.44096,-18.3293 -22.48412,-18.5717 -2.94998,-0.23498 -6.31882,3.9699 -6.39238,7.64582 z"
                 id="path20315"
                 sodipodi:nodetypes="ssssssss" /><path
                 id="path20316"
                 style="fill:none;stroke:#000000;stroke-width:5.75109;stroke-linecap:round"
                 d="m 159.74899,39.476891 c 0,0 -0.12261,12.636229 1.89871,18.224074 3.03693,8.395435 10.65071,13.042645 14.59007,20.839017 4.31331,8.536471 9.59346,27.785348 9.59346,27.785348 M 159.74899,39.476891 c 0,0 0.12261,12.636229 -1.89871,18.224074 -3.03693,8.395435 -10.65071,13.042645 -14.59007,20.839017 -4.31331,8.536471 -9.59346,27.785348 -9.59346,27.785348" /><g
                 id="g20319"><path
                   style="fill:none;stroke:#000000;stroke-width:4;stroke-linecap:round;stroke-dasharray:none"
                   d="m 130.35308,79.154993 c 0,0 4.4255,-0.983443 8.11341,-2.335678 3.68792,-1.352235 9.26041,-4.81502 9.26041,-4.81502"
                   id="path20317" /><path
                   style="fill:none;stroke:#000000;stroke-width:4;stroke-linecap:round;stroke-dasharray:none"
                   d="m 140.88418,83.988787 c 0,0 0.41496,5.057195 3.24236,7.761665 2.8274,2.704471 5.53188,4.06892 5.53188,4.06892"
                   id="path20318"
                   sodipodi:nodetypes="csc" /><path
                   style="fill:none;stroke:#000000;stroke-width:4;stroke-linecap:round;stroke-dasharray:none"
                   d="m 122.00977,105.36318 c 1.00235,-2.69107 2.71,-4.8976 6.63825,-6.615402 4.9199,-2.151449 7.94864,-1.877123 7.7914,-1.818157"
                   id="path20319"
                   sodipodi:nodetypes="csc" /></g><g
                 id="g20322"
                 transform="translate(0.81006605,0.53521422)"><path
                   style="fill:none;stroke:#000000;stroke-width:4;stroke-linecap:round;stroke-dasharray:none"
                   d="m 188.77614,79.154993 c 0,0 -4.4255,-0.983443 -8.11341,-2.335678 -3.68792,-1.352235 -9.26041,-4.81502 -9.26041,-4.81502"
                   id="path20320" /><path
                   style="fill:none;stroke:#000000;stroke-width:4;stroke-linecap:round;stroke-dasharray:none"
                   d="m 178.24504,83.988787 c 0,0 -0.41496,5.057195 -3.24236,7.761665 -2.8274,2.704471 -5.53188,4.06892 -5.53188,4.06892"
                   id="path20321"
                   sodipodi:nodetypes="csc" /><path
                   style="fill:none;stroke:#000000;stroke-width:4;stroke-linecap:round;stroke-dasharray:none"
                   d="m 197.11945,105.36318 c -1.00235,-2.69107 -2.71,-4.8976 -6.63825,-6.615402 -4.9199,-2.151449 -7.94864,-1.877123 -7.7914,-1.818157"
                   id="path20322"
                   sodipodi:nodetypes="csc" /></g></g></g><circle
             style="fill:#1e91ce;stroke:none;stroke-width:20.2615;stroke-linecap:round;stroke-dasharray:none"
             id="circle20324"
             cx="60.435478"
             cy="104.77744"
             r="8.9431915" /><g
             id="g20328"
             transform="matrix(0.79764205,0,0,0.79764205,-47.164417,7.324391)"
             style="stroke:#f5f5f5"><path
               style="fill:none;stroke:#f5f5f5;stroke-width:1.66515;stroke-linecap:round;stroke-dasharray:none"
               d="m 127.67381,119.11469 c 0,0 1.27857,0.95586 2.31589,1.09412 1.13379,0.15113 3.00884,-0.33445 3.00884,-0.33445"
               id="path20324"
               sodipodi:nodetypes="csc" /><path
               style="fill:none;stroke:#f5f5f5;stroke-width:1.66515;stroke-linecap:round;stroke-dasharray:none"
               d="m 136.2978,116.5718 c 0,0 0.70539,1.43208 1.56693,2.02613 0.94166,0.6493 2.83282,1.06774 2.83282,1.06774"
               id="path20325"
               sodipodi:nodetypes="csc" /><path
               style="fill:none;stroke:#f5f5f5;stroke-width:1.66515;stroke-linecap:round;stroke-dasharray:none"
               d="m 133.56588,124.69716 c 0,0 0.94162,-1.28909 1.89264,-1.72579 1.03947,-0.47732 2.97445,-0.5636 2.97445,-0.5636"
               id="path20326"
               sodipodi:nodetypes="csc" /><path
               style="fill:none;stroke:#f5f5f5;stroke-width:1.66515;stroke-linecap:round;stroke-dasharray:none"
               d="m 130.99939,127.78105 c 0,0 -1.53306,-0.44513 -2.26812,-1.19001 -0.80341,-0.81415 -1.54489,-2.6035 -1.54489,-2.6035"
               id="path20327"
               sodipodi:nodetypes="csc" /><path
               style="fill:none;stroke:#f5f5f5;stroke-width:1.66515;stroke-linecap:round;stroke-dasharray:none"
               d="m 142.60858,126.36231 c 0,0 -1.27857,0.95586 -2.31589,1.09413 -1.13379,0.15112 -3.00884,-0.33446 -3.00884,-0.33446"
               id="path20328"
               sodipodi:nodetypes="csc" /></g></g><path
           style="fill:#1e91ce;stroke:none;stroke-width:8.89868;stroke-linecap:round;stroke-dasharray:none"
           d="m 426.43193,181.33693 -4.81664,-4.43905 8.42053,-0.69554 z"
           id="path20329" /></g></g></g></svg>
