<svg width="32" height="28" viewBox="0 0 32 28" fill="none" xmlns="http://www.w3.org/2000/svg">
<path d="M7.2002 2.22983C10.7502 4.89983 14.5702 10.2999 15.9702 13.1999C17.3702 10.2999 21.1902 4.88983 24.7402 2.22983C27.3002 0.309834 31.4502 -1.18016 31.4502 3.54984C31.4502 4.49984 30.9098 11.4999 30.5898 12.6299C29.4798 16.5799 25.4601 17.5898 21.8701 16.9798C28.1301 18.0498 29.73 21.5798 26.29 25.1098C19.75 31.8198 16.9002 23.4299 16.1602 21.2799C16.0302 20.8899 15.96 20.6998 15.96 20.8598C15.96 20.6998 15.8998 20.8899 15.7598 21.2799C15.0298 23.4299 12.1699 31.8198 5.62988 25.1098C2.18988 21.5798 3.7798 18.0498 10.0498 16.9798C6.4698 17.5898 2.44008 16.5799 1.33008 12.6299C1.01008 11.4899 0.470215 4.48984 0.470215 3.54984C0.470215 -1.19016 4.62018 0.299834 7.18018 2.22983H7.2002Z" fill="#fdbf4a"/>
</svg>
