<svg width="28" height="28" viewBox="0 0 28 28" fill="none" xmlns="http://www.w3.org/2000/svg">
<path d="M7.95039 0.46974C11.8904 0.23974 16.0102 0.609782 19.9802 0.449782C23.9002 0.549782 27.0803 3.0998 27.6403 7.0298C27.7403 11.2698 27.95 15.6098 27.78 19.8598C27.61 24.1098 25.0604 27.5397 20.4704 27.8297C16.2904 28.0897 11.8403 27.6297 7.64034 27.8297C3.67034 27.5397 0.640336 24.5997 0.390336 20.5897C0.140336 16.5797 0.590336 11.9198 0.390336 7.68977C0.750336 3.36977 3.68016 0.71974 7.96016 0.46974H7.95039ZM4.38008 4.44978C3.41008 5.41978 3.00034 6.78977 2.89034 8.12977C3.05034 12.0498 2.67034 16.1498 2.89034 20.0498C3.07034 23.3198 4.91038 25.1497 8.18038 25.3297C12.0004 25.5397 16.0101 25.1697 19.8601 25.3297C22.9801 25.1697 25.0803 23.4097 25.3303 20.2197C25.1503 16.2697 25.5703 12.1098 25.3303 8.17976C25.1603 5.29976 23.3404 3.22979 20.4104 3.01979C16.3104 3.19979 12.0101 2.77979 7.94014 3.01979C6.70014 3.08979 5.28034 3.55978 4.39034 4.44978H4.38008Z" fill="#FCF3E3"/>
<path d="M21.1099 14.1098C21.1099 18.0098 17.9498 21.1699 14.0498 21.1699C10.1498 21.1699 6.99023 18.0098 6.99023 14.1098C6.99023 10.2098 10.1498 7.0498 14.0498 7.0498C17.9498 7.0498 21.1099 10.2098 21.1099 14.1098ZM18.5801 14.0998C18.5801 11.5998 16.5601 9.57983 14.0601 9.57983C11.5601 9.57983 9.54004 11.5998 9.54004 14.0998C9.54004 16.5998 11.5601 18.6198 14.0601 18.6198C16.5601 18.6198 18.5801 16.5998 18.5801 14.0998Z" fill="#FCF3E3"/>
<path d="M21.3901 8.46973C22.2738 8.46973 22.9902 7.75341 22.9902 6.86975C22.9902 5.9861 22.2738 5.26978 21.3901 5.26978C20.5065 5.26978 19.79 5.9861 19.79 6.86975C19.79 7.75341 20.5065 8.46973 21.3901 8.46973Z" fill="#FCF3E3"/>
</svg>
