<svg width="40" height="29" viewBox="0 0 40 29" fill="none" xmlns="http://www.w3.org/2000/svg">
<path d="M15.9399 20.3798V8.63983L26.2598 14.5098L15.9399 20.3798ZM38.8901 4.93982C38.4201 3.22982 37.1102 1.89981 35.4302 1.42981H35.3901C31.1901 0.88981 26.3201 0.579834 21.3901 0.579834C20.8901 0.579834 20.3901 0.579834 19.8901 0.579834H19.9702C19.5502 0.579834 19.0498 0.569824 18.5498 0.569824C13.6098 0.569824 8.75022 0.879788 3.97021 1.46979L4.54004 1.40979C2.83004 1.88979 1.52006 3.20983 1.06006 4.88983V4.9198C0.530059 7.6998 0.22998 10.8898 0.22998 14.1598C0.22998 14.2798 0.22998 14.3898 0.22998 14.5098V14.4898C0.22998 14.5898 0.22998 14.6998 0.22998 14.8198C0.22998 18.0898 0.529863 21.2798 1.10986 24.3798L1.06006 24.0599C1.53006 25.7699 2.84002 27.0998 4.52002 27.5698H4.56006C8.76006 28.1098 13.6301 28.4199 18.5601 28.4199C19.0601 28.4199 19.5601 28.4199 20.0601 28.4199H19.98C20.4 28.4199 20.8999 28.4299 21.3999 28.4299C26.3399 28.4299 31.2 28.1198 35.98 27.5298L35.4102 27.5898C37.1202 27.1098 38.4401 25.7898 38.8901 24.1098V24.0798C39.4201 21.2998 39.7202 18.1098 39.7202 14.8398C39.7202 14.7198 39.7202 14.6098 39.7202 14.4898V14.5098C39.7202 14.4098 39.7202 14.2998 39.7202 14.1798C39.7202 10.9098 39.4198 7.71981 38.8398 4.61981L38.8901 4.93982Z" fill="#FCF3E3"/>
</svg>
