<?xml version="1.0" encoding="UTF-8" standalone="no"?>
<!-- Created with Inkscape (http://www.inkscape.org/) -->

<svg
   width="50.656921mm"
   height="49.510189mm"
   viewBox="0 0 50.656921 49.510189"
   version="1.1"
   id="svg1"
   xml:space="preserve"
   xmlns="http://www.w3.org/2000/svg"
   xmlns:svg="http://www.w3.org/2000/svg"><defs
     id="defs1"><linearGradient
       id="swatch19"
       gradientTransform="scale(0.26458333)"><stop
         style="stop-color:#2d2d2d;stop-opacity:1;"
         offset="0"
         id="stop19" /></linearGradient><linearGradient
       id="swatch17"
       gradientTransform="scale(0.26458333)"><stop
         style="stop-color:#003049;stop-opacity:1;"
         offset="0"
         id="stop17" /></linearGradient><linearGradient
       id="swatch16"><stop
         style="stop-color:#43aa8b;stop-opacity:1;"
         offset="0"
         id="stop16" /></linearGradient><linearGradient
       id="swatch15"><stop
         style="stop-color:#bc1c1a;stop-opacity:1;"
         offset="0"
         id="stop15" /></linearGradient><linearGradient
       id="swatch14"><stop
         style="stop-color:#1e91ce;stop-opacity:1;"
         offset="0"
         id="stop14" /></linearGradient><linearGradient
       id="swatch13"><stop
         style="stop-color:#fdbf4a;stop-opacity:1;"
         offset="0"
         id="stop13" /></linearGradient></defs><g
     id="layer1"
     transform="translate(-753.95662,-408.87459)"><path
       id="rect1-6-2-9-1-5-0-7-7"
       style="fill:#004062;fill-opacity:1;stroke:none;stroke-width:0.551641;stroke-opacity:1"
       d="m 763.79662,411.33937 -5.52792,5.52791 v 33.10573 a 2.4017194,2.4017194 45 0 0 2.40172,2.40172 h 29.14908 a 2.4017194,2.4017194 135 0 0 2.40172,-2.40172 l 0,-36.23192 a 2.4017194,2.4017194 45 0 0 -2.40172,-2.40172 z"
       transform="rotate(5.8585647,760.69061,461.04243)" /><path
       id="path66"
       style="fill:#bc1d1a;fill-opacity:1;stroke:none;stroke-width:0.551641;stroke-opacity:1"
       d="m 763.79662,411.33937 -5.52792,5.52791 v 33.10573 a 2.4017194,2.4017194 45 0 0 2.40172,2.40172 h 29.14908 a 2.4017194,2.4017194 135 0 0 2.40172,-2.40172 l 0,-36.23192 a 2.4017194,2.4017194 45 0 0 -2.40172,-2.40172 z"
       transform="rotate(-7.7278447,769.06338,449.66412)" /><path
       id="rect1-6-2-9-1-5-0-7"
       style="fill:#fcf3e3;fill-opacity:1;stroke:none;stroke-width:0.551641;stroke-opacity:1"
       d="m 763.79662,411.33937 -5.52792,5.52791 v 33.10573 a 2.4017194,2.4017194 45 0 0 2.40172,2.40172 h 29.14908 a 2.4017194,2.4017194 135 0 0 2.40172,-2.40172 l 0,-36.23192 a 2.4017194,2.4017194 45 0 0 -2.40172,-2.40172 z" /><path
       style="fill:none;fill-opacity:1;stroke:none;stroke-width:0.552;stroke-dasharray:none;stroke-opacity:1"
       d="m 758.38116,416.93261 5.53694,-0.0562 -0.0843,-5.53695"
       id="path2-0-4-8-32-3-1-0" /><g
       id="g68"
       transform="matrix(1.1712024,0,0,1.1712024,-130.31224,-77.081908)"><path
         style="fill:#ffffff;fill-opacity:1;stroke:none;stroke-width:0.261735;stroke-dasharray:none"
         d="m 770.99518,447.25373 c 0,0 0.52481,-1.68595 1.24642,-5.49766 0.72162,-3.81169 0.13121,-6.30397 0.13121,-6.30397 h -10.48014 c 0,0 -0.5904,2.49228 0.13122,6.30397 0.72161,3.81171 1.24641,5.49766 1.24641,5.49766 z"
         id="path5-2-9-9-8-7-8-8" /><rect
         style="fill:#1e91ce;fill-opacity:1;stroke:none;stroke-width:0.665615"
         id="rect2-32-2-8-1-5-6-0"
         width="11.598383"
         height="1.8991505"
         x="761.15918"
         y="433.82449" /><g
         id="g5-4-0-9-1-0-0-5"
         style="fill:#1e91ce;fill-opacity:1"
         transform="matrix(0.51201242,0,0,0.51201242,685.82051,369.2534)"><g
           id="g4-2-8-6-9-67-3-94"
           style="fill:#1e91ce;fill-opacity:1"><rect
             style="fill:#1e91ce;fill-opacity:1;stroke:none;stroke-width:1.45388"
             id="rect3-8-1-6-8-6-7-9"
             width="17.751846"
             height="5.0149741"
             x="149.5927"
             y="151.14943" /><rect
             style="fill:#1e91ce;fill-opacity:1;stroke:none;stroke-width:1.17216"
             id="rect4-88-6-4-9-6-0-64"
             width="8.7621298"
             height="2.7582357"
             x="147.57271"
             y="155.41216" /><rect
             style="fill:#1e91ce;fill-opacity:1;stroke:none;stroke-width:1.17216"
             id="rect4-8-3-1-3-7-2-9-08"
             width="8.7621298"
             height="2.7582357"
             x="160.6024"
             y="155.41216" /></g></g></g><path
       style="fill:#ffffff;fill-opacity:1;stroke:#004062;stroke-width:1.48518;stroke-dasharray:none;stroke-opacity:1"
       d="m 786.20641,439.89546 2.97927,3.0917"
       id="path7-9-2-4-9-1-2-0" /><rect
       style="fill:#004062;fill-opacity:1;stroke:none;stroke-width:1.7912;stroke-dasharray:none;stroke-opacity:1"
       id="rect8-0-4-8-9-0-1-7"
       width="23.609304"
       height="0.44970104"
       x="766.29602"
       y="414.59976"
       ry="0.30000001" /><rect
       style="fill:#004062;fill-opacity:1;stroke:none;stroke-width:1.7912;stroke-dasharray:none;stroke-opacity:1"
       id="rect8-2-7-9-5-2-7-4-6"
       width="23.609304"
       height="0.44970104"
       x="766.29602"
       y="416.54672"
       ry="0.30000001" /><rect
       style="fill:#004062;fill-opacity:1;stroke:none;stroke-width:1.34817;stroke-dasharray:none;stroke-opacity:1"
       id="rect8-9-0-1-4-4-6-9-1"
       width="13.374796"
       height="0.44970104"
       x="776.17023"
       y="447.483"
       ry="0.30000001" /><rect
       style="fill:#004062;fill-opacity:1;stroke:none;stroke-width:1.34817;stroke-dasharray:none;stroke-opacity:1"
       id="rect8-2-9-3-9-1-0-7-2-2"
       width="13.374796"
       height="0.44970104"
       x="776.17023"
       y="449.42993"
       ry="0.30000001" /><rect
       style="fill:#004062;fill-opacity:1;stroke:none;stroke-width:1.34226;stroke-dasharray:none;stroke-opacity:1"
       id="rect8-2-9-6-0-4-5-0-9-9-0"
       width="13.257707"
       height="0.44970104"
       x="776.17023"
       y="445.5097"
       ry="0.30000001" /><rect
       style="fill:#004062;fill-opacity:1;stroke:none;stroke-width:2.00834;stroke-dasharray:none;stroke-opacity:1"
       id="rect8-2-3-2-7-3-8-3-9-1"
       width="29.680269"
       height="0.44970104"
       x="760.22504"
       y="418.49365"
       ry="0.30000001" /><rect
       style="fill:#004062;fill-opacity:1;stroke:none;stroke-width:2.00834;stroke-dasharray:none;stroke-opacity:1"
       id="rect8-2-3-6-1-6-7-7-7-0-6"
       width="29.680269"
       height="0.44970104"
       x="760.22504"
       y="420.44058"
       ry="0.30000001" /><rect
       style="fill:#004062;fill-opacity:1;stroke:none;stroke-width:2.00834;stroke-dasharray:none;stroke-opacity:1"
       id="rect8-2-3-8-3-0-7-9-6-4-3"
       width="29.680269"
       height="0.44970104"
       x="760.22504"
       y="422.38751"
       ry="0.30000001" /><rect
       style="fill:#004062;fill-opacity:1;stroke:none;stroke-width:2.00834;stroke-dasharray:none;stroke-opacity:1"
       id="rect8-2-3-6-5-5-3-9-8-7-7-9"
       width="29.680269"
       height="0.44970104"
       x="760.22504"
       y="424.33444"
       ry="0.30000001" /><rect
       style="fill:#004062;fill-opacity:1;stroke:none;stroke-width:2.00834;stroke-dasharray:none;stroke-opacity:1"
       id="rect8-2-3-1-8-6-9-6-3-0-8"
       width="29.680269"
       height="0.44970104"
       x="760.22504"
       y="426.2814"
       ry="0.30000001" /><rect
       style="fill:#004062;fill-opacity:1;stroke:none;stroke-width:2.00834;stroke-dasharray:none;stroke-opacity:1"
       id="rect8-2-3-6-8-86-3-3-8-7-6-0"
       width="29.680269"
       height="0.44970104"
       x="760.22504"
       y="428.22833"
       ry="0.30000001" /><circle
       style="fill:#fcf3e3;fill-opacity:1;stroke:#003049;stroke-width:1.48518;stroke-dasharray:none;stroke-opacity:1"
       id="path6-51-5-9-7-3-9-3"
       cx="778.58954"
       cy="431.66031"
       r="11.270631" /><path
       style="fill:#ffffff;fill-opacity:1;stroke:none;stroke-width:1.7864;stroke-dasharray:none;stroke-opacity:1"
       d="m 768.41184,428.71002 11.49435,0.13521 c 0,0 -0.20285,9.33071 -0.81139,11.62956 -0.60851,2.29887 -1.68481,2.76113 -1.68481,2.76113 l -3.90848,-1.76689 -3.90849,-2.3299 -1.72348,-4.71575 -0.66371,-3.72222 z"
       id="path9-6-1-3-6-6-8-9" /><rect
       style="fill:#1e91ce;fill-opacity:1;stroke:none;stroke-width:1.7864;stroke-dasharray:none;stroke-opacity:1"
       id="rect9-2-7-0-8-0-1-3"
       width="12.440921"
       height="4.7329597"
       x="767.93854"
       y="426.20834" /><circle
       style="fill:none;fill-opacity:1;stroke:#004062;stroke-width:1.48518;stroke-dasharray:none;stroke-opacity:1"
       id="path6-5-77-2-4-4-8-8-6"
       cx="778.50775"
       cy="431.67584"
       r="11.270631" /><text
       xml:space="preserve"
       style="font-style:normal;font-variant:normal;font-weight:normal;font-stretch:normal;font-size:16.0227px;font-family:'Atkinson Hyperlegible';-inkscape-font-specification:'Atkinson Hyperlegible';letter-spacing:-1.20171px;word-spacing:12.0171px;fill:#43aa8b;fill-opacity:1;stroke:none;stroke-width:5.29885;stroke-dasharray:none;stroke-opacity:1"
       x="777.6167"
       y="437.17737"
       id="text9-1-6-1-2-7-6-6"><tspan
         id="tspan9-52-0-7-8-65-5-9"
         style="font-style:normal;font-variant:normal;font-weight:bold;font-stretch:normal;font-family:'Atkinson Hyperlegible';-inkscape-font-specification:'Atkinson Hyperlegible Bold';fill:#43aa8b;fill-opacity:1;stroke-width:5.29887"
         x="777.6167"
         y="437.17737">$</tspan></text><path
       id="rect7-9-6-0-5-0-0-8"
       style="fill:#fdbf4a;stroke-width:1.48518"
       transform="rotate(-45.095872,0.14842907,0.35918915)"
       d="m 242.2831,871.23132 h 2.696 a 1.06914,1.06914 45 0 1 1.06914,1.06914 v 18.32312 a 1.06914,1.06914 135 0 1 -1.06914,1.06914 h -2.696 a 1.06914,1.06914 45 0 1 -1.06914,-1.06914 v -18.32312 a 1.06914,1.06914 135 0 1 1.06914,-1.06914 z" /></g></svg>
