<svg width="195" height="189" viewBox="0 0 195 189" fill="none" xmlns="http://www.w3.org/2000/svg">
<g clip-path="url(#clip0_70_2)">
<path d="M56.6028 12.5112L33.6569 31.1262L19.748 164.605L147.382 177.905L163.456 23.6455L56.6028 12.5112Z" fill="#004062"/>
<path d="M17.8088 14.8293L-0.000244141 38.4062L18.5244 171.323L145.62 153.61L124.212 0L17.8088 14.8293Z" fill="#BC1D1A"/>
<path d="M37.561 10.2896L16.6682 31.1825V165.384H144.993V10.2896H37.561Z" fill="#FCF3E3"/>
<path d="M64.7686 146.029C64.7686 146.029 66.752 139.657 69.4794 125.25C72.2067 110.844 69.9753 101.424 69.9753 101.424H30.3653C30.3653 101.424 28.1338 110.844 30.8612 125.25C33.5886 139.657 35.572 146.029 35.572 146.029H64.7686Z" fill="white"/>
<path d="M71.4294 95.2725H27.593V102.45H71.4294V95.2725Z" fill="#1E91CE"/>
<path d="M66.6875 143.723H32.3347V153.428H66.6875V143.723Z" fill="#1E91CE"/>
<path d="M45.382 151.972H28.4258V157.31H45.382V151.972Z" fill="#1E91CE"/>
<path d="M70.5965 151.972H53.6404V157.31H70.5965V151.972Z" fill="#1E91CE"/>
<path d="M122.26 118.218L133.52 129.903Z" fill="white"/>
<path d="M122.26 118.218L133.52 129.903" stroke="#004062" stroke-width="5.61328"/>
<path d="M136.24 22.6123H47.0078V24.312H136.24V22.6123Z" fill="#004062"/>
<path d="M136.24 29.9709H47.0078V31.6706H136.24V29.9709Z" fill="#004062"/>
<path d="M134.878 146.896H76.4524V148.595H134.878V146.896Z" fill="#004062"/>
<path d="M134.878 154.254H76.4524V155.954H134.878V154.254Z" fill="#004062"/>
<path d="M134.207 132.079H75.7815V133.779H134.207V132.079Z" fill="#004062"/>
<path d="M134.207 139.437H75.7815V141.137H134.207V139.437Z" fill="#004062"/>
<path d="M136.24 37.3293H24.0625V39.029H136.24V37.3293Z" fill="#004062"/>
<path d="M136.24 44.6877H24.0625V46.3874H136.24V44.6877Z" fill="#004062"/>
<path d="M136.24 52.0464H24.0625V53.746H136.24V52.0464Z" fill="#004062"/>
<path d="M136.24 59.4048H24.0625V61.1044H136.24V59.4048Z" fill="#004062"/>
<path d="M136.24 66.7634H24.0625V68.4631H136.24V66.7634Z" fill="#004062"/>
<path d="M136.24 74.1218H24.0625V75.8214H136.24V74.1218Z" fill="#004062"/>
<path d="M136.24 81.4805H24.0625V83.1801H136.24V81.4805Z" fill="#004062"/>
<path d="M136.24 88.8389H24.0625V90.5385H136.24V88.8389Z" fill="#004062"/>
<path d="M93.4717 129.691C116.998 129.691 136.069 110.619 136.069 87.093C136.069 63.567 116.998 44.4954 93.4717 44.4954C69.9456 44.4954 50.874 63.567 50.874 87.093C50.874 110.619 69.9456 129.691 93.4717 129.691Z" fill="#FCF3E3" stroke="#003049" stroke-width="5.61328"/>
<path d="M52.5736 84.8623L88.6913 85.2871C88.6913 85.2871 88.054 114.606 86.1418 121.83C84.2297 129.053 81.6804 128.841 81.6804 128.841L55.9729 109.932L50.449 90.5986L52.5736 84.8623Z" fill="white"/>
<path d="M90.1789 77.0015H51.0867V91.8734H90.1789V77.0015Z" fill="#1E91CE"/>
<path d="M93.1624 129.75C116.688 129.75 135.76 110.678 135.76 87.1519C135.76 63.6258 116.688 44.5542 93.1624 44.5542C69.6363 44.5542 50.5647 63.6258 50.5647 87.1519C50.5647 110.678 69.6363 129.75 93.1624 129.75Z" stroke="#004062" stroke-width="5.61328"/>
<path d="M106.415 111.515V108.109C103.672 107.873 101.372 107.121 99.5146 105.854C97.6569 104.556 96.3152 102.846 95.4896 100.723L101.859 98.4227C102.183 99.5137 102.729 100.384 103.495 101.032C104.262 101.681 105.235 102.123 106.415 102.359V95.415L104.601 95.0169C103.009 94.6631 101.52 94.1618 100.134 93.5131C98.7774 92.8643 97.6864 91.9945 96.8607 90.9034C96.0351 89.7829 95.6223 88.3823 95.6223 86.7015C95.6223 84.7848 96.153 83.1925 97.2146 81.9245C98.2761 80.6566 99.6325 79.6687 101.284 78.961C102.935 78.2533 104.645 77.8258 106.415 77.6783V74.6264H109.644V77.6783C111.796 77.8553 113.757 78.445 115.526 79.4476C117.325 80.4501 118.637 81.9687 119.463 84.0034L113.138 86.3034C112.577 84.8585 111.413 83.9002 109.644 83.4284V89.7534L110.13 89.8419C111.339 90.0483 112.563 90.3432 113.801 90.7265C115.04 91.0803 116.175 91.5669 117.207 92.1861C118.269 92.8054 119.124 93.6163 119.772 94.6188C120.421 95.6214 120.745 96.8894 120.745 98.4227C120.745 100.339 120.215 102.005 119.153 103.421C118.092 104.807 116.706 105.898 114.995 106.694C113.315 107.49 111.531 107.977 109.644 108.154V111.515H106.415ZM106.415 89.0899V83.2514C105.353 83.3694 104.483 83.679 103.805 84.1803C103.127 84.6521 102.788 85.2713 102.788 86.038C102.788 86.7752 103.097 87.4239 103.717 87.9842C104.336 88.5149 105.147 88.8688 106.149 89.0457L106.415 89.0899ZM109.644 102.492C110.646 102.374 111.545 102.079 112.342 101.607C113.167 101.106 113.58 100.339 113.58 99.3073C113.58 98.5112 113.226 97.8624 112.519 97.3612C111.811 96.8599 110.852 96.447 109.644 96.1227V102.492Z" fill="#43AA8B"/>
<path d="M129.271 60.6421H57.2478V67.8656H129.271V60.6421Z" fill="#004062"/>
<path d="M139.525 121.442L126.627 134.384L181.402 188.976L194.3 176.035L139.525 121.442Z" fill="#FDBF4A"/>
</g>
<defs>
<clipPath id="clip0_70_2">
<rect width="194.3" height="188.976" fill="white"/>
</clipPath>
</defs>
</svg>
