<?xml version="1.0" encoding="UTF-8" standalone="no"?>
<!DOCTYPE svg PUBLIC "-//W3C//DTD SVG 1.1//EN" "http://www.w3.org/Graphics/SVG/1.1/DTD/svg11.dtd">
<svg width="100%" height="100%" viewBox="0 0 4500 4500" version="1.1" xmlns="http://www.w3.org/2000/svg" xmlns:xlink="http://www.w3.org/1999/xlink" xml:space="preserve" xmlns:serif="http://www.serif.com/" style="fill-rule:evenodd;clip-rule:evenodd;stroke-linecap:round;stroke-linejoin:round;stroke-miterlimit:1.5;">
    <g transform="matrix(1,0,0,1,-33969.4,-2334.93)">
        <g id="Frozen-Medication-Bottle" serif:id="Frozen Medication Bottle" transform="matrix(1.47408,0,0,1.18094,-22807.2,-1967.59)">
            <rect x="38516.6" y="3643.3" width="3052.74" height="3810.52" style="fill:none;"/>
            <g id="Bottle">
                <g transform="matrix(16.3452,0,0,20.4025,35228.9,746.364)">
                    <path d="M294.523,320.71C319.793,320.71 340.278,314.062 340.278,305.861C340.278,297.66 319.793,291.012 294.523,291.012C269.253,291.012 248.768,297.66 248.768,305.861C248.768,314.062 269.253,320.71 294.523,320.71Z" style="fill:rgb(253,191,74);fill-rule:nonzero;"/>
                </g>
                <g transform="matrix(16.3452,0,0,20.4025,35228.9,746.364)">
                    <rect x="248.768" y="182.14" width="91.51" height="123.721" style="fill:rgb(253,191,74);fill-rule:nonzero;"/>
                </g>
                <g transform="matrix(16.3452,0,0,20.4025,35228.9,746.364)">
                    <path d="M294.523,201.801C323.887,201.801 347.691,194.075 347.691,184.546C347.691,175.016 323.887,167.291 294.523,167.291C265.159,167.291 241.354,175.016 241.354,184.546C241.354,194.075 265.159,201.801 294.523,201.801Z" style="fill:rgb(30,145,206);fill-rule:nonzero;"/>
                </g>
                <g transform="matrix(16.3452,0,0,20.4025,35228.9,746.364)">
                    <rect x="241.354" y="167.291" width="106.337" height="17.255" style="fill:rgb(30,145,206);fill-rule:nonzero;"/>
                </g>
                <g transform="matrix(16.3452,0,0,20.4025,35228.9,746.364)">
                    <path d="M294.523,184.546C303.134,184.546 311.266,183.882 318.46,182.702C335.8,179.86 347.691,174.026 347.691,167.291C347.691,157.761 323.887,150.035 294.523,150.035C265.159,150.035 241.354,157.761 241.354,167.291C241.354,176.82 265.159,184.546 294.523,184.546Z" style="fill:rgb(0,64,98);fill-rule:nonzero;"/>
                </g>
                <g transform="matrix(16.3452,0,0,20.4025,35228.9,746.364)">
                    <path d="M258.691,254.064C256.206,257.011 254.994,260.823 255.32,264.664C255.647,268.504 257.486,272.057 260.432,274.541L291.928,301.101C293.387,302.331 295.074,303.262 296.893,303.84C298.711,304.419 300.626,304.633 302.528,304.471C304.429,304.31 306.28,303.775 307.975,302.898C309.67,302.021 311.176,300.819 312.406,299.36C313.636,297.901 314.567,296.214 315.145,294.395C315.723,292.577 315.938,290.662 315.776,288.76C315.614,286.859 315.08,285.008 314.202,283.313C313.325,281.618 312.123,280.112 310.664,278.882L279.167,252.323C276.221,249.839 272.408,248.626 268.568,248.953C264.728,249.28 261.175,251.118 258.691,254.064Z" style="fill:rgb(0,64,98);fill-rule:nonzero;"/>
                </g>
                <g transform="matrix(16.3452,0,0,20.4025,35228.9,746.364)">
                    <path d="M294.709,265.429C290.609,267.988 286.789,271.188 283.636,275.212C280.219,279.572 277.888,283.875 276.327,287.945L280.196,291.208C281.609,287.168 283.888,282.77 287.461,278.212C290.538,274.285 294.467,271.216 298.727,268.817L294.709,265.429Z" style="fill:rgb(245,245,245);fill-rule:nonzero;"/>
                </g>
                <g transform="matrix(16.3452,0,0,20.4025,35228.9,746.364)">
                    <path d="M300.344,242.216C297.743,243.636 295.812,246.031 294.976,248.875C294.141,251.718 294.469,254.777 295.889,257.379L311.069,285.19C311.772,286.478 312.722,287.615 313.864,288.536C315.007,289.458 316.32,290.145 317.728,290.558C319.136,290.972 320.612,291.104 322.071,290.948C323.53,290.791 324.944,290.349 326.233,289.646C327.521,288.942 328.658,287.992 329.579,286.85C330.5,285.707 331.187,284.394 331.601,282.986C332.014,281.578 332.147,280.102 331.99,278.643C331.833,277.184 331.391,275.77 330.687,274.482L315.507,246.671C314.087,244.069 311.692,242.138 308.848,241.303C306.005,240.467 302.946,240.796 300.344,242.216Z" style="fill:rgb(0,64,98);fill-rule:nonzero;"/>
                </g>
                <g transform="matrix(16.3452,0,0,20.4025,35228.9,746.364)">
                    <path d="M322.998,260.394C319.346,261.087 315.717,262.316 312.335,264.323C308.672,266.496 305.802,268.932 303.55,271.414L305.414,274.831C307.552,272.328 310.411,269.811 314.241,267.538C317.541,265.581 321.213,264.475 324.934,263.942L322.998,260.394Z" style="fill:rgb(245,245,245);fill-rule:nonzero;"/>
                </g>
            </g>
            <g transform="matrix(1,0,0,1,1518.45,-564.977)">
                <g transform="matrix(-0.225799,3.69534e-17,-1.84767e-17,0.281848,47020.4,3881.52)">
                    <path d="M34585.5,2637.55L34825.9,2397.18L34825.6,2396.91C34831,2388.97 34830.2,2378.08 34823.1,2371.05L34794.3,2342.18C34787.2,2335.15 34776.4,2334.33 34768.4,2339.69L34768.2,2339.43L34585.5,2522.07L34585.5,2277.62C34585.5,2250.17 34574.4,2227.88 34560.7,2227.88L34510.9,2227.88C34497.2,2227.88 34486,2250.17 34486,2277.62L34486,2522.07L34303.4,2339.43L34303.1,2339.69C34295.2,2334.33 34284.3,2335.15 34277.3,2342.18L34248.4,2371.05C34241.4,2378.08 34240.6,2388.97 34245.9,2396.91L34245.7,2397.18L34486,2637.55L34486,2889.45L34303.4,2706.82L34303.1,2707.08C34295.2,2701.71 34284.3,2702.54 34277.3,2709.57L34248.4,2738.44C34241.4,2745.47 34240.6,2756.36 34245.9,2764.3L34245.7,2764.56L34486,3004.93L34486,3560.15L34585.5,3560.15L34585.5,3004.93L34825.9,2764.56L34825.6,2764.3C34831,2756.36 34830.2,2745.47 34823.1,2738.44L34794.3,2709.57C34787.2,2702.54 34776.4,2701.71 34768.4,2707.08L34768.2,2706.82L34585.5,2889.45L34585.5,2637.55Z" style="fill:rgb(67,170,139);stroke:rgb(67,170,139);stroke-width:37.55px;"/>
                </g>
                <g transform="matrix(-0.112899,0.244088,0.195548,0.140924,42425.2,-4046.53)">
                    <path d="M34585.5,2637.55L34825.9,2397.18L34825.6,2396.91C34831,2388.97 34830.2,2378.08 34823.1,2371.05L34794.3,2342.18C34787.2,2335.15 34776.4,2334.33 34768.4,2339.69L34768.2,2339.43L34585.5,2522.07L34585.5,2277.62C34585.5,2250.17 34574.4,2227.88 34560.7,2227.88L34510.9,2227.88C34497.2,2227.88 34486,2250.17 34486,2277.62L34486,2522.07L34303.4,2339.43L34303.1,2339.69C34295.2,2334.33 34284.3,2335.15 34277.3,2342.18L34248.4,2371.05C34241.4,2378.08 34240.6,2388.97 34245.9,2396.91L34245.7,2397.18L34486,2637.55L34486,2889.45L34303.4,2706.82L34303.1,2707.08C34295.2,2701.71 34284.3,2702.54 34277.3,2709.57L34248.4,2738.44C34241.4,2745.47 34240.6,2756.36 34245.9,2764.3L34245.7,2764.56L34486,3004.93L34486,3560.15L34585.5,3560.15L34585.5,3004.93L34825.9,2764.56L34825.6,2764.3C34831,2756.36 34830.2,2745.47 34823.1,2738.44L34794.3,2709.57C34787.2,2702.54 34776.4,2701.71 34768.4,2707.08L34768.2,2706.82L34585.5,2889.45L34585.5,2637.55Z" style="fill:rgb(67,170,139);stroke:rgb(67,170,139);stroke-width:37.55px;"/>
                </g>
                <g transform="matrix(-0.112899,-0.244088,-0.195548,0.140924,43817.5,12813)">
                    <path d="M34585.5,2637.55L34825.9,2397.18L34825.6,2396.91C34831,2388.97 34830.2,2378.08 34823.1,2371.05L34794.3,2342.18C34787.2,2335.15 34776.4,2334.33 34768.4,2339.69L34768.2,2339.43L34585.5,2522.07L34585.5,2277.62C34585.5,2250.17 34574.4,2227.88 34560.7,2227.88L34510.9,2227.88C34497.2,2227.88 34486,2250.17 34486,2277.62L34486,2522.07L34303.4,2339.43L34303.1,2339.69C34295.2,2334.33 34284.3,2335.15 34277.3,2342.18L34248.4,2371.05C34241.4,2378.08 34240.6,2388.97 34245.9,2396.91L34245.7,2397.18L34486,2637.55L34486,2889.45L34303.4,2706.82L34303.1,2707.08C34295.2,2701.71 34284.3,2702.54 34277.3,2709.57L34248.4,2738.44C34241.4,2745.47 34240.6,2756.36 34245.9,2764.3L34245.7,2764.56L34486,3004.93L34486,3560.15L34585.5,3560.15L34585.5,3004.93L34825.9,2764.56L34825.6,2764.3C34831,2756.36 34830.2,2745.47 34823.1,2738.44L34794.3,2709.57C34787.2,2702.54 34776.4,2701.71 34768.4,2707.08L34768.2,2706.82L34585.5,2889.45L34585.5,2637.55Z" style="fill:rgb(67,170,139);stroke:rgb(67,170,139);stroke-width:37.55px;"/>
                </g>
                <g transform="matrix(-0.225799,-3.69534e-17,-1.84767e-17,-0.281848,47020.4,5882.88)">
                    <path d="M34585.5,2637.55L34825.9,2397.18L34825.6,2396.91C34831,2388.97 34830.2,2378.08 34823.1,2371.05L34794.3,2342.18C34787.2,2335.15 34776.4,2334.33 34768.4,2339.69L34768.2,2339.43L34585.5,2522.07L34585.5,2277.62C34585.5,2250.17 34574.4,2227.88 34560.7,2227.88L34510.9,2227.88C34497.2,2227.88 34486,2250.17 34486,2277.62L34486,2522.07L34303.4,2339.43L34303.1,2339.69C34295.2,2334.33 34284.3,2335.15 34277.3,2342.18L34248.4,2371.05C34241.4,2378.08 34240.6,2388.97 34245.9,2396.91L34245.7,2397.18L34486,2637.55L34486,2889.45L34303.4,2706.82L34303.1,2707.08C34295.2,2701.71 34284.3,2702.54 34277.3,2709.57L34248.4,2738.44C34241.4,2745.47 34240.6,2756.36 34245.9,2764.3L34245.7,2764.56L34486,3004.93L34486,3560.15L34585.5,3560.15L34585.5,3004.93L34825.9,2764.56L34825.6,2764.3C34831,2756.36 34830.2,2745.47 34823.1,2738.44L34794.3,2709.57C34787.2,2702.54 34776.4,2701.71 34768.4,2707.08L34768.2,2706.82L34585.5,2889.45L34585.5,2637.55Z" style="fill:rgb(67,170,139);stroke:rgb(67,170,139);stroke-width:37.55px;"/>
                </g>
                <g transform="matrix(-0.112899,-0.244088,0.195548,-0.140924,42425.2,13810.9)">
                    <path d="M34585.5,2637.55L34825.9,2397.18L34825.6,2396.91C34831,2388.97 34830.2,2378.08 34823.1,2371.05L34794.3,2342.18C34787.2,2335.15 34776.4,2334.33 34768.4,2339.69L34768.2,2339.43L34585.5,2522.07L34585.5,2277.62C34585.5,2250.17 34574.4,2227.88 34560.7,2227.88L34510.9,2227.88C34497.2,2227.88 34486,2250.17 34486,2277.62L34486,2522.07L34303.4,2339.43L34303.1,2339.69C34295.2,2334.33 34284.3,2335.15 34277.3,2342.18L34248.4,2371.05C34241.4,2378.08 34240.6,2388.97 34245.9,2396.91L34245.7,2397.18L34486,2637.55L34486,2889.45L34303.4,2706.82L34303.1,2707.08C34295.2,2701.71 34284.3,2702.54 34277.3,2709.57L34248.4,2738.44C34241.4,2745.47 34240.6,2756.36 34245.9,2764.3L34245.7,2764.56L34486,3004.93L34486,3560.15L34585.5,3560.15L34585.5,3004.93L34825.9,2764.56L34825.6,2764.3C34831,2756.36 34830.2,2745.47 34823.1,2738.44L34794.3,2709.57C34787.2,2702.54 34776.4,2701.71 34768.4,2707.08L34768.2,2706.82L34585.5,2889.45L34585.5,2637.55Z" style="fill:rgb(67,170,139);stroke:rgb(67,170,139);stroke-width:37.55px;"/>
                </g>
                <g transform="matrix(-0.112899,0.244088,-0.195548,-0.140924,43817.5,-3048.59)">
                    <path d="M34585.5,2637.55L34825.9,2397.18L34825.6,2396.91C34831,2388.97 34830.2,2378.08 34823.1,2371.05L34794.3,2342.18C34787.2,2335.15 34776.4,2334.33 34768.4,2339.69L34768.2,2339.43L34585.5,2522.07L34585.5,2277.62C34585.5,2250.17 34574.4,2227.88 34560.7,2227.88L34510.9,2227.88C34497.2,2227.88 34486,2250.17 34486,2277.62L34486,2522.07L34303.4,2339.43L34303.1,2339.69C34295.2,2334.33 34284.3,2335.15 34277.3,2342.18L34248.4,2371.05C34241.4,2378.08 34240.6,2388.97 34245.9,2396.91L34245.7,2397.18L34486,2637.55L34486,2889.45L34303.4,2706.82L34303.1,2707.08C34295.2,2701.71 34284.3,2702.54 34277.3,2709.57L34248.4,2738.44C34241.4,2745.47 34240.6,2756.36 34245.9,2764.3L34245.7,2764.56L34486,3004.93L34486,3560.15L34585.5,3560.15L34585.5,3004.93L34825.9,2764.56L34825.6,2764.3C34831,2756.36 34830.2,2745.47 34823.1,2738.44L34794.3,2709.57C34787.2,2702.54 34776.4,2701.71 34768.4,2707.08L34768.2,2706.82L34585.5,2889.45L34585.5,2637.55Z" style="fill:rgb(67,170,139);stroke:rgb(67,170,139);stroke-width:37.55px;"/>
                </g>
            </g>
            <g transform="matrix(0.861629,0.932477,-0.598482,0.861629,8513.97,-35232)">
                <g transform="matrix(-0.225799,3.69534e-17,-1.84767e-17,0.281848,47020.4,3881.52)">
                    <path d="M34585.5,2637.55L34825.9,2397.18L34825.6,2396.91C34831,2388.97 34830.2,2378.08 34823.1,2371.05L34794.3,2342.18C34787.2,2335.15 34776.4,2334.33 34768.4,2339.69L34768.2,2339.43L34585.5,2522.07L34585.5,2277.62C34585.5,2250.17 34574.4,2227.88 34560.7,2227.88L34510.9,2227.88C34497.2,2227.88 34486,2250.17 34486,2277.62L34486,2522.07L34303.4,2339.43L34303.1,2339.69C34295.2,2334.33 34284.3,2335.15 34277.3,2342.18L34248.4,2371.05C34241.4,2378.08 34240.6,2388.97 34245.9,2396.91L34245.7,2397.18L34486,2637.55L34486,2889.45L34303.4,2706.82L34303.1,2707.08C34295.2,2701.71 34284.3,2702.54 34277.3,2709.57L34248.4,2738.44C34241.4,2745.47 34240.6,2756.36 34245.9,2764.3L34245.7,2764.56L34486,3004.93L34486,3560.15L34585.5,3560.15L34585.5,3004.93L34825.9,2764.56L34825.6,2764.3C34831,2756.36 34830.2,2745.47 34823.1,2738.44L34794.3,2709.57C34787.2,2702.54 34776.4,2701.71 34768.4,2707.08L34768.2,2706.82L34585.5,2889.45L34585.5,2637.55Z" style="fill:rgb(67,170,139);stroke:rgb(67,170,139);stroke-width:32.93px;"/>
                </g>
                <g transform="matrix(-0.112899,0.244088,0.195548,0.140924,42425.2,-4046.53)">
                    <path d="M34585.5,2637.55L34825.9,2397.18L34825.6,2396.91C34831,2388.97 34830.2,2378.08 34823.1,2371.05L34794.3,2342.18C34787.2,2335.15 34776.4,2334.33 34768.4,2339.69L34768.2,2339.43L34585.5,2522.07L34585.5,2277.62C34585.5,2250.17 34574.4,2227.88 34560.7,2227.88L34510.9,2227.88C34497.2,2227.88 34486,2250.17 34486,2277.62L34486,2522.07L34303.4,2339.43L34303.1,2339.69C34295.2,2334.33 34284.3,2335.15 34277.3,2342.18L34248.4,2371.05C34241.4,2378.08 34240.6,2388.97 34245.9,2396.91L34245.7,2397.18L34486,2637.55L34486,2889.45L34303.4,2706.82L34303.1,2707.08C34295.2,2701.71 34284.3,2702.54 34277.3,2709.57L34248.4,2738.44C34241.4,2745.47 34240.6,2756.36 34245.9,2764.3L34245.7,2764.56L34486,3004.93L34486,3560.15L34585.5,3560.15L34585.5,3004.93L34825.9,2764.56L34825.6,2764.3C34831,2756.36 34830.2,2745.47 34823.1,2738.44L34794.3,2709.57C34787.2,2702.54 34776.4,2701.71 34768.4,2707.08L34768.2,2706.82L34585.5,2889.45L34585.5,2637.55Z" style="fill:rgb(67,170,139);stroke:rgb(67,170,139);stroke-width:32.93px;"/>
                </g>
                <g transform="matrix(-0.112899,-0.244088,-0.195548,0.140924,43817.5,12813)">
                    <path d="M34585.5,2637.55L34825.9,2397.18L34825.6,2396.91C34831,2388.97 34830.2,2378.08 34823.1,2371.05L34794.3,2342.18C34787.2,2335.15 34776.4,2334.33 34768.4,2339.69L34768.2,2339.43L34585.5,2522.07L34585.5,2277.62C34585.5,2250.17 34574.4,2227.88 34560.7,2227.88L34510.9,2227.88C34497.2,2227.88 34486,2250.17 34486,2277.62L34486,2522.07L34303.4,2339.43L34303.1,2339.69C34295.2,2334.33 34284.3,2335.15 34277.3,2342.18L34248.4,2371.05C34241.4,2378.08 34240.6,2388.97 34245.9,2396.91L34245.7,2397.18L34486,2637.55L34486,2889.45L34303.4,2706.82L34303.1,2707.08C34295.2,2701.71 34284.3,2702.54 34277.3,2709.57L34248.4,2738.44C34241.4,2745.47 34240.6,2756.36 34245.9,2764.3L34245.7,2764.56L34486,3004.93L34486,3560.15L34585.5,3560.15L34585.5,3004.93L34825.9,2764.56L34825.6,2764.3C34831,2756.36 34830.2,2745.47 34823.1,2738.44L34794.3,2709.57C34787.2,2702.54 34776.4,2701.71 34768.4,2707.08L34768.2,2706.82L34585.5,2889.45L34585.5,2637.55Z" style="fill:rgb(67,170,139);stroke:rgb(67,170,139);stroke-width:32.93px;"/>
                </g>
                <g transform="matrix(-0.225799,-3.69534e-17,-1.84767e-17,-0.281848,47020.4,5882.88)">
                    <path d="M34585.5,2637.55L34825.9,2397.18L34825.6,2396.91C34831,2388.97 34830.2,2378.08 34823.1,2371.05L34794.3,2342.18C34787.2,2335.15 34776.4,2334.33 34768.4,2339.69L34768.2,2339.43L34585.5,2522.07L34585.5,2277.62C34585.5,2250.17 34574.4,2227.88 34560.7,2227.88L34510.9,2227.88C34497.2,2227.88 34486,2250.17 34486,2277.62L34486,2522.07L34303.4,2339.43L34303.1,2339.69C34295.2,2334.33 34284.3,2335.15 34277.3,2342.18L34248.4,2371.05C34241.4,2378.08 34240.6,2388.97 34245.9,2396.91L34245.7,2397.18L34486,2637.55L34486,2889.45L34303.4,2706.82L34303.1,2707.08C34295.2,2701.71 34284.3,2702.54 34277.3,2709.57L34248.4,2738.44C34241.4,2745.47 34240.6,2756.36 34245.9,2764.3L34245.7,2764.56L34486,3004.93L34486,3560.15L34585.5,3560.15L34585.5,3004.93L34825.9,2764.56L34825.6,2764.3C34831,2756.36 34830.2,2745.47 34823.1,2738.44L34794.3,2709.57C34787.2,2702.54 34776.4,2701.71 34768.4,2707.08L34768.2,2706.82L34585.5,2889.45L34585.5,2637.55Z" style="fill:rgb(67,170,139);stroke:rgb(67,170,139);stroke-width:32.93px;"/>
                </g>
                <g transform="matrix(-0.112899,-0.244088,0.195548,-0.140924,42425.2,13810.9)">
                    <path d="M34585.5,2637.55L34825.9,2397.18L34825.6,2396.91C34831,2388.97 34830.2,2378.08 34823.1,2371.05L34794.3,2342.18C34787.2,2335.15 34776.4,2334.33 34768.4,2339.69L34768.2,2339.43L34585.5,2522.07L34585.5,2277.62C34585.5,2250.17 34574.4,2227.88 34560.7,2227.88L34510.9,2227.88C34497.2,2227.88 34486,2250.17 34486,2277.62L34486,2522.07L34303.4,2339.43L34303.1,2339.69C34295.2,2334.33 34284.3,2335.15 34277.3,2342.18L34248.4,2371.05C34241.4,2378.08 34240.6,2388.97 34245.9,2396.91L34245.7,2397.18L34486,2637.55L34486,2889.45L34303.4,2706.82L34303.1,2707.08C34295.2,2701.71 34284.3,2702.54 34277.3,2709.57L34248.4,2738.44C34241.4,2745.47 34240.6,2756.36 34245.9,2764.3L34245.7,2764.56L34486,3004.93L34486,3560.15L34585.5,3560.15L34585.5,3004.93L34825.9,2764.56L34825.6,2764.3C34831,2756.36 34830.2,2745.47 34823.1,2738.44L34794.3,2709.57C34787.2,2702.54 34776.4,2701.71 34768.4,2707.08L34768.2,2706.82L34585.5,2889.45L34585.5,2637.55Z" style="fill:rgb(67,170,139);stroke:rgb(67,170,139);stroke-width:32.93px;"/>
                </g>
                <g transform="matrix(-0.112899,0.244088,-0.195548,-0.140924,43817.5,-3048.59)">
                    <path d="M34585.5,2637.55L34825.9,2397.18L34825.6,2396.91C34831,2388.97 34830.2,2378.08 34823.1,2371.05L34794.3,2342.18C34787.2,2335.15 34776.4,2334.33 34768.4,2339.69L34768.2,2339.43L34585.5,2522.07L34585.5,2277.62C34585.5,2250.17 34574.4,2227.88 34560.7,2227.88L34510.9,2227.88C34497.2,2227.88 34486,2250.17 34486,2277.62L34486,2522.07L34303.4,2339.43L34303.1,2339.69C34295.2,2334.33 34284.3,2335.15 34277.3,2342.18L34248.4,2371.05C34241.4,2378.08 34240.6,2388.97 34245.9,2396.91L34245.7,2397.18L34486,2637.55L34486,2889.45L34303.4,2706.82L34303.1,2707.08C34295.2,2701.71 34284.3,2702.54 34277.3,2709.57L34248.4,2738.44C34241.4,2745.47 34240.6,2756.36 34245.9,2764.3L34245.7,2764.56L34486,3004.93L34486,3560.15L34585.5,3560.15L34585.5,3004.93L34825.9,2764.56L34825.6,2764.3C34831,2756.36 34830.2,2745.47 34823.1,2738.44L34794.3,2709.57C34787.2,2702.54 34776.4,2701.71 34768.4,2707.08L34768.2,2706.82L34585.5,2889.45L34585.5,2637.55Z" style="fill:rgb(67,170,139);stroke:rgb(67,170,139);stroke-width:32.93px;"/>
                </g>
            </g>
            <g transform="matrix(0.422618,-1.13128,0.726076,0.422618,20669.9,49267.4)">
                <g transform="matrix(-0.225799,3.69534e-17,-1.84767e-17,0.281848,47020.4,3881.52)">
                    <path d="M34585.5,2637.55L34825.9,2397.18L34825.6,2396.91C34831,2388.97 34830.2,2378.08 34823.1,2371.05L34794.3,2342.18C34787.2,2335.15 34776.4,2334.33 34768.4,2339.69L34768.2,2339.43L34585.5,2522.07L34585.5,2277.62C34585.5,2250.17 34574.4,2227.88 34560.7,2227.88L34510.9,2227.88C34497.2,2227.88 34486,2250.17 34486,2277.62L34486,2522.07L34303.4,2339.43L34303.1,2339.69C34295.2,2334.33 34284.3,2335.15 34277.3,2342.18L34248.4,2371.05C34241.4,2378.08 34240.6,2388.97 34245.9,2396.91L34245.7,2397.18L34486,2637.55L34486,2889.45L34303.4,2706.82L34303.1,2707.08C34295.2,2701.71 34284.3,2702.54 34277.3,2709.57L34248.4,2738.44C34241.4,2745.47 34240.6,2756.36 34245.9,2764.3L34245.7,2764.56L34486,3004.93L34486,3560.15L34585.5,3560.15L34585.5,3004.93L34825.9,2764.56L34825.6,2764.3C34831,2756.36 34830.2,2745.47 34823.1,2738.44L34794.3,2709.57C34787.2,2702.54 34776.4,2701.71 34768.4,2707.08L34768.2,2706.82L34585.5,2889.45L34585.5,2637.55Z" style="fill:rgb(67,170,139);stroke:rgb(67,170,139);stroke-width:37.55px;"/>
                </g>
                <g transform="matrix(-0.112899,0.244088,0.195548,0.140924,42425.2,-4046.53)">
                    <path d="M34585.5,2637.55L34825.9,2397.18L34825.6,2396.91C34831,2388.97 34830.2,2378.08 34823.1,2371.05L34794.3,2342.18C34787.2,2335.15 34776.4,2334.33 34768.4,2339.69L34768.2,2339.43L34585.5,2522.07L34585.5,2277.62C34585.5,2250.17 34574.4,2227.88 34560.7,2227.88L34510.9,2227.88C34497.2,2227.88 34486,2250.17 34486,2277.62L34486,2522.07L34303.4,2339.43L34303.1,2339.69C34295.2,2334.33 34284.3,2335.15 34277.3,2342.18L34248.4,2371.05C34241.4,2378.08 34240.6,2388.97 34245.9,2396.91L34245.7,2397.18L34486,2637.55L34486,2889.45L34303.4,2706.82L34303.1,2707.08C34295.2,2701.71 34284.3,2702.54 34277.3,2709.57L34248.4,2738.44C34241.4,2745.47 34240.6,2756.36 34245.9,2764.3L34245.7,2764.56L34486,3004.93L34486,3560.15L34585.5,3560.15L34585.5,3004.93L34825.9,2764.56L34825.6,2764.3C34831,2756.36 34830.2,2745.47 34823.1,2738.44L34794.3,2709.57C34787.2,2702.54 34776.4,2701.71 34768.4,2707.08L34768.2,2706.82L34585.5,2889.45L34585.5,2637.55Z" style="fill:rgb(67,170,139);stroke:rgb(67,170,139);stroke-width:37.55px;"/>
                </g>
                <g transform="matrix(-0.112899,-0.244088,-0.195548,0.140924,43817.5,12813)">
                    <path d="M34585.5,2637.55L34825.9,2397.18L34825.6,2396.91C34831,2388.97 34830.2,2378.08 34823.1,2371.05L34794.3,2342.18C34787.2,2335.15 34776.4,2334.33 34768.4,2339.69L34768.2,2339.43L34585.5,2522.07L34585.5,2277.62C34585.5,2250.17 34574.4,2227.88 34560.7,2227.88L34510.9,2227.88C34497.2,2227.88 34486,2250.17 34486,2277.62L34486,2522.07L34303.4,2339.43L34303.1,2339.69C34295.2,2334.33 34284.3,2335.15 34277.3,2342.18L34248.4,2371.05C34241.4,2378.08 34240.6,2388.97 34245.9,2396.91L34245.7,2397.18L34486,2637.55L34486,2889.45L34303.4,2706.82L34303.1,2707.08C34295.2,2701.71 34284.3,2702.54 34277.3,2709.57L34248.4,2738.44C34241.4,2745.47 34240.6,2756.36 34245.9,2764.3L34245.7,2764.56L34486,3004.93L34486,3560.15L34585.5,3560.15L34585.5,3004.93L34825.9,2764.56L34825.6,2764.3C34831,2756.36 34830.2,2745.47 34823.1,2738.44L34794.3,2709.57C34787.2,2702.54 34776.4,2701.71 34768.4,2707.08L34768.2,2706.82L34585.5,2889.45L34585.5,2637.55Z" style="fill:rgb(67,170,139);stroke:rgb(67,170,139);stroke-width:37.55px;"/>
                </g>
                <g transform="matrix(-0.225799,-3.69534e-17,-1.84767e-17,-0.281848,47020.4,5882.88)">
                    <path d="M34585.5,2637.55L34825.9,2397.18L34825.6,2396.91C34831,2388.97 34830.2,2378.08 34823.1,2371.05L34794.3,2342.18C34787.2,2335.15 34776.4,2334.33 34768.4,2339.69L34768.2,2339.43L34585.5,2522.07L34585.5,2277.62C34585.5,2250.17 34574.4,2227.88 34560.7,2227.88L34510.9,2227.88C34497.2,2227.88 34486,2250.17 34486,2277.62L34486,2522.07L34303.4,2339.43L34303.1,2339.69C34295.2,2334.33 34284.3,2335.15 34277.3,2342.18L34248.4,2371.05C34241.4,2378.08 34240.6,2388.97 34245.9,2396.91L34245.7,2397.18L34486,2637.55L34486,2889.45L34303.4,2706.82L34303.1,2707.08C34295.2,2701.71 34284.3,2702.54 34277.3,2709.57L34248.4,2738.44C34241.4,2745.47 34240.6,2756.36 34245.9,2764.3L34245.7,2764.56L34486,3004.93L34486,3560.15L34585.5,3560.15L34585.5,3004.93L34825.9,2764.56L34825.6,2764.3C34831,2756.36 34830.2,2745.47 34823.1,2738.44L34794.3,2709.57C34787.2,2702.54 34776.4,2701.71 34768.4,2707.08L34768.2,2706.82L34585.5,2889.45L34585.5,2637.55Z" style="fill:rgb(67,170,139);stroke:rgb(67,170,139);stroke-width:37.55px;"/>
                </g>
                <g transform="matrix(-0.112899,-0.244088,0.195548,-0.140924,42425.2,13810.9)">
                    <path d="M34585.5,2637.55L34825.9,2397.18L34825.6,2396.91C34831,2388.97 34830.2,2378.08 34823.1,2371.05L34794.3,2342.18C34787.2,2335.15 34776.4,2334.33 34768.4,2339.69L34768.2,2339.43L34585.5,2522.07L34585.5,2277.62C34585.5,2250.17 34574.4,2227.88 34560.7,2227.88L34510.9,2227.88C34497.2,2227.88 34486,2250.17 34486,2277.62L34486,2522.07L34303.4,2339.43L34303.1,2339.69C34295.2,2334.33 34284.3,2335.15 34277.3,2342.18L34248.4,2371.05C34241.4,2378.08 34240.6,2388.97 34245.9,2396.91L34245.7,2397.18L34486,2637.55L34486,2889.45L34303.4,2706.82L34303.1,2707.08C34295.2,2701.71 34284.3,2702.54 34277.3,2709.57L34248.4,2738.44C34241.4,2745.47 34240.6,2756.36 34245.9,2764.3L34245.7,2764.56L34486,3004.93L34486,3560.15L34585.5,3560.15L34585.5,3004.93L34825.9,2764.56L34825.6,2764.3C34831,2756.36 34830.2,2745.47 34823.1,2738.44L34794.3,2709.57C34787.2,2702.54 34776.4,2701.71 34768.4,2707.08L34768.2,2706.82L34585.5,2889.45L34585.5,2637.55Z" style="fill:rgb(67,170,139);stroke:rgb(67,170,139);stroke-width:37.55px;"/>
                </g>
                <g transform="matrix(-0.112899,0.244088,-0.195548,-0.140924,43817.5,-3048.59)">
                    <path d="M34585.5,2637.55L34825.9,2397.18L34825.6,2396.91C34831,2388.97 34830.2,2378.08 34823.1,2371.05L34794.3,2342.18C34787.2,2335.15 34776.4,2334.33 34768.4,2339.69L34768.2,2339.43L34585.5,2522.07L34585.5,2277.62C34585.5,2250.17 34574.4,2227.88 34560.7,2227.88L34510.9,2227.88C34497.2,2227.88 34486,2250.17 34486,2277.62L34486,2522.07L34303.4,2339.43L34303.1,2339.69C34295.2,2334.33 34284.3,2335.15 34277.3,2342.18L34248.4,2371.05C34241.4,2378.08 34240.6,2388.97 34245.9,2396.91L34245.7,2397.18L34486,2637.55L34486,2889.45L34303.4,2706.82L34303.1,2707.08C34295.2,2701.71 34284.3,2702.54 34277.3,2709.57L34248.4,2738.44C34241.4,2745.47 34240.6,2756.36 34245.9,2764.3L34245.7,2764.56L34486,3004.93L34486,3560.15L34585.5,3560.15L34585.5,3004.93L34825.9,2764.56L34825.6,2764.3C34831,2756.36 34830.2,2745.47 34823.1,2738.44L34794.3,2709.57C34787.2,2702.54 34776.4,2701.71 34768.4,2707.08L34768.2,2706.82L34585.5,2889.45L34585.5,2637.55Z" style="fill:rgb(67,170,139);stroke:rgb(67,170,139);stroke-width:37.55px;"/>
                </g>
            </g>
            <g transform="matrix(0.485587,-1.39062,0.981077,0.533762,15338.2,56206.6)">
                <g transform="matrix(-0.225799,3.69534e-17,-1.84767e-17,0.281848,47020.4,3881.52)">
                    <path d="M34585.5,2637.55L34825.9,2397.18L34825.6,2396.91C34831,2388.97 34830.2,2378.08 34823.1,2371.05L34794.3,2342.18C34787.2,2335.15 34776.4,2334.33 34768.4,2339.69L34768.2,2339.43L34585.5,2522.07L34585.5,2277.62C34585.5,2250.17 34574.4,2227.88 34560.7,2227.88L34510.9,2227.88C34497.2,2227.88 34486,2250.17 34486,2277.62L34486,2522.07L34303.4,2339.43L34303.1,2339.69C34295.2,2334.33 34284.3,2335.15 34277.3,2342.18L34248.4,2371.05C34241.4,2378.08 34240.6,2388.97 34245.9,2396.91L34245.7,2397.18L34486,2637.55L34486,2889.45L34303.4,2706.82L34303.1,2707.08C34295.2,2701.71 34284.3,2702.54 34277.3,2709.57L34248.4,2738.44C34241.4,2745.47 34240.6,2756.36 34245.9,2764.3L34245.7,2764.56L34486,3004.93L34486,3560.15L34585.5,3560.15L34585.5,3004.93L34825.9,2764.56L34825.6,2764.3C34831,2756.36 34830.2,2745.47 34823.1,2738.44L34794.3,2709.57C34787.2,2702.54 34776.4,2701.71 34768.4,2707.08L34768.2,2706.82L34585.5,2889.45L34585.5,2637.55Z" style="fill:rgb(67,170,139);stroke:rgb(67,170,139);stroke-width:29.41px;"/>
                </g>
                <g transform="matrix(-0.112899,0.244088,0.195548,0.140924,42425.2,-4046.53)">
                    <path d="M34585.5,2637.55L34825.9,2397.18L34825.6,2396.91C34831,2388.97 34830.2,2378.08 34823.1,2371.05L34794.3,2342.18C34787.2,2335.15 34776.4,2334.33 34768.4,2339.69L34768.2,2339.43L34585.5,2522.07L34585.5,2277.62C34585.5,2250.17 34574.4,2227.88 34560.7,2227.88L34510.9,2227.88C34497.2,2227.88 34486,2250.17 34486,2277.62L34486,2522.07L34303.4,2339.43L34303.1,2339.69C34295.2,2334.33 34284.3,2335.15 34277.3,2342.18L34248.4,2371.05C34241.4,2378.08 34240.6,2388.97 34245.9,2396.91L34245.7,2397.18L34486,2637.55L34486,2889.45L34303.4,2706.82L34303.1,2707.08C34295.2,2701.71 34284.3,2702.54 34277.3,2709.57L34248.4,2738.44C34241.4,2745.47 34240.6,2756.36 34245.9,2764.3L34245.7,2764.56L34486,3004.93L34486,3560.15L34585.5,3560.15L34585.5,3004.93L34825.9,2764.56L34825.6,2764.3C34831,2756.36 34830.2,2745.47 34823.1,2738.44L34794.3,2709.57C34787.2,2702.54 34776.4,2701.71 34768.4,2707.08L34768.2,2706.82L34585.5,2889.45L34585.5,2637.55Z" style="fill:rgb(67,170,139);stroke:rgb(67,170,139);stroke-width:28.28px;"/>
                </g>
                <g transform="matrix(-0.112899,-0.244088,-0.195548,0.140924,43817.5,12813)">
                    <path d="M34585.5,2637.55L34825.9,2397.18L34825.6,2396.91C34831,2388.97 34830.2,2378.08 34823.1,2371.05L34794.3,2342.18C34787.2,2335.15 34776.4,2334.33 34768.4,2339.69L34768.2,2339.43L34585.5,2522.07L34585.5,2277.62C34585.5,2250.17 34574.4,2227.88 34560.7,2227.88L34510.9,2227.88C34497.2,2227.88 34486,2250.17 34486,2277.62L34486,2522.07L34303.4,2339.43L34303.1,2339.69C34295.2,2334.33 34284.3,2335.15 34277.3,2342.18L34248.4,2371.05C34241.4,2378.08 34240.6,2388.97 34245.9,2396.91L34245.7,2397.18L34486,2637.55L34486,2889.45L34303.4,2706.82L34303.1,2707.08C34295.2,2701.71 34284.3,2702.54 34277.3,2709.57L34248.4,2738.44C34241.4,2745.47 34240.6,2756.36 34245.9,2764.3L34245.7,2764.56L34486,3004.93L34486,3560.15L34585.5,3560.15L34585.5,3004.93L34825.9,2764.56L34825.6,2764.3C34831,2756.36 34830.2,2745.47 34823.1,2738.44L34794.3,2709.57C34787.2,2702.54 34776.4,2701.71 34768.4,2707.08L34768.2,2706.82L34585.5,2889.45L34585.5,2637.55Z" style="fill:rgb(67,170,139);stroke:rgb(67,170,139);stroke-width:30.69px;"/>
                </g>
                <g transform="matrix(-0.225799,-3.69534e-17,-1.84767e-17,-0.281848,47020.4,5882.88)">
                    <path d="M34585.5,2637.55L34825.9,2397.18L34825.6,2396.91C34831,2388.97 34830.2,2378.08 34823.1,2371.05L34794.3,2342.18C34787.2,2335.15 34776.4,2334.33 34768.4,2339.69L34768.2,2339.43L34585.5,2522.07L34585.5,2277.62C34585.5,2250.17 34574.4,2227.88 34560.7,2227.88L34510.9,2227.88C34497.2,2227.88 34486,2250.17 34486,2277.62L34486,2522.07L34303.4,2339.43L34303.1,2339.69C34295.2,2334.33 34284.3,2335.15 34277.3,2342.18L34248.4,2371.05C34241.4,2378.08 34240.6,2388.97 34245.9,2396.91L34245.7,2397.18L34486,2637.55L34486,2889.45L34303.4,2706.82L34303.1,2707.08C34295.2,2701.71 34284.3,2702.54 34277.3,2709.57L34248.4,2738.44C34241.4,2745.47 34240.6,2756.36 34245.9,2764.3L34245.7,2764.56L34486,3004.93L34486,3560.15L34585.5,3560.15L34585.5,3004.93L34825.9,2764.56L34825.6,2764.3C34831,2756.36 34830.2,2745.47 34823.1,2738.44L34794.3,2709.57C34787.2,2702.54 34776.4,2701.71 34768.4,2707.08L34768.2,2706.82L34585.5,2889.45L34585.5,2637.55Z" style="fill:rgb(67,170,139);stroke:rgb(67,170,139);stroke-width:29.41px;"/>
                </g>
                <g transform="matrix(-0.112899,-0.244088,0.195548,-0.140924,42425.2,13810.9)">
                    <path d="M34585.5,2637.55L34825.9,2397.18L34825.6,2396.91C34831,2388.97 34830.2,2378.08 34823.1,2371.05L34794.3,2342.18C34787.2,2335.15 34776.4,2334.33 34768.4,2339.69L34768.2,2339.43L34585.5,2522.07L34585.5,2277.62C34585.5,2250.17 34574.4,2227.88 34560.7,2227.88L34510.9,2227.88C34497.2,2227.88 34486,2250.17 34486,2277.62L34486,2522.07L34303.4,2339.43L34303.1,2339.69C34295.2,2334.33 34284.3,2335.15 34277.3,2342.18L34248.4,2371.05C34241.4,2378.08 34240.6,2388.97 34245.9,2396.91L34245.7,2397.18L34486,2637.55L34486,2889.45L34303.4,2706.82L34303.1,2707.08C34295.2,2701.71 34284.3,2702.54 34277.3,2709.57L34248.4,2738.44C34241.4,2745.47 34240.6,2756.36 34245.9,2764.3L34245.7,2764.56L34486,3004.93L34486,3560.15L34585.5,3560.15L34585.5,3004.93L34825.9,2764.56L34825.6,2764.3C34831,2756.36 34830.2,2745.47 34823.1,2738.44L34794.3,2709.57C34787.2,2702.54 34776.4,2701.71 34768.4,2707.08L34768.2,2706.82L34585.5,2889.45L34585.5,2637.55Z" style="fill:rgb(67,170,139);stroke:rgb(67,170,139);stroke-width:28.28px;"/>
                </g>
                <g transform="matrix(-0.112899,0.244088,-0.195548,-0.140924,43817.5,-3048.59)">
                    <path d="M34585.5,2637.55L34825.9,2397.18L34825.6,2396.91C34831,2388.97 34830.2,2378.08 34823.1,2371.05L34794.3,2342.18C34787.2,2335.15 34776.4,2334.33 34768.4,2339.69L34768.2,2339.43L34585.5,2522.07L34585.5,2277.62C34585.5,2250.17 34574.4,2227.88 34560.7,2227.88L34510.9,2227.88C34497.2,2227.88 34486,2250.17 34486,2277.62L34486,2522.07L34303.4,2339.43L34303.1,2339.69C34295.2,2334.33 34284.3,2335.15 34277.3,2342.18L34248.4,2371.05C34241.4,2378.08 34240.6,2388.97 34245.9,2396.91L34245.7,2397.18L34486,2637.55L34486,2889.45L34303.4,2706.82L34303.1,2707.08C34295.2,2701.71 34284.3,2702.54 34277.3,2709.57L34248.4,2738.44C34241.4,2745.47 34240.6,2756.36 34245.9,2764.3L34245.7,2764.56L34486,3004.93L34486,3560.15L34585.5,3560.15L34585.5,3004.93L34825.9,2764.56L34825.6,2764.3C34831,2756.36 34830.2,2745.47 34823.1,2738.44L34794.3,2709.57C34787.2,2702.54 34776.4,2701.71 34768.4,2707.08L34768.2,2706.82L34585.5,2889.45L34585.5,2637.55Z" style="fill:rgb(67,170,139);stroke:rgb(67,170,139);stroke-width:30.69px;"/>
                </g>
            </g>
            <g transform="matrix(0.447859,-0.237228,0.152257,0.447859,20985.6,13972.4)">
                <g transform="matrix(-0.225799,3.69534e-17,-1.84767e-17,0.281848,47020.4,3881.52)">
                    <path d="M34585.5,2637.55L34825.9,2397.18L34825.6,2396.91C34831,2388.97 34830.2,2378.08 34823.1,2371.05L34794.3,2342.18C34787.2,2335.15 34776.4,2334.33 34768.4,2339.69L34768.2,2339.43L34585.5,2522.07L34585.5,2277.62C34585.5,2250.17 34574.4,2227.88 34560.7,2227.88L34510.9,2227.88C34497.2,2227.88 34486,2250.17 34486,2277.62L34486,2522.07L34303.4,2339.43L34303.1,2339.69C34295.2,2334.33 34284.3,2335.15 34277.3,2342.18L34248.4,2371.05C34241.4,2378.08 34240.6,2388.97 34245.9,2396.91L34245.7,2397.18L34486,2637.55L34486,2889.45L34303.4,2706.82L34303.1,2707.08C34295.2,2701.71 34284.3,2702.54 34277.3,2709.57L34248.4,2738.44C34241.4,2745.47 34240.6,2756.36 34245.9,2764.3L34245.7,2764.56L34486,3004.93L34486,3560.15L34585.5,3560.15L34585.5,3004.93L34825.9,2764.56L34825.6,2764.3C34831,2756.36 34830.2,2745.47 34823.1,2738.44L34794.3,2709.57C34787.2,2702.54 34776.4,2701.71 34768.4,2707.08L34768.2,2706.82L34585.5,2889.45L34585.5,2637.55Z" style="fill:rgb(30,145,206);stroke:rgb(30,145,206);stroke-width:77.19px;"/>
                </g>
                <g transform="matrix(-0.112899,0.244088,0.195548,0.140924,42425.2,-4046.53)">
                    <path d="M34585.5,2637.55L34825.9,2397.18L34825.6,2396.91C34831,2388.97 34830.2,2378.08 34823.1,2371.05L34794.3,2342.18C34787.2,2335.15 34776.4,2334.33 34768.4,2339.69L34768.2,2339.43L34585.5,2522.07L34585.5,2277.62C34585.5,2250.17 34574.4,2227.88 34560.7,2227.88L34510.9,2227.88C34497.2,2227.88 34486,2250.17 34486,2277.62L34486,2522.07L34303.4,2339.43L34303.1,2339.69C34295.2,2334.33 34284.3,2335.15 34277.3,2342.18L34248.4,2371.05C34241.4,2378.08 34240.6,2388.97 34245.9,2396.91L34245.7,2397.18L34486,2637.55L34486,2889.45L34303.4,2706.82L34303.1,2707.08C34295.2,2701.71 34284.3,2702.54 34277.3,2709.57L34248.4,2738.44C34241.4,2745.47 34240.6,2756.36 34245.9,2764.3L34245.7,2764.56L34486,3004.93L34486,3560.15L34585.5,3560.15L34585.5,3004.93L34825.9,2764.56L34825.6,2764.3C34831,2756.36 34830.2,2745.47 34823.1,2738.44L34794.3,2709.57C34787.2,2702.54 34776.4,2701.71 34768.4,2707.08L34768.2,2706.82L34585.5,2889.45L34585.5,2637.55Z" style="fill:rgb(30,145,206);stroke:rgb(30,145,206);stroke-width:77.19px;"/>
                </g>
                <g transform="matrix(-0.112899,-0.244088,-0.195548,0.140924,43817.5,12813)">
                    <path d="M34585.5,2637.55L34825.9,2397.18L34825.6,2396.91C34831,2388.97 34830.2,2378.08 34823.1,2371.05L34794.3,2342.18C34787.2,2335.15 34776.4,2334.33 34768.4,2339.69L34768.2,2339.43L34585.5,2522.07L34585.5,2277.62C34585.5,2250.17 34574.4,2227.88 34560.7,2227.88L34510.9,2227.88C34497.2,2227.88 34486,2250.17 34486,2277.62L34486,2522.07L34303.4,2339.43L34303.1,2339.69C34295.2,2334.33 34284.3,2335.15 34277.3,2342.18L34248.4,2371.05C34241.4,2378.08 34240.6,2388.97 34245.9,2396.91L34245.7,2397.18L34486,2637.55L34486,2889.45L34303.4,2706.82L34303.1,2707.08C34295.2,2701.71 34284.3,2702.54 34277.3,2709.57L34248.4,2738.44C34241.4,2745.47 34240.6,2756.36 34245.9,2764.3L34245.7,2764.56L34486,3004.93L34486,3560.15L34585.5,3560.15L34585.5,3004.93L34825.9,2764.56L34825.6,2764.3C34831,2756.36 34830.2,2745.47 34823.1,2738.44L34794.3,2709.57C34787.2,2702.54 34776.4,2701.71 34768.4,2707.08L34768.2,2706.82L34585.5,2889.45L34585.5,2637.55Z" style="fill:rgb(30,145,206);stroke:rgb(30,145,206);stroke-width:77.19px;"/>
                </g>
                <g transform="matrix(-0.225799,-3.69534e-17,-1.84767e-17,-0.281848,47020.4,5882.88)">
                    <path d="M34585.5,2637.55L34825.9,2397.18L34825.6,2396.91C34831,2388.97 34830.2,2378.08 34823.1,2371.05L34794.3,2342.18C34787.2,2335.15 34776.4,2334.33 34768.4,2339.69L34768.2,2339.43L34585.5,2522.07L34585.5,2277.62C34585.5,2250.17 34574.4,2227.88 34560.7,2227.88L34510.9,2227.88C34497.2,2227.88 34486,2250.17 34486,2277.62L34486,2522.07L34303.4,2339.43L34303.1,2339.69C34295.2,2334.33 34284.3,2335.15 34277.3,2342.18L34248.4,2371.05C34241.4,2378.08 34240.6,2388.97 34245.9,2396.91L34245.7,2397.18L34486,2637.55L34486,2889.45L34303.4,2706.82L34303.1,2707.08C34295.2,2701.71 34284.3,2702.54 34277.3,2709.57L34248.4,2738.44C34241.4,2745.47 34240.6,2756.36 34245.9,2764.3L34245.7,2764.56L34486,3004.93L34486,3560.15L34585.5,3560.15L34585.5,3004.93L34825.9,2764.56L34825.6,2764.3C34831,2756.36 34830.2,2745.47 34823.1,2738.44L34794.3,2709.57C34787.2,2702.54 34776.4,2701.71 34768.4,2707.08L34768.2,2706.82L34585.5,2889.45L34585.5,2637.55Z" style="fill:rgb(30,145,206);stroke:rgb(30,145,206);stroke-width:77.19px;"/>
                </g>
                <g transform="matrix(-0.112899,-0.244088,0.195548,-0.140924,42425.2,13810.9)">
                    <path d="M34585.5,2637.55L34825.9,2397.18L34825.6,2396.91C34831,2388.97 34830.2,2378.08 34823.1,2371.05L34794.3,2342.18C34787.2,2335.15 34776.4,2334.33 34768.4,2339.69L34768.2,2339.43L34585.5,2522.07L34585.5,2277.62C34585.5,2250.17 34574.4,2227.88 34560.7,2227.88L34510.9,2227.88C34497.2,2227.88 34486,2250.17 34486,2277.62L34486,2522.07L34303.4,2339.43L34303.1,2339.69C34295.2,2334.33 34284.3,2335.15 34277.3,2342.18L34248.4,2371.05C34241.4,2378.08 34240.6,2388.97 34245.9,2396.91L34245.7,2397.18L34486,2637.55L34486,2889.45L34303.4,2706.82L34303.1,2707.08C34295.2,2701.71 34284.3,2702.54 34277.3,2709.57L34248.4,2738.44C34241.4,2745.47 34240.6,2756.36 34245.9,2764.3L34245.7,2764.56L34486,3004.93L34486,3560.15L34585.5,3560.15L34585.5,3004.93L34825.9,2764.56L34825.6,2764.3C34831,2756.36 34830.2,2745.47 34823.1,2738.44L34794.3,2709.57C34787.2,2702.54 34776.4,2701.71 34768.4,2707.08L34768.2,2706.82L34585.5,2889.45L34585.5,2637.55Z" style="fill:rgb(30,145,206);stroke:rgb(30,145,206);stroke-width:77.19px;"/>
                </g>
                <g transform="matrix(-0.112899,0.244088,-0.195548,-0.140924,43817.5,-3048.59)">
                    <path d="M34585.5,2637.55L34825.9,2397.18L34825.6,2396.91C34831,2388.97 34830.2,2378.08 34823.1,2371.05L34794.3,2342.18C34787.2,2335.15 34776.4,2334.33 34768.4,2339.69L34768.2,2339.43L34585.5,2522.07L34585.5,2277.62C34585.5,2250.17 34574.4,2227.88 34560.7,2227.88L34510.9,2227.88C34497.2,2227.88 34486,2250.17 34486,2277.62L34486,2522.07L34303.4,2339.43L34303.1,2339.69C34295.2,2334.33 34284.3,2335.15 34277.3,2342.18L34248.4,2371.05C34241.4,2378.08 34240.6,2388.97 34245.9,2396.91L34245.7,2397.18L34486,2637.55L34486,2889.45L34303.4,2706.82L34303.1,2707.08C34295.2,2701.71 34284.3,2702.54 34277.3,2709.57L34248.4,2738.44C34241.4,2745.47 34240.6,2756.36 34245.9,2764.3L34245.7,2764.56L34486,3004.93L34486,3560.15L34585.5,3560.15L34585.5,3004.93L34825.9,2764.56L34825.6,2764.3C34831,2756.36 34830.2,2745.47 34823.1,2738.44L34794.3,2709.57C34787.2,2702.54 34776.4,2701.71 34768.4,2707.08L34768.2,2706.82L34585.5,2889.45L34585.5,2637.55Z" style="fill:rgb(30,145,206);stroke:rgb(30,145,206);stroke-width:77.19px;"/>
                </g>
            </g>
            <g transform="matrix(-1.0149,-1.47495,0.946654,-1.0149,75881.6,68602.2)">
                <g transform="matrix(-0.225799,3.69534e-17,-1.84767e-17,0.281848,47020.4,3881.52)">
                    <path d="M34585.5,2637.55L34825.9,2397.18L34825.6,2396.91C34831,2388.97 34830.2,2378.08 34823.1,2371.05L34794.3,2342.18C34787.2,2335.15 34776.4,2334.33 34768.4,2339.69L34768.2,2339.43L34585.5,2522.07L34585.5,2277.62C34585.5,2250.17 34574.4,2227.88 34560.7,2227.88L34510.9,2227.88C34497.2,2227.88 34486,2250.17 34486,2277.62L34486,2522.07L34303.4,2339.43L34303.1,2339.69C34295.2,2334.33 34284.3,2335.15 34277.3,2342.18L34248.4,2371.05C34241.4,2378.08 34240.6,2388.97 34245.9,2396.91L34245.7,2397.18L34486,2637.55L34486,2889.45L34303.4,2706.82L34303.1,2707.08C34295.2,2701.71 34284.3,2702.54 34277.3,2709.57L34248.4,2738.44C34241.4,2745.47 34240.6,2756.36 34245.9,2764.3L34245.7,2764.56L34486,3004.93L34486,3560.15L34585.5,3560.15L34585.5,3004.93L34825.9,2764.56L34825.6,2764.3C34831,2756.36 34830.2,2745.47 34823.1,2738.44L34794.3,2709.57C34787.2,2702.54 34776.4,2701.71 34768.4,2707.08L34768.2,2706.82L34585.5,2889.45L34585.5,2637.55Z" style="fill:rgb(30,145,206);stroke:rgb(30,145,206);stroke-width:24.11px;"/>
                </g>
                <g transform="matrix(-0.112899,0.244088,0.195548,0.140924,42425.2,-4046.53)">
                    <path d="M34585.5,2637.55L34825.9,2397.18L34825.6,2396.91C34831,2388.97 34830.2,2378.08 34823.1,2371.05L34794.3,2342.18C34787.2,2335.15 34776.4,2334.33 34768.4,2339.69L34768.2,2339.43L34585.5,2522.07L34585.5,2277.62C34585.5,2250.17 34574.4,2227.88 34560.7,2227.88L34510.9,2227.88C34497.2,2227.88 34486,2250.17 34486,2277.62L34486,2522.07L34303.4,2339.43L34303.1,2339.69C34295.2,2334.33 34284.3,2335.15 34277.3,2342.18L34248.4,2371.05C34241.4,2378.08 34240.6,2388.97 34245.9,2396.91L34245.7,2397.18L34486,2637.55L34486,2889.45L34303.4,2706.82L34303.1,2707.08C34295.2,2701.71 34284.3,2702.54 34277.3,2709.57L34248.4,2738.44C34241.4,2745.47 34240.6,2756.36 34245.9,2764.3L34245.7,2764.56L34486,3004.93L34486,3560.15L34585.5,3560.15L34585.5,3004.93L34825.9,2764.56L34825.6,2764.3C34831,2756.36 34830.2,2745.47 34823.1,2738.44L34794.3,2709.57C34787.2,2702.54 34776.4,2701.71 34768.4,2707.08L34768.2,2706.82L34585.5,2889.45L34585.5,2637.55Z" style="fill:rgb(30,145,206);stroke:rgb(30,145,206);stroke-width:24.11px;"/>
                </g>
                <g transform="matrix(-0.112899,-0.244088,-0.195548,0.140924,43817.5,12813)">
                    <path d="M34585.5,2637.55L34825.9,2397.18L34825.6,2396.91C34831,2388.97 34830.2,2378.08 34823.1,2371.05L34794.3,2342.18C34787.2,2335.15 34776.4,2334.33 34768.4,2339.69L34768.2,2339.43L34585.5,2522.07L34585.5,2277.62C34585.5,2250.17 34574.4,2227.88 34560.7,2227.88L34510.9,2227.88C34497.2,2227.88 34486,2250.17 34486,2277.62L34486,2522.07L34303.4,2339.43L34303.1,2339.69C34295.2,2334.33 34284.3,2335.15 34277.3,2342.18L34248.4,2371.05C34241.4,2378.08 34240.6,2388.97 34245.9,2396.91L34245.7,2397.18L34486,2637.55L34486,2889.45L34303.4,2706.82L34303.1,2707.08C34295.2,2701.71 34284.3,2702.54 34277.3,2709.57L34248.4,2738.44C34241.4,2745.47 34240.6,2756.36 34245.9,2764.3L34245.7,2764.56L34486,3004.93L34486,3560.15L34585.5,3560.15L34585.5,3004.93L34825.9,2764.56L34825.6,2764.3C34831,2756.36 34830.2,2745.47 34823.1,2738.44L34794.3,2709.57C34787.2,2702.54 34776.4,2701.71 34768.4,2707.08L34768.2,2706.82L34585.5,2889.45L34585.5,2637.55Z" style="fill:rgb(30,145,206);stroke:rgb(30,145,206);stroke-width:24.11px;"/>
                </g>
                <g transform="matrix(-0.225799,-3.69534e-17,-1.84767e-17,-0.281848,47020.4,5882.88)">
                    <path d="M34585.5,2637.55L34825.9,2397.18L34825.6,2396.91C34831,2388.97 34830.2,2378.08 34823.1,2371.05L34794.3,2342.18C34787.2,2335.15 34776.4,2334.33 34768.4,2339.69L34768.2,2339.43L34585.5,2522.07L34585.5,2277.62C34585.5,2250.17 34574.4,2227.88 34560.7,2227.88L34510.9,2227.88C34497.2,2227.88 34486,2250.17 34486,2277.62L34486,2522.07L34303.4,2339.43L34303.1,2339.69C34295.2,2334.33 34284.3,2335.15 34277.3,2342.18L34248.4,2371.05C34241.4,2378.08 34240.6,2388.97 34245.9,2396.91L34245.7,2397.18L34486,2637.55L34486,2889.45L34303.4,2706.82L34303.1,2707.08C34295.2,2701.71 34284.3,2702.54 34277.3,2709.57L34248.4,2738.44C34241.4,2745.47 34240.6,2756.36 34245.9,2764.3L34245.7,2764.56L34486,3004.93L34486,3560.15L34585.5,3560.15L34585.5,3004.93L34825.9,2764.56L34825.6,2764.3C34831,2756.36 34830.2,2745.47 34823.1,2738.44L34794.3,2709.57C34787.2,2702.54 34776.4,2701.71 34768.4,2707.08L34768.2,2706.82L34585.5,2889.45L34585.5,2637.55Z" style="fill:rgb(30,145,206);stroke:rgb(30,145,206);stroke-width:24.11px;"/>
                </g>
                <g transform="matrix(-0.112899,-0.244088,0.195548,-0.140924,42425.2,13810.9)">
                    <path d="M34585.5,2637.55L34825.9,2397.18L34825.6,2396.91C34831,2388.97 34830.2,2378.08 34823.1,2371.05L34794.3,2342.18C34787.2,2335.15 34776.4,2334.33 34768.4,2339.69L34768.2,2339.43L34585.5,2522.07L34585.5,2277.62C34585.5,2250.17 34574.4,2227.88 34560.7,2227.88L34510.9,2227.88C34497.2,2227.88 34486,2250.17 34486,2277.62L34486,2522.07L34303.4,2339.43L34303.1,2339.69C34295.2,2334.33 34284.3,2335.15 34277.3,2342.18L34248.4,2371.05C34241.4,2378.08 34240.6,2388.97 34245.9,2396.91L34245.7,2397.18L34486,2637.55L34486,2889.45L34303.4,2706.82L34303.1,2707.08C34295.2,2701.71 34284.3,2702.54 34277.3,2709.57L34248.4,2738.44C34241.4,2745.47 34240.6,2756.36 34245.9,2764.3L34245.7,2764.56L34486,3004.93L34486,3560.15L34585.5,3560.15L34585.5,3004.93L34825.9,2764.56L34825.6,2764.3C34831,2756.36 34830.2,2745.47 34823.1,2738.44L34794.3,2709.57C34787.2,2702.54 34776.4,2701.71 34768.4,2707.08L34768.2,2706.82L34585.5,2889.45L34585.5,2637.55Z" style="fill:rgb(30,145,206);stroke:rgb(30,145,206);stroke-width:24.11px;"/>
                </g>
                <g transform="matrix(-0.112899,0.244088,-0.195548,-0.140924,43817.5,-3048.59)">
                    <path d="M34585.5,2637.55L34825.9,2397.18L34825.6,2396.91C34831,2388.97 34830.2,2378.08 34823.1,2371.05L34794.3,2342.18C34787.2,2335.15 34776.4,2334.33 34768.4,2339.69L34768.2,2339.43L34585.5,2522.07L34585.5,2277.62C34585.5,2250.17 34574.4,2227.88 34560.7,2227.88L34510.9,2227.88C34497.2,2227.88 34486,2250.17 34486,2277.62L34486,2522.07L34303.4,2339.43L34303.1,2339.69C34295.2,2334.33 34284.3,2335.15 34277.3,2342.18L34248.4,2371.05C34241.4,2378.08 34240.6,2388.97 34245.9,2396.91L34245.7,2397.18L34486,2637.55L34486,2889.45L34303.4,2706.82L34303.1,2707.08C34295.2,2701.71 34284.3,2702.54 34277.3,2709.57L34248.4,2738.44C34241.4,2745.47 34240.6,2756.36 34245.9,2764.3L34245.7,2764.56L34486,3004.93L34486,3560.15L34585.5,3560.15L34585.5,3004.93L34825.9,2764.56L34825.6,2764.3C34831,2756.36 34830.2,2745.47 34823.1,2738.44L34794.3,2709.57C34787.2,2702.54 34776.4,2701.71 34768.4,2707.08L34768.2,2706.82L34585.5,2889.45L34585.5,2637.55Z" style="fill:rgb(30,145,206);stroke:rgb(30,145,206);stroke-width:24.11px;"/>
                </g>
            </g>
        </g>
    </g>
</svg>
