<?xml version="1.0" encoding="UTF-8" standalone="no"?>
<!DOCTYPE svg PUBLIC "-//W3C//DTD SVG 1.1//EN" "http://www.w3.org/Graphics/SVG/1.1/DTD/svg11.dtd">
<svg width="100%" height="100%" viewBox="0 0 4500 4500" version="1.1" xmlns="http://www.w3.org/2000/svg" xmlns:xlink="http://www.w3.org/1999/xlink" xml:space="preserve" xmlns:serif="http://www.serif.com/" style="fill-rule:evenodd;clip-rule:evenodd;stroke-linejoin:round;stroke-miterlimit:2;">
    <g transform="matrix(1,0,0,1,-33969.4,-2334.93)">
        <g id="Frozen-Medication-Bottle" serif:id="Frozen Medication Bottle" transform="matrix(1.47408,0,0,1.18094,-22807.2,-1967.59)">
            <rect x="38516.6" y="3643.3" width="3052.74" height="3810.52" style="fill:none;"/>
            <g id="Bottle">
                <g transform="matrix(16.3452,0,0,20.4025,35228.9,746.364)">
                    <path d="M294.523,320.71C319.793,320.71 340.278,314.062 340.278,305.861C340.278,297.66 319.793,291.012 294.523,291.012C269.253,291.012 248.768,297.66 248.768,305.861C248.768,314.062 269.253,320.71 294.523,320.71Z" style="fill:rgb(253,191,74);fill-rule:nonzero;"/>
                </g>
                <g transform="matrix(16.3452,0,0,20.4025,35228.9,746.364)">
                    <rect x="248.768" y="182.14" width="91.51" height="123.721" style="fill:rgb(253,191,74);fill-rule:nonzero;"/>
                </g>
                <g transform="matrix(16.3452,0,0,20.4025,35228.9,746.364)">
                    <path d="M294.523,201.801C323.887,201.801 347.691,194.075 347.691,184.546C347.691,175.016 323.887,167.291 294.523,167.291C265.159,167.291 241.354,175.016 241.354,184.546C241.354,194.075 265.159,201.801 294.523,201.801Z" style="fill:rgb(30,145,206);fill-rule:nonzero;"/>
                </g>
                <g transform="matrix(16.3452,0,0,20.4025,35228.9,746.364)">
                    <rect x="241.354" y="167.291" width="106.337" height="17.255" style="fill:rgb(30,145,206);fill-rule:nonzero;"/>
                </g>
                <g transform="matrix(16.3452,0,0,20.4025,35228.9,746.364)">
                    <path d="M294.523,184.546C303.134,184.546 311.266,183.882 318.46,182.702C335.8,179.86 347.691,174.026 347.691,167.291C347.691,157.761 323.887,150.035 294.523,150.035C265.159,150.035 241.354,157.761 241.354,167.291C241.354,176.82 265.159,184.546 294.523,184.546Z" style="fill:rgb(0,64,98);fill-rule:nonzero;"/>
                </g>
                <g transform="matrix(16.3452,0,0,20.4025,35228.9,746.364)">
                    <path d="M258.691,254.064C256.206,257.011 254.994,260.823 255.32,264.664C255.647,268.504 257.486,272.057 260.432,274.541L291.928,301.101C293.387,302.331 295.074,303.262 296.893,303.84C298.711,304.419 300.626,304.633 302.528,304.471C304.429,304.31 306.28,303.775 307.975,302.898C309.67,302.021 311.176,300.819 312.406,299.36C313.636,297.901 314.567,296.214 315.145,294.395C315.723,292.577 315.938,290.662 315.776,288.76C315.614,286.859 315.08,285.008 314.202,283.313C313.325,281.618 312.123,280.112 310.664,278.882L279.167,252.323C276.221,249.839 272.408,248.626 268.568,248.953C264.728,249.28 261.175,251.118 258.691,254.064Z" style="fill:rgb(0,64,98);fill-rule:nonzero;"/>
                </g>
                <g transform="matrix(16.3452,0,0,20.4025,35228.9,746.364)">
                    <path d="M294.709,265.429C290.609,267.988 286.789,271.188 283.636,275.212C280.219,279.572 277.888,283.875 276.327,287.945L280.196,291.208C281.609,287.168 283.888,282.77 287.461,278.212C290.538,274.285 294.467,271.216 298.727,268.817L294.709,265.429Z" style="fill:rgb(245,245,245);fill-rule:nonzero;"/>
                </g>
                <g transform="matrix(16.3452,0,0,20.4025,35228.9,746.364)">
                    <path d="M300.344,242.216C297.743,243.636 295.812,246.031 294.976,248.875C294.141,251.718 294.469,254.777 295.889,257.379L311.069,285.19C311.772,286.478 312.722,287.615 313.864,288.536C315.007,289.458 316.32,290.145 317.728,290.558C319.136,290.972 320.612,291.104 322.071,290.948C323.53,290.791 324.944,290.349 326.233,289.646C327.521,288.942 328.658,287.992 329.579,286.85C330.5,285.707 331.187,284.394 331.601,282.986C332.014,281.578 332.147,280.102 331.99,278.643C331.833,277.184 331.391,275.77 330.687,274.482L315.507,246.671C314.087,244.069 311.692,242.138 308.848,241.303C306.005,240.467 302.946,240.796 300.344,242.216Z" style="fill:rgb(0,64,98);fill-rule:nonzero;"/>
                </g>
                <g transform="matrix(16.3452,0,0,20.4025,35228.9,746.364)">
                    <path d="M322.998,260.394C319.346,261.087 315.717,262.316 312.335,264.323C308.672,266.496 305.802,268.932 303.55,271.414L305.414,274.831C307.552,272.328 310.411,269.811 314.241,267.538C317.541,265.581 321.213,264.475 324.934,263.942L322.998,260.394Z" style="fill:rgb(245,245,245);fill-rule:nonzero;"/>
                </g>
            </g>
            <g transform="matrix(0.678388,0,0,0.846782,15472.2,1666.12)">
                <path d="M34938.3,3363.64C34938.3,3363.64 34964.8,3772.15 34998.8,3826.2C35014.8,3851.64 35012.6,3539.44 35046.4,3569.93C35087.8,3607.21 35136.9,4658.85 35190.7,4683.93C35208.1,4692.03 35231.7,3662.86 35248.3,3674.66C35332.7,3734.84 35401.4,3736.25 35405,3765.1C35427.3,3945.4 35485.2,4385.83 35502.6,4385.83C35514.1,4385.83 35521.5,4300.95 35531.4,4191.85C35537,4130.26 35542.7,3902.29 35550.9,3836.19C35552.8,3821.43 35535.7,3837.25 35675,3827.51C35716.4,3824.62 35758.8,4476.79 35804.6,4473.96C35845,4471.46 35888.5,3813.96 35929.7,3811.38C36050.9,3803.8 36292.4,3795.6 36380.1,3785.26C36444.4,3777.68 36512.9,3771.39 36582.4,3765.1C36598.4,3763.65 36705.1,4302.39 36725,4300.48C36753.9,4297.73 36825.8,3740.96 36849.8,3737.91C36902.2,3731.27 36952.6,3723.58 36999.6,3714.23C37053.2,3703.53 37102.3,4883 37144.5,4867C37175.3,4855.31 37222.5,3645.24 37271,3623.15C37305.6,3607.42 37340.9,3589.48 37371.5,3569.93C37392.5,3556.58 37407.1,3752.58 37422,3737.91C37444.6,3715.64 37464.4,3482.38 37475.4,3460.67C37503.1,3405.96 37500.4,3360.31 37500.4,3360.31C37500.4,3360.31 34938.3,3363.64 34938.3,3363.64Z" style="fill:rgb(30,145,206);"/>
            </g>
        </g>
    </g>
</svg>
