<svg width="435" height="318" viewBox="0 0 435 318" fill="none" xmlns="http://www.w3.org/2000/svg">
<g clip-path="url(#clip0_84_169)">
<path d="M217.631 271.894C189.117 271.894 160.882 273.083 134.538 275.394C108.195 277.706 84.2584 281.093 64.0959 285.364C43.9334 289.634 27.9397 294.704 17.0279 300.284C6.11607 305.864 0.499895 311.844 0.5 317.884H434.762C434.762 311.844 429.146 305.864 418.234 300.284C407.322 294.704 391.328 289.634 371.166 285.364C351.003 281.093 327.067 277.706 300.723 275.394C274.38 273.083 246.145 271.894 217.631 271.894Z" fill="#43AA8B"/>
<path d="M241.253 136.414C268.485 136.414 290.561 114.338 290.561 87.1058C290.561 59.8736 268.485 37.7975 241.253 37.7975C214.021 37.7975 191.945 59.8736 191.945 87.1058C191.945 114.338 214.021 136.414 241.253 136.414Z" fill="#FDBF4A"/>
<path d="M178.388 25.0046L188.234 29.2114L188.707 43.3443L188.518 61.4477C188.518 61.4477 204.097 69.2353 205.283 70.3884C206.47 71.5415 219.906 86.7322 221.761 89.874C223.616 93.0158 237.72 133.742 237.102 140.811C236.483 147.88 237.536 146.777 237.536 146.777L244.973 150.286L250.889 153.662L250.571 161.506L250.655 175.286L263.289 177.86L281.086 184.712L282.574 192.265L282.791 197.396L282.941 230.485L299.035 230.752L299.486 292.718L49.6321 292.735L49.5151 230.468L75.8525 229.749L75.6352 187.386L83.874 181.236L107.487 174.885L107.304 166.58L107.755 154.213L113.671 149.718L120.556 146.977L122.427 130.115L125.101 119.771L130.115 103.226L140.259 83.7408L152.659 70.1878L165.226 63.6703L169.554 60.8795L169.604 30.4144L172.729 27.2894L178.388 25.0046Z" fill="#FCF3E3"/>
<path d="M305.652 191.146L282.801 199.635L282.906 222.697L359.196 230.852L350.64 212.336L333.327 195.29L305.652 191.146Z" fill="#F5F5F5"/>
<path d="M257.189 99.5667L366.816 100.101L364.217 136.414L349.704 171.226L323.834 190.277L293.152 186.868L270.892 164.407L258.392 124.166L257.189 99.5667Z" fill="#F5F5F5"/>
<path d="M307.265 193.236L307.147 194.984C306.456 205.245 298.653 214.033 287.421 217.2L284.311 218.077L282.5 222V229L292.5 230L300.5 230.5V253L300 278L327.5 281.5H364L365.5 270.5C364.795 252.986 361.607 236.532 355.5 223.5L351.683 219.857L347.247 219.238C329.074 216.701 320.078 209.831 317.577 196.575L316.948 193.236H312.106H307.265Z" fill="#BC1C1A"/>
<path d="M348.503 161.484L352 161L351 163.5C345.97 172.257 338.182 182.338 330.532 186.204C325.367 188.814 318.551 190.029 309 190L312 170.5L318.526 168.271C328.161 164.478 335.993 162.704 348.503 161.484Z" fill="#BC1C1A"/>
<path d="M275.497 161.484L272 161L273 163.5C278.03 172.257 285.818 182.338 293.468 186.204C298.633 188.814 304.449 189.529 314 189.5L312 170.5L305.474 168.271C295.839 164.478 288.007 162.704 275.497 161.484Z" fill="#BC1C1A"/>
<path d="M283.562 240.236V261.486V282.736H287.062H290.562V261.486V240.236H287.062H283.562Z" fill="#004062"/>
<path d="M261.062 240.236V261.486V282.736H264.562H268.062V261.486V240.236H264.562H261.062Z" fill="#004062"/>
<path d="M238.562 240.236V261.486V282.736H242.062H245.562V261.486V240.236H242.062H238.562Z" fill="#004062"/>
<path d="M216.062 240.236V261.486V282.736H219.562H223.062V261.486V240.236H219.562H216.062Z" fill="#004062"/>
<path d="M193.562 240.236V261.486V282.736H197.062H200.562V261.486V240.236H197.062H193.562Z" fill="#004062"/>
<path d="M171.062 240.236V261.486V282.736H174.562H178.062V261.486V240.236H174.562H171.062Z" fill="#004062"/>
<path d="M148.562 240.236V261.486V282.736H152.062H155.562V261.486V240.236H152.062H148.562Z" fill="#004062"/>
<path d="M126.062 240.236V261.486V282.736H129.562H133.062V261.486V240.236H129.562H126.062Z" fill="#004062"/>
<path d="M103.562 240.236V261.486V282.736H107.062H110.562V261.486V240.236H107.062H103.562Z" fill="#004062"/>
<path d="M81.0615 240.236V261.486V282.736H84.5615H88.0615V261.486V240.236H84.5615H81.0615Z" fill="#004062"/>
<path d="M58.5615 240.236V261.486V282.736H62.0615H65.5615V261.486V240.236H62.0615H58.5615Z" fill="#004062"/>
<path d="M175.589 163.11C175.627 153.459 176.63 150.569 179.647 151.416C181.661 151.981 182.211 154.163 182.453 162.551L182.674 170.237H179.117H175.561L175.589 163.11Z" fill="#1E91CE"/>
<path d="M161.089 163.109C161.127 153.459 162.13 150.569 165.147 151.415C167.161 151.98 167.711 154.162 167.953 162.55L168.174 170.236H164.617H161.061L161.089 163.109Z" fill="#1E91CE"/>
<path d="M146.589 164.099C146.627 154.449 147.63 151.558 150.647 152.405C152.661 152.97 153.211 155.152 153.453 163.54L153.674 171.226H150.117H146.561L146.589 164.099Z" fill="#1E91CE"/>
<path d="M132.089 165.088C132.127 155.438 133.13 152.548 136.147 153.394C138.161 153.959 138.711 156.141 138.953 164.529L139.174 172.215H135.617H132.061L132.089 165.088Z" fill="#1E91CE"/>
<path d="M117.068 166.646C117.106 156.996 118.109 154.105 121.126 154.952C123.14 155.517 123.69 157.699 123.932 166.087L124.153 173.773H120.596H117.04L117.068 166.646Z" fill="#1E91CE"/>
<path d="M190.339 163.544C190.377 153.894 191.38 151.004 194.397 151.85C196.411 152.415 196.961 154.598 197.203 162.985L197.424 170.671H193.867H190.311L190.339 163.544Z" fill="#1E91CE"/>
<path d="M204.638 164.098C204.676 154.447 205.679 151.557 208.697 152.404C210.711 152.969 211.261 155.151 211.502 163.539L211.723 171.224H208.167H204.61L204.638 164.098Z" fill="#1E91CE"/>
<path d="M219.589 165.086C219.627 155.435 220.63 152.545 223.647 153.391C225.661 153.957 226.211 156.139 226.453 164.527L226.674 172.212H223.117H219.561L219.589 165.086Z" fill="#1E91CE"/>
<path d="M234.089 166.694C234.127 157.044 235.13 154.153 238.147 155C240.161 155.565 240.711 157.747 240.953 166.135L241.174 173.821H237.617H234.061L234.089 166.694Z" fill="#1E91CE"/>
<path d="M98.0615 187.415H94.3867V229.908H98.0615V187.415Z" fill="#004062"/>
<path d="M118.736 183.751H115.062V226.244H118.736V183.751Z" fill="#004062"/>
<path d="M139.573 181.802H135.898V219.031H139.573V181.802Z" fill="#004062"/>
<path d="M160.149 180.478H156.474V212.493H160.149V180.478Z" fill="#004062"/>
<path d="M180.725 179.013H177.05V206.759H180.725V179.013Z" fill="#004062"/>
<path d="M201.649 180.951H197.974V212.493H201.649V180.951Z" fill="#004062"/>
<path d="M222.159 181.974H218.484V218.96H222.159V181.974Z" fill="#004062"/>
<path d="M243.112 183.581H239.437V226.145H243.112V183.581Z" fill="#004062"/>
<path d="M263.736 187.147H260.062V229.711H263.736V187.147Z" fill="#004062"/>
<path d="M48.0605 261.821V228.753L60.9355 228.62L73.8105 228.487L73.8852 208.487C73.9262 197.487 73.9825 187.988 74.0102 187.379C74.2098 182.99 84.2876 178.228 100.061 175.069L105.811 173.918L105.947 164.827L106.083 155.737L106.061 154.409L107.457 154.213L109.057 153.793L109.061 155.737V164.554V173.372L111.436 173.045C153.079 167.307 210.266 167.316 246.686 173.068L248.561 173.364V163.826V154.287L246.933 153.046C228.434 138.936 125.821 139.297 110.736 153.525C108.732 155.414 106.061 155.92 106.061 154.409C106.061 152.106 111.584 148.048 117.129 146.277L118.947 145.696L119.29 141.841C122.694 103.625 140.348 71.7214 163.474 61.9952L167.311 60.3816L167.444 44.6841L167.578 28.9865L168.944 28.111C169.696 27.6294 171.053 26.6883 171.96 26.0196C172.866 25.351 173.815 24.7325 174.066 24.6452C174.34 24.5504 174.315 23.0777 174.006 20.9865C172.505 10.8597 176.156 -1.35329 180.059 0.735653C183.077 2.35092 185.261 13.2544 184.116 20.9865C183.806 23.0777 183.781 24.5504 184.055 24.6452C184.307 24.7325 185.255 25.351 186.162 26.0196C187.069 26.6883 188.428 27.6294 189.182 28.111L190.554 28.9865L190.563 44.7365L190.572 60.4865L194.397 61.9561C213.646 69.3528 230.574 95.0893 236.547 126.039C237.407 130.495 239.036 142.84 239.055 145.045C239.058 145.351 240.354 146.08 241.935 146.664C245.997 148.165 249.892 150.516 250.927 152.093L251.81 153.438L252.06 163.677L252.31 173.916L258.81 175.263C273.048 178.214 281.228 181.711 283.31 185.738C283.823 186.729 284.06 188.697 284.06 191.962C284.06 197.455 283.904 197.336 287.736 194.788C289.346 193.718 291.54 192.447 292.611 191.963C295.108 190.838 295.087 190.763 291.788 189.039C270.516 177.924 256.776 148.568 255.22 110.915L254.908 103.344L249.859 103.142C242.059 102.83 238.651 100.164 238.675 94.8639C238.694 90.4287 241.253 87.1058 244.208 87.2365H312.159H380.11C384.762 87.1058 387.349 90.3452 387.195 95.7163C387.011 102.154 378.793 103.23 373.686 103.234L369.561 103.237L369.553 105.362C369.41 144.446 354.974 177.111 332.546 189.096L329.533 190.706L332.172 192.03C353.872 202.919 367.384 231.749 369.353 271.362L369.695 278.237H374.549H379.403L381.607 279.399C387.496 282.506 387.411 289.974 381.695 293.472L379.379 294.889H213.72H48.0605V261.821ZM297.94 261.612L297.811 232.487L280.741 232.355L263.672 232.224L263.345 233.525C263.145 234.324 262.763 234.729 262.359 234.574C261.996 234.435 243.106 228.413 220.382 221.193L179.064 208.064L167.937 211.606C161.818 213.554 143.258 219.449 126.693 224.705C110.128 229.961 96.2748 234.378 95.9071 234.519C95.5209 234.667 94.9944 234.239 94.6603 233.506L94.082 232.237H72.8213H51.5605V261.487V290.737H174.815H298.069L297.94 261.612ZM363.89 270.112C362.308 230.81 345.604 199.958 322.695 194.021C318.585 192.956 305.907 192.94 301.858 193.995C296.675 195.345 288.197 200.294 285.538 203.52L284.382 204.754L284.513 201.695C284.577 200.198 284.237 205.624 284.263 213.737L284.311 228.487L292.936 228.623L301.561 228.76V253.498V278.237H332.889H364.218L363.89 270.112ZM110.225 226.281C117.35 223.975 132.261 219.235 157.811 211.155C163.861 209.242 171.091 206.91 173.877 205.974L178.944 204.271L184.877 206.212C188.141 207.28 195.423 209.612 201.061 211.394C231.154 220.906 239.554 223.575 247.14 226.035L255.469 228.737H268.015H280.561V212.714V196.691L279.304 195.434C260.828 176.958 98.8151 176.913 78.6855 195.379L77.5605 196.411V212.574V228.737H90.0997H102.639L110.225 226.281ZM81.6685 189.338C92.9628 183.97 118.649 179.902 152.061 178.191C164.886 177.534 205.984 177.855 216.311 178.694C250.319 181.454 268.013 184.899 280.186 191.128C281.18 191.637 280.498 187.353 279.425 186.344C260.05 168.143 101.348 167.681 79.4355 185.762L77.5605 187.309V189.315C77.5605 190.417 77.7293 191.233 77.9355 191.127C78.1418 191.021 79.8216 190.216 81.6685 189.338ZM325.95 186.162C348.161 176.816 362.552 148.522 363.995 111.361L364.311 103.235L312.186 103.236L260.061 103.237L260.066 105.362C260.159 145.715 276.665 178.913 300.561 186.811L303.311 187.72L313.061 187.602L322.811 187.483L325.95 186.162ZM134.561 142.226C162.94 137.487 208.31 138.272 232.447 143.919L235.584 144.653L235.292 142.07C230.612 100.632 213.268 71.2163 189.061 63.6575L185.311 62.4865H179.061H172.811L169.061 63.6509C145.101 71.0901 126.704 101.972 122.784 141.33L122.451 144.673L125.631 143.93C127.38 143.52 131.398 142.754 134.561 142.226ZM187.061 45.6351C187.061 28.6584 186.544 27.4865 179.061 27.4865C171.577 27.4865 171.061 28.6584 171.061 45.6351V58.9865H179.061H187.061V45.6351Z" fill="#121212"/>
<path d="M131.893 118.71C130.961 118.752 129.833 120.542 129.045 124.054C128.425 126.823 128.276 132.555 128.784 134.155C130.102 138.31 133.561 130.848 133.561 123.849C133.561 120.372 132.825 118.668 131.893 118.71Z" fill="#43AA8B"/>
<path d="M141.637 116.833C138.907 117.336 137.074 129.022 139.124 132.853C139.862 134.233 140.66 133.74 141.991 131.083C144.208 126.655 143.954 116.406 141.637 116.833Z" fill="#43AA8B"/>
<path d="M214.95 116.726C214.465 116.715 214 117.192 213.61 118.312C212.537 121.389 213.214 128.59 214.883 131.861C215.923 133.896 217.394 133.663 218.034 131.361C219.537 125.949 217.052 116.773 214.95 116.726Z" fill="#43AA8B"/>
<path d="M224.891 118.662C224.406 118.651 223.942 119.128 223.551 120.248C222.479 123.325 223.155 130.526 224.825 133.797C225.864 135.832 227.336 135.599 227.975 133.297C229.478 127.885 226.993 118.709 224.891 118.662Z" fill="#43AA8B"/>
<path d="M151.676 115.866C150.984 115.729 150.202 116.416 149.465 118.073C147.575 122.324 148.047 130.908 150.248 132.337C151.964 133.451 153.794 128.446 153.76 122.736C153.736 118.613 152.83 116.096 151.676 115.866Z" fill="#43AA8B"/>
<path d="M195.08 114.829C194.832 114.788 194.574 114.817 194.307 114.919C191.534 115.983 191.207 126.584 193.825 130.579C195.794 133.584 198.058 130.089 198.059 124.044C198.06 118.795 196.819 115.118 195.08 114.829Z" fill="#43AA8B"/>
<path d="M183.743 114.347C182.724 114.501 181.717 115.892 181.1 118.767C180.204 122.943 180.719 127.609 182.35 130.111C184.48 133.377 187.191 129.239 187.18 122.736C187.171 117.268 185.44 114.09 183.743 114.347Z" fill="#43AA8B"/>
<path d="M161.266 131.391C163.037 131.452 164.601 127.83 164.759 123.3C164.917 118.77 163.609 115.047 161.838 114.986C160.068 114.924 158.504 118.546 158.345 123.076C158.187 127.606 159.495 131.329 161.266 131.391Z" fill="#43AA8B"/>
<path d="M172.305 130.977C174.076 131.039 175.64 127.417 175.798 122.887C175.956 118.356 174.649 114.634 172.878 114.572C171.107 114.51 169.543 118.133 169.385 122.663C169.227 127.193 170.534 130.915 172.305 130.977Z" fill="#43AA8B"/>
<path d="M206.259 131.962C207.655 131.84 208.464 128.056 208.066 123.511C207.668 118.965 206.215 115.379 204.819 115.501C203.424 115.624 202.615 119.407 203.013 123.953C203.41 128.498 204.864 132.084 206.259 131.962Z" fill="#43AA8B"/>
</g>
<defs>
<clipPath id="clip0_84_169">
<rect width="434.262" height="317.384" fill="white" transform="translate(0.5 0.5)"/>
</clipPath>
</defs>
</svg>
