<svg width="650" height="912" viewBox="0 0 650 912" fill="none" xmlns="http://www.w3.org/2000/svg">
<path d="M84.8477 840C84.8477 552 228.848 456 300.848 456H324.848H348.848C420.848 456 564.848 360 564.848 72L84.8477 72C84.8477 360 228.848 456 300.848 456H324.848C325.049 456.141 348.848 456 348.848 456C420.848 456 564.848 552 564.848 840H84.8477Z" fill="#DDDDDD"/>
<path d="M227.059 406.691L202.409 272.451L144.125 283.154L137.648 247.881L296.776 218.66L303.253 253.933L244.97 264.636L269.62 398.875L227.059 406.691ZM343.898 385.236L312.771 215.723L391.928 201.188C405.121 198.765 417.102 197.877 427.869 198.523C438.605 199 447.545 201.905 454.69 207.238C461.984 212.37 466.718 220.856 468.893 232.698C470.322 240.48 469.682 247.68 466.974 254.298C464.447 260.883 460.107 266.752 453.954 271.904C462.945 273.051 470.62 276.188 476.98 281.316C483.52 286.411 487.737 294.118 489.632 304.438C491.962 317.126 490.754 327.84 486.007 336.581C481.441 345.289 473.972 352.432 463.6 358.009C453.197 363.417 440.676 367.465 426.038 370.153L343.898 385.236ZM367.904 274.851L405.586 267.932C412.815 266.604 418.138 264.053 421.554 260.278C425.121 256.3 426.423 251.689 425.46 246.445C424.465 241.031 421.626 237.268 416.941 235.156C412.406 232.841 406.524 232.347 399.295 233.674L361.614 240.594L367.904 274.851ZM380.626 344.128L420.204 336.86C429.421 335.168 435.978 332.215 439.875 328.002C443.922 323.586 445.401 318.418 444.314 312.497C443.227 306.576 440.023 302.355 434.703 299.834C429.563 297.281 422.385 296.85 413.168 298.542L373.589 305.81L380.626 344.128Z" fill="#7F1211"/>
<path d="M312.771 215.724L322.371 206.124L326.366 208.67L323.815 216.96L312.771 215.724Z" fill="#7F1211"/>
<path d="M303.253 253.933L312.853 244.333L301.158 242.522L296.431 247.349L303.253 253.933Z" fill="#7F1211"/>
<path d="M137.648 247.881L147.248 238.281L152.244 244.245L152.154 248.983L139.64 250.413L137.648 247.881Z" fill="#7F1211"/>
<path d="M236.659 397.091L212.009 262.851L153.725 273.554L147.248 238.281L306.376 209.061L312.853 244.333L254.569 255.036L279.219 389.276L236.659 397.091ZM353.498 375.636L322.371 206.124L401.528 191.588C414.721 189.165 426.701 188.277 437.469 188.923C448.205 189.4 457.145 192.305 464.29 197.639C471.584 202.77 476.318 211.256 478.493 223.099C479.922 230.881 479.282 238.081 476.574 244.699C474.047 251.283 469.707 257.152 463.554 262.304C472.545 263.451 480.22 266.588 486.58 271.716C493.12 276.811 497.337 284.518 499.232 294.838C501.562 307.526 500.354 318.24 495.607 326.982C491.041 335.69 483.572 342.832 473.2 348.409C462.797 353.817 450.276 357.865 435.637 360.553L353.498 375.636ZM377.504 265.251L415.185 258.332C422.414 257.005 427.737 254.453 431.154 250.678C434.721 246.701 436.022 242.09 435.059 236.845C434.065 231.432 431.226 227.668 426.541 225.556C422.006 223.241 416.124 222.747 408.895 224.074L371.214 230.994L377.504 265.251ZM390.225 334.528L429.804 327.26C439.021 325.568 445.578 322.615 449.475 318.402C453.521 313.986 455.001 308.818 453.914 302.897C452.827 296.976 449.623 292.755 444.303 290.235C439.163 287.681 431.985 287.25 422.768 288.943L383.189 296.21L390.225 334.528Z" fill="#BC1C1A"/>
<path d="M190.452 388.602C189.51 376.991 200.668 369.655 212.195 372.927C220.708 375.343 229.031 377.669 236.971 380.764C245.229 383.984 253.909 385.851 262.759 386.327C272.992 386.877 281.793 382.081 290.032 376.658C297.786 371.554 307.867 372.213 316.986 373.959C326.232 375.729 335.833 377.815 345.937 376.467C355.283 375.22 359.974 366.825 369.567 363.555C380.359 359.877 391.361 356.68 402.568 354.219C411.175 352.328 419.486 348.913 428.155 347.591C438.03 346.085 458.258 341.601 468.722 340.801C481.495 339.825 494.12 350.956 494.396 357.002C494.712 363.953 487.592 367.68 490.138 371.311C488.046 377.914 484.408 380.555 479.415 386.13C472.711 397.752 420.848 442.922 364.004 452.165C353.48 453.639 342.878 454.314 332.284 455.347C320.072 454.878 258.815 451.463 222.813 429.306C216.333 426.007 209.133 417.059 204.406 409.626C193.546 403.615 190.652 391.063 190.452 388.602Z" fill="#BC1C1A"/>
<path d="M190.452 388.602C191.859 402.305 207.703 394.143 216.891 397.409C226.598 400.86 235.307 405.632 244.805 409.473C253.452 412.971 261.965 417.279 270.114 421.761C279.259 426.791 289.62 431.145 299.923 433.098C308.921 434.804 318.577 438.163 328.133 435.424C336.131 433.131 343.419 430.857 350.856 426.227C359.714 420.713 365.128 411.912 375.769 410.344C385.387 408.928 392.119 401.422 401.557 399.726C417.955 396.779 434.935 396.375 451.464 398.463C463.475 398.076 452.526 412.222 449.07 416.754C442.5 424.129 434.786 430.616 426.507 435.943C417.227 439.741 408.695 445.935 397.79 445.313C389.555 449.113 381.283 452.567 371.956 452.816C362.573 454.321 353.596 458.653 343.924 457.36C324.946 456.528 306.035 461.049 287.087 458.182C276.285 458.652 266.535 455.02 258.731 447.956C248.133 445.46 238.069 440.586 230.145 433.098C221.877 430.276 216.712 422.231 209.625 418.328C203.929 413.227 198.006 406.254 190.586 402.223C185.283 397.808 181.882 392.291 190.452 388.602Z" fill="#7F1211"/>
<path d="M339.248 493.263C339.436 515.923 343.863 529.199 366.04 541.274C382.413 550.189 387.387 563.51 399.838 579.529C410.206 592.868 441.554 610.182 457.596 613.795C473.86 617.459 513.972 647.676 522.832 662.479C530.857 675.886 537.361 689.978 543.57 703.954C547.744 713.349 548.934 714.591 549.291 718.255C560.513 734.803 556.582 753.647 556.641 771.751C556.718 794.893 566.243 819.339 556.63 841.926C549.173 859.446 533.778 871.879 516.384 878.189C495.508 880.854 474.269 879.823 453.238 880.454C424.818 879.649 396.153 881.589 368.108 875.929C354.463 873.261 289.393 873.861 280 871.5C279.999 731.5 314.001 595.558 314 455.558H339.248V493.263Z" fill="#BC1C1A"/>
<path d="M309.26 493.263C307.049 519.463 304.129 529.199 281.952 541.274C265.579 550.189 260.605 563.51 248.154 579.529C237.787 592.868 206.439 610.182 190.397 613.795C174.133 617.459 134.02 647.676 125.16 662.479C117.135 675.886 110.632 689.978 104.423 703.954C100.248 713.349 99.0589 714.591 98.7019 718.255C87.4792 734.803 91.4108 753.647 91.351 771.751C91.2747 794.893 81.7491 819.339 91.3624 841.926C98.8194 859.446 114.214 871.879 131.608 878.189C152.484 880.854 173.723 879.823 194.755 880.454C223.174 879.65 251.84 881.589 279.884 875.929C293.53 873.261 356.107 878.289 365.5 875.929C365.501 735.929 334.999 596 335 456H312.848L309.26 493.263Z" fill="#BC1C1A"/>
<path d="M38.959 3.77503e-08C33.8427 -0.000216469 28.7766 0.930854 24.0497 2.74004C19.3229 4.54923 15.028 7.20111 11.4103 10.5442C7.79256 13.8874 4.92288 17.8563 2.9651 22.2243C1.00731 26.5924 -0.000237 31.274 4.18163e-08 36.0019C0.000627755 45.5497 4.10556 54.7062 11.4118 61.4571C18.718 68.2081 28.627 72.0004 38.959 72H610.736C621.068 71.9994 630.975 68.2066 638.281 61.4558C645.586 54.7049 649.69 45.549 649.691 36.0019C649.692 26.4542 645.588 17.2973 638.282 10.5456C630.977 3.79394 621.068 0.000581744 610.736 3.77503e-08H38.959Z" fill="#121212"/>
<path d="M312.848 456L309.26 493.262C307.048 519.462 304.13 529.199 281.953 541.273C265.58 550.188 260.605 563.51 248.154 579.529C237.787 592.868 206.438 610.181 190.396 613.795C174.133 617.458 134.02 647.675 125.16 662.478C117.135 675.886 110.631 689.978 104.422 703.953C100.248 713.349 99.058 714.592 98.7011 718.256C98.5724 718.446 98.5015 718.644 98.3769 718.834C97.8656 724.311 97.5369 729.858 97.2714 735.418C94.4584 741.787 92.4452 748.4 90.8593 755.127C91.0412 760.681 91.3696 766.25 91.3515 771.752C91.2751 794.893 81.7499 819.339 91.3632 841.926C92.5959 844.822 94.1161 847.525 95.7558 850.139C120.304 843.941 143.658 854.135 168.162 853.604C190.203 861.573 213.931 863.496 237.428 866.277C284.306 864.085 330.782 872.578 377.613 872.23C405.076 868.152 432.535 874.244 460.074 873.553C484.377 870.872 510.327 875.605 533.988 869.084C543.754 862.303 551.841 853.18 556.631 841.926C566.244 819.339 556.717 794.893 556.642 771.752C556.582 753.648 560.515 734.804 549.292 718.256C548.936 714.592 547.746 713.349 543.572 703.953C541.382 699.024 540.664 684.086 538.347 679.163C535.227 707.355 510.334 695.614 497.718 713.965C485.841 731.242 472.553 745.062 456.009 755.381C437.284 767.061 418.335 777.628 396.779 782.902C376.856 787.777 357.57 795.036 336.826 795.484C313.587 795.987 290.145 801.302 267.021 798.311C244.869 795.445 225.232 780.222 207.919 765.99C190.705 751.84 172.36 738.639 157.191 722.205C142.761 706.572 134.799 680.167 149.474 661.049C162.892 643.568 181.984 640.94 198.814 630.301C216.642 619.031 242.362 618.805 253.115 597.9C260.721 583.113 271.025 564.992 286.769 556.646C302.316 548.406 316.206 533.078 318.97 514.105C321.81 494.606 314.702 473.269 324.848 456H323.144H312.848Z" fill="#7D1311"/>
<path d="M38.9589 840C33.8427 840 28.7766 840.931 24.0497 842.74C19.3229 844.549 15.028 847.201 11.4103 850.544C7.79258 853.887 4.92289 857.856 2.9651 862.224C1.00731 866.592 -0.000232544 871.274 4.02586e-08 876.002C0.000615063 885.55 4.10553 894.706 11.4117 901.457C18.7179 908.208 28.627 912 38.9589 912H610.736C621.068 911.999 630.975 908.207 638.281 901.456C645.586 894.705 649.69 885.549 649.691 876.002C649.692 866.454 645.588 857.297 638.282 850.546C630.977 843.794 621.068 840.001 610.736 840H38.9589Z" fill="#121212"/>
<path d="M84.8477 72C84.8477 360 228.848 456 300.848 456M300.848 456H324.848M300.848 456C228.848 456 84.8477 552 84.8477 840M324.848 456C325.049 456.141 348.848 456 348.848 456M324.848 456H348.848M348.848 456C420.848 456 564.848 552 564.848 840M348.848 456C420.848 456 564.848 360 564.848 72" stroke="#121212" stroke-width="24" stroke-linecap="square"/>
<path d="M309.24 507.925C310.283 497.099 310.448 456 310.448 456L303.728 441.6H345.968L339.248 456V468.558C339.248 468.558 330.136 472.315 325.662 477.811C321.188 483.307 321.346 504.597 309.24 507.925Z" fill="#7D1311"/>
<path d="M500.917 100.877C480.82 98.446 477.737 117.055 475.297 141.328C475.297 141.328 474.198 199.083 458.362 237.968C442.526 276.852 397.999 359.939 397.999 359.939C397.999 359.939 449.05 311.702 477.935 261.819C506.821 211.936 510.143 177.281 514.206 151.708C517.725 129.556 521.014 103.308 500.917 100.877Z" fill="white" fill-opacity="0.5"/>
<path d="M500.917 811.062C480.82 813.493 477.737 794.884 475.297 770.611C475.297 770.611 474.198 712.855 458.362 673.971C442.526 635.087 397.999 552 397.999 552C397.999 552 449.05 600.237 477.935 650.12C506.821 700.003 510.143 734.658 514.206 760.231C517.725 782.383 521.014 808.631 500.917 811.062Z" fill="white" fill-opacity="0.5"/>
</svg>
