<?xml version="1.0" encoding="UTF-8"?>
<svg width="199px" height="85px" viewBox="0 0 199 85" version="1.1" xmlns="http://www.w3.org/2000/svg" xmlns:xlink="http://www.w3.org/1999/xlink">
    <!-- Generator: Sketch 46.2 (44496) - http://www.bohemiancoding.com/sketch -->
    <title>msf-logo</title>
    <desc>Created with Sketch.</desc>
    <defs></defs>
    <g id="Symbols-Desktop" stroke="none" stroke-width="1" fill="none" fill-rule="evenodd">
        <g id="Header" transform="translate(-82.000000, -73.000000)" fill-rule="nonzero">
            <g id="msf-logo">
                <g transform="translate(82.000000, 73.000000)">
                    <path d="M73.6544887,25.7669965 L74.4144596,25.8684414 L74.2371331,27.5930041 L70.4879433,27.5930041 L70.9692582,25.8684414 L71.5012378,25.7669965 L72.1092145,25.00616 L78.1129847,14.4558937 L80.6462211,14.4558937 L83.1794575,25.00616 L83.4074488,25.7669965 L83.9394284,25.8684414 L83.6861048,27.5930041 L78.5942997,27.5930041 L79.0249498,25.8684414 L79.8862502,25.7669965 L79.4809324,23.9663501 L74.6424509,23.9663501 L73.6544887,25.7669965 Z M79.1009469,22.1149813 L78.1383171,17.9303804 L75.7317425,22.1149813 L79.1009469,22.1149813 Z" id="Shape" fill="#EE0000"></path>
                    <path d="M97.9735579,17.6006846 L96.2509572,17.4992398 L96.3269543,16.5862359 C95.5669834,16.1804565 94.7310154,15.9775667 93.869715,15.9775667 C90.6778372,15.9775667 89.0818982,20.1368063 89.0818982,22.8250953 C89.0818982,24.8539927 90.1205252,25.9952475 92.197779,25.9952475 C93.6163914,25.9952475 95.2376626,25.589468 96.5549456,25.1076049 L96.1749601,27.0857798 C94.5283565,27.6183654 92.8310881,27.9480612 91.1084873,27.9480612 C87.7646153,27.9480612 85.3833731,26.4771106 85.3833731,22.8758178 C85.3833731,20.5172246 86.4979971,18.4122436 88.1446008,16.7891257 C89.9178663,15.0138405 91.7164641,14.253004 94.2497005,14.253004 C95.7189776,14.253004 97.1882546,14.4051713 98.606867,14.7855895 L97.9735579,17.6006846 Z" id="Shape" fill="#EE0000"></path>
                    <path d="M111.425043,17.6006846 L109.702442,17.4992398 L109.778439,16.5862359 C109.018469,16.1804565 108.182501,15.9775667 107.3212,15.9775667 C104.129322,15.9775667 102.533383,20.1368063 102.533383,22.8250953 C102.533383,24.8539927 103.57201,25.9952475 105.649264,25.9952475 C107.067877,25.9952475 108.689148,25.589468 110.006431,25.1076049 L109.626445,27.0857798 C107.979842,27.6183654 106.282573,27.9480612 104.559973,27.9480612 C101.2161,27.9480612 98.8348583,26.4771106 98.8348583,22.8758178 C98.8348583,20.5172246 99.9494823,18.4122436 101.596086,16.7891257 C103.369351,15.0138405 105.167949,14.253004 107.701186,14.253004 C109.170463,14.253004 110.63974,14.4051713 112.058352,14.7855895 L111.425043,17.6006846 Z" id="Shape" fill="#EE0000"></path>
                    <polygon id="Shape" fill="#EE0000" points="111.982355 25.8684414 112.742326 25.7669965 112.99565 25.00616 114.515591 17.1441827 114.591589 16.3833462 113.831618 16.2819013 114.084941 14.5573386 124.015228 14.5573386 123.356586 17.2709888 121.633986 17.1695439 121.659318 16.3833462 120.595359 16.2819013 118.163452 16.2819013 117.454146 19.8831942 121.861977 19.8831942 121.405994 21.734563 119.43007 21.6331181 117.124825 21.6331181 116.466183 25.00616 116.415519 25.7669965 119.227411 25.7669965 120.316703 25.5387456 120.544694 24.9807988 122.292627 24.8793539 121.861977 27.5930041 111.50104 27.5930041"></polygon>
                    <path d="M124.420546,24.5496581 L126.143146,24.651103 L126.041817,25.8684414 C126.649794,26.0206087 127.308435,26.1981372 127.941744,26.1981372 C128.980371,26.1981372 130.04433,25.6148292 130.04433,24.4482132 C130.04433,23.256236 129.005704,22.5968444 128.119071,21.9881752 C126.801788,21.1005326 125.53517,20.1621675 125.53517,18.4376048 C125.53517,17.1695439 126.244476,16.002928 127.232438,15.2674527 C128.296397,14.4812549 129.512351,14.2276428 130.829634,14.2276428 C132.121584,14.2276428 133.413535,14.4812549 134.680153,14.836312 L134.072176,17.3724337 L132.349576,17.2709888 L132.40024,16.4087074 C131.868261,16.129734 131.234952,15.9522055 130.652307,15.9522055 C129.765674,15.9522055 128.828377,16.4847911 128.828377,17.4738785 C128.828377,18.3615211 129.867004,18.9448291 130.474981,19.4266923 C131.842928,20.4411409 133.692191,21.6077569 133.692191,23.5605706 C133.692191,24.9554376 132.653564,26.2995821 131.513608,27.0096962 C130.297654,27.7451714 128.803045,27.9227 127.384432,27.9227 C126.168479,27.9227 124.901861,27.7705327 123.71124,27.4915593 L124.420546,24.5496581 Z" id="Shape" fill="#EE0000"></path>
                    <path d="M135.490789,24.5496581 L137.213389,24.651103 L137.11206,25.8684414 C137.720037,26.0206087 138.378678,26.1981372 139.011987,26.1981372 C140.050614,26.1981372 141.114573,25.6148292 141.114573,24.4482132 C141.114573,23.256236 140.075946,22.5968444 139.189314,21.9881752 C137.872031,21.1005326 136.605413,20.1621675 136.605413,18.4376048 C136.605413,17.1695439 137.314719,16.002928 138.302681,15.2674527 C139.36664,14.4812549 140.582594,14.2276428 141.899877,14.2276428 C143.191827,14.2276428 144.483778,14.4812549 145.750396,14.836312 L145.142419,17.3724337 L143.419819,17.2709888 L143.470483,16.4087074 C142.938504,16.129734 142.305194,15.9522055 141.72255,15.9522055 C140.835917,15.9522055 139.89862,16.4847911 139.89862,17.4738785 C139.89862,18.3615211 140.937247,18.9448291 141.545224,19.4266923 C142.913171,20.4411409 144.762434,21.6077569 144.762434,23.5605706 C144.762434,24.9554376 143.723807,26.2995821 142.583851,27.0096962 C141.367897,27.7451714 139.873288,27.9227 138.454675,27.9227 C137.238722,27.9227 135.997436,27.7705327 134.781482,27.4915593 L135.490789,24.5496581 Z" id="Shape" fill="#EE0000"></path>
                    <path d="M117.428813,33.8572248 L116.136863,33.7811411 L116.060866,33.0203046 C115.452889,32.7413312 114.743583,32.5891639 114.084941,32.5891639 C111.93169,32.5891639 111.425043,34.4405327 111.425043,36.2411792 C111.425043,38.5236887 112.235679,40.0707229 114.71825,40.0707229 C115.655548,40.0707229 116.719507,39.8678332 117.580807,39.4874149 L117.580807,41.0344492 C116.440851,41.364145 115.275562,41.5163123 114.110274,41.5163123 C112.742326,41.5163123 111.298381,41.2373389 110.234422,40.2989739 C109.119798,39.3352476 108.663815,37.8389358 108.663815,36.3933465 C108.663815,34.9984795 109.119798,33.5021677 110.158425,32.5130802 C111.273049,31.4986316 112.742326,31.2450194 114.211603,31.2450194 C115.326227,31.2450194 116.440851,31.3464643 117.530143,31.6000764 L117.428813,33.8572248 Z" id="Shape" fill="#000000"></path>
                    <path d="M120.772685,39.8931944 L121.431327,39.9692781 L121.507324,41.2627001 L118.796761,41.2627001 L118.872758,39.9692781 L119.278076,39.8931944 L119.632729,39.1577191 L122.697945,31.4225479 L124.952525,31.4225479 L128.2204,39.5381374 L128.397727,39.8678332 L128.803045,39.9439168 L128.879042,41.2373389 L124.977858,41.2373389 L125.053855,39.9439168 L125.712496,39.8678332 L125.180517,38.5236887 L121.279333,38.5236887 L120.772685,39.8931944 Z M124.648537,37.1795442 L123.255257,33.654335 L121.861977,37.1795442 L124.648537,37.1795442 Z" id="Shape" fill="#000000"></path>
                    <polygon id="Shape" fill="#000000" points="132.552234 34.8970347 132.526902 34.9223959 132.526902 39.3352476 132.602899 39.8931944 133.008217 39.9692781 133.084214 41.2627001 129.993666 41.2627001 130.069663 39.9692781 130.626975 39.8931944 130.702972 39.3352476 130.702972 33.4768065 130.626975 32.9188597 130.069663 32.8427761 129.993666 31.549354 133.337538 31.549354 136.022768 37.2556278 138.707999 31.549354 141.671885 31.549354 141.595888 32.8427761 141.038576 32.9188597 140.962579 33.4768065 140.962579 39.3352476 141.038576 39.8931944 141.595888 39.9692781 141.671885 41.2627001 138.049357 41.2627001 138.125354 39.9692781 138.530672 39.8931944 138.606669 39.1577191 138.606669 34.820951 138.581337 34.820951 136.200095 39.8931944 134.85748 39.8931944"></polygon>
                    <path d="M146.257043,37.3317115 L146.257043,39.3352476 L146.33304,39.8931944 L147.067679,39.9692781 L147.143676,41.2627001 L143.090498,41.2627001 L143.166495,39.9692781 L143.723807,39.8931944 L143.799804,39.3352476 L143.799804,33.4768065 L143.723807,32.9188597 L143.166495,32.8427761 L143.090498,31.549354 L148.182303,31.549354 C148.916941,31.549354 149.626248,31.6000764 150.18356,32.0565783 C150.816869,32.5891639 151.070192,33.299278 151.070192,34.0854757 C151.070192,35.1506468 150.639542,36.1143731 149.752909,36.7484035 C148.840944,37.3570727 147.751653,37.3570727 146.713026,37.3570727 L146.257043,37.3570727 L146.257043,37.3317115 Z M146.43437,36.0382894 C146.991682,36.0382894 147.523661,35.987567 147.954312,35.5817875 C148.308965,35.2267305 148.460959,34.6687837 148.460959,34.1869206 C148.460959,33.2231943 147.954312,32.8427761 147.042347,32.8427761 C146.763691,32.8427761 146.510367,32.8681373 146.257043,32.9188597 L146.257043,36.0382894 L146.43437,36.0382894 Z" id="Shape" fill="#000000"></path>
                    <path d="M153.020784,39.8931944 L153.679426,39.9692781 L153.755423,41.2627001 L151.070192,41.2627001 L151.146189,39.9692781 L151.551507,39.8931944 L151.90616,39.1577191 L154.971376,31.4225479 L157.225957,31.4225479 L160.493832,39.5381374 L160.671158,39.8678332 L161.076476,39.9439168 L161.152473,41.2373389 L157.251289,41.2373389 L157.327286,39.9439168 L157.985928,39.8678332 L157.453948,38.5236887 L153.552764,38.5236887 L153.020784,39.8931944 Z M156.896636,37.1795442 L155.503356,33.654335 L154.110076,37.1795442 L156.896636,37.1795442 Z" id="Shape" fill="#000000"></path>
                    <polygon id="Shape" fill="#000000" points="165.585637 39.3352476 165.661634 39.8931944 166.218946 39.9692781 166.294943 41.2627001 162.241765 41.2627001 162.317762 39.9692781 162.875074 39.8931944 162.951071 39.3352476 162.951071 33.4768065 162.875074 32.9188597 162.317762 32.8427761 162.241765 31.549354 166.294943 31.549354 166.218946 32.8427761 165.661634 32.9188597 165.585637 33.4768065"></polygon>
                    <path d="M173.590664,38.5997723 L173.514667,38.0418256 L172.957355,37.9657419 L172.881358,36.6723198 L176.934536,36.6723198 L176.858539,37.9657419 L176.301227,38.0418256 L176.22523,38.5997723 L176.22523,41.1612553 C174.983944,41.3387838 173.86932,41.5416735 172.729363,41.5416735 C169.537486,41.5416735 167.434899,39.6649435 167.434899,36.4187077 C167.434899,35.0238407 167.890882,33.5275289 168.929509,32.5384415 C170.0188,31.5239928 171.51341,31.2703806 172.982687,31.2703806 C174.097311,31.2703806 175.211935,31.3718255 176.301227,31.6254377 L176.22523,33.8318635 L174.933279,33.7557799 L174.857282,32.9949434 C174.249305,32.71597 173.539999,32.5638027 172.881358,32.5638027 C170.677442,32.5638027 170.221459,34.4912552 170.221459,36.2919016 C170.221459,38.1432704 170.753439,40.197529 173.008019,40.197529 C173.210678,40.197529 173.413337,40.1721678 173.615996,40.1214454 L173.615996,38.5997723 L173.590664,38.5997723 Z" id="Shape" fill="#000000"></path>
                    <polygon id="Shape" fill="#000000" points="178.859795 33.4768065 178.783798 32.9188597 178.226486 32.8427761 178.150489 31.549354 180.759723 31.549354 185.218219 37.4585176 185.218219 33.4768065 185.142222 32.9188597 184.58491 32.8427761 184.508913 31.549354 187.70079 31.549354 187.624793 32.8427761 187.067481 32.9188597 186.991484 33.4768065 186.991484 41.364145 185.192886 41.364145 180.658393 35.4296202 180.658393 39.3352476 180.73439 39.8931944 181.291702 39.9692781 181.367699 41.2627001 178.125157 41.2627001 178.201154 39.9692781 178.758466 39.8931944 178.834463 39.3352476 178.834463 33.4768065"></polygon>
                    <polygon id="Shape" fill="#000000" points="54.6298835 67.5876434 53.7939155 70.8846016 53.7685832 70.8846016 52.9832799 67.5876434 51.4126733 67.5876434 50.0953904 72.685248 51.2860115 72.685248 52.0966472 69.413651 52.1219795 69.413651 52.9579475 72.685248 54.5032217 72.685248 55.8205046 67.5876434"></polygon>
                    <path d="M47.8408101,67.5876434 C46.726186,69.286845 45.6368944,71.0114077 44.496938,72.685248 L45.9662151,72.685248 L46.8528479,71.2142975 L48.4234544,71.2142975 L48.4994515,72.685248 L49.9180639,72.685248 C49.7407373,70.9860465 49.5380784,69.2614837 49.436749,67.5876434 L47.8408101,67.5876434 Z M47.4354922,70.1491263 L48.322125,68.6781758 L48.3474573,68.6781758 L48.4234544,70.1491263 L47.4354922,70.1491263 Z" id="Shape" fill="#000000"></path>
                    <path d="M57.4671083,68.9571491 C57.5431054,68.6781758 57.9230908,68.6020921 58.1257497,68.6020921 C58.5310676,68.6020921 58.7590588,68.703537 59.0123825,68.8557043 C59.0123825,68.8557043 59.2657061,67.8412556 59.2657061,67.7905332 C58.8603883,67.5622822 58.4044057,67.4861986 58.0497526,67.4861986 C56.8591315,67.4861986 56.2258225,68.1963126 56.124493,68.8049818 C55.8965017,69.996959 57.3151141,70.6563507 57.1631199,71.1889362 C57.0617905,71.5947157 56.6564726,71.6200769 56.4538137,71.6200769 C56.0738283,71.6200769 55.7191752,71.4932708 55.4151868,71.3157423 L55.1365308,72.5077195 C55.5165163,72.6345256 56.0484959,72.7613317 56.5044785,72.7613317 C57.8977585,72.7613317 58.3284086,72.1273013 58.4804028,71.4425484 C58.7337265,70.2505712 57.3151141,69.6165408 57.4671083,68.9571491" id="Shape" fill="#000000"></path>
                    <path d="M43.8636289,68.9571491 C43.939626,68.6781758 44.3196115,68.6020921 44.5222704,68.6020921 C44.9275882,68.6020921 45.1555795,68.703537 45.4089031,68.8557043 C45.4089031,68.8557043 45.7382239,67.891978 45.7382239,67.8412556 C45.3075737,67.5622822 44.8009264,67.5115598 44.4462733,67.5115598 C43.2556522,67.5115598 42.6223431,68.2216738 42.5210137,68.8303431 C42.2930224,70.0223203 43.7116348,70.6817119 43.5596406,71.2142975 C43.4583111,71.6200769 43.0529933,71.6454381 42.8503344,71.6454381 C42.4703489,71.6454381 42.1156958,71.5186321 41.8117075,71.3411035 L41.5330515,72.5330807 C41.9130369,72.6598868 42.4450166,72.7866929 42.9009991,72.7866929 C44.2942791,72.7866929 44.7502617,72.1526625 44.8769235,71.4679096 C45.1302471,70.2505712 43.7116348,69.6165408 43.8636289,68.9571491" id="Shape" fill="#000000"></path>
                    <polygon id="Shape" fill="#000000" points="78.3663084 70.8846016 78.340976 70.8846016 77.5556727 67.5876434 75.9597338 67.5876434 74.6677833 72.685248 75.8584044 72.685248 76.66904 69.413651 76.6943724 69.413651 77.505008 72.685248 79.0756146 72.685248 80.3675651 67.5876434 79.2022764 67.5876434"></polygon>
                    <polygon id="Shape" fill="#000000" points="63.4202138 68.6781758 65.3454734 68.6781758 65.6241294 67.5876434 62.3562545 67.5876434 61.0389716 72.685248 62.3815868 72.685248 62.9135665 70.6563507 64.5348378 70.6563507 64.8134938 69.5658183 63.1922225 69.5658183"></polygon>
                    <polygon id="Shape" fill="#000000" points="84.6234022 67.5876434 80.84888 67.5876434 80.570224 68.6781758 81.7861775 68.6781758 80.7728829 72.6598868 82.1154982 72.6598868 83.1287928 68.6781758 84.3447462 68.6781758"></polygon>
                    <polygon id="Shape" fill="#000000" points="85.1047171 67.5876434 83.8127666 72.685248 85.1553819 72.685248 86.4473324 67.5876434"></polygon>
                    <polygon id="Shape" fill="#000000" points="89.4872161 70.6563507 89.7658721 69.5658183 88.0686037 69.5658183 88.296595 68.6781758 90.4245135 68.6781758 90.7031695 67.5876434 87.2326357 67.5876434 85.9406851 72.685248 89.411219 72.685248 89.689875 71.5693545 87.5619564 71.5693545 87.7899477 70.6563507"></polygon>
                    <polygon id="Shape" fill="#000000" points="98.0748874 70.6563507 98.3535434 69.5658183 96.6309426 69.5658183 96.8589339 68.6781758 98.9615201 68.6781758 99.2401761 67.5876434 95.7949746 67.5876434 94.5030241 72.685248 97.9482256 72.685248 98.2268816 71.5693545 96.1242954 71.5693545 96.3522866 70.6563507"></polygon>
                    <path d="M72.9198502,67.5115598 C71.3999083,67.5115598 70.1332902,68.4499248 69.70264,70.1491263 C69.2719898,71.8483279 70.0572931,72.7866929 71.5772349,72.7866929 C72.9958473,72.7866929 74.2877978,71.9497727 74.7691127,70.3012936 C75.27576,68.5006472 74.439792,67.5115598 72.9198502,67.5115598 M73.4771622,70.1237651 C73.2491709,70.9353241 72.6411942,71.6454381 71.8812233,71.6454381 C71.0705876,71.6454381 70.8679287,70.9099629 71.0705876,70.1237651 C71.2732465,69.3375674 71.8558909,68.6020921 72.6665265,68.6020921 C73.4264974,68.6274533 73.6544887,69.3122062 73.4771622,70.1237651" id="Shape" fill="#000000"></path>
                    <path d="M100.861447,68.9571491 C100.937444,68.703537 101.31743,68.6020921 101.520089,68.6020921 C101.925407,68.6020921 102.153398,68.703537 102.406722,68.8557043 C102.406722,68.8557043 102.660045,67.8412556 102.660045,67.7905332 C102.254727,67.5622822 101.773412,67.4861986 101.444092,67.4861986 C100.253471,67.4861986 99.6201616,68.1963126 99.5188321,68.8049818 C99.2908408,69.996959 100.709453,70.6563507 100.557459,71.1889362 C100.430797,71.5947157 100.050812,71.6200769 99.8228205,71.6200769 C99.442835,71.6200769 99.0881819,71.4932708 98.7841936,71.3157423 L98.5055376,72.5077195 C98.885523,72.6345256 99.4175027,72.7613317 99.8734852,72.7613317 C101.266765,72.7613317 101.722748,72.1273013 101.84941,71.4425484 C102.102733,70.2505712 100.658788,69.5911796 100.861447,68.9571491" id="Shape" fill="#000000"></path>
                    <path d="M68.2840276,70.4280997 C68.9680014,70.3012936 69.4999811,69.6926244 69.6266429,69.1346777 C69.8799665,68.120229 69.6013105,67.5876434 68.4613541,67.5876434 L66.1814414,67.5876434 L64.8894909,72.685248 L66.1814414,72.685248 L67.2200683,68.6528145 L67.8787098,68.6528145 C68.0813687,68.6528145 68.4866865,68.6528145 68.3600247,69.1854001 C68.2586952,69.5911796 67.9547069,69.8447917 67.3467301,69.8447917 L67.3213978,69.8447917 L66.8654152,69.8447917 L67.3213978,72.6598868 L68.7653425,72.6598868 C68.7653425,72.685248 68.30936,70.5549058 68.2840276,70.4280997" id="Shape" fill="#000000"></path>
                    <path d="M93.4643972,70.4280997 C94.148371,70.3012936 94.6803506,69.6926244 94.8070125,69.1346777 C95.0603361,68.120229 94.7563477,67.5876434 93.6417237,67.5876434 L91.361811,67.5876434 L90.0698604,72.685248 L91.361811,72.685248 L92.3751055,68.6528145 L93.033747,68.6528145 C93.2364059,68.6528145 93.6417237,68.6528145 93.5150619,69.1854001 C93.4137324,69.5911796 93.1097441,69.8447917 92.5017674,69.8447917 L92.476435,69.8447917 L92.0457848,69.8447917 L92.5017674,72.6598868 L93.9457121,72.6598868 C93.9457121,72.685248 93.4897295,70.5549058 93.4643972,70.4280997" id="Shape" fill="#000000"></path>
                    <polygon id="Shape" fill="#000000" points="65.9281178 66.1166928 66.2067738 65.0261605 64.0788552 65.0261605 64.3068465 64.0877955 66.0547796 64.0877955 66.3334356 62.9972631 64.5855025 62.9972631 64.8134938 62.1096205 66.9414123 62.1096205 67.2200683 61.0190882 63.7495345 61.0190882 62.4575839 66.1166928"></polygon>
                    <polygon id="Shape" fill="#000000" points="56.960461 66.1166928 57.2137846 65.0261605 55.1111985 65.0261605 55.3391897 64.0877955 57.0617905 64.0877955 57.3404465 62.9972631 55.6178457 62.9972631 55.845837 62.1096205 57.9737556 62.1096205 58.2524116 61.0190882 54.7818777 61.0190882 53.4899272 66.1166928"></polygon>
                    <path d="M68.8160072,66.1927765 C69.0693309,66.1927765 69.7279723,66.1166928 70.1079578,66.0406092 L70.4372785,64.8739932 C70.0319607,64.9754381 69.6266429,65.0768829 69.0946632,65.0768829 C68.2586952,65.0768829 68.0560363,64.3414076 68.2586952,63.5552099 C68.4360218,62.870457 69.0439985,62.0335369 70.1079578,62.0335369 C70.4626109,62.0335369 70.7665993,62.1349818 71.0705876,62.2364266 L71.3492436,61.0951719 C71.0452553,60.9683658 70.538608,60.9176433 70.1586225,60.9176433 C68.6386807,60.9176433 67.3467301,61.8560084 66.91608,63.5552099 C66.4854298,65.2544115 67.2960654,66.1927765 68.8160072,66.1927765" id="Shape" fill="#000000"></path>
                    <polygon id="Shape" fill="#000000" points="72.1092145 66.1166928 73.4264974 61.0190882 72.0838822 61.0190882 70.7665993 66.1166928"></polygon>
                    <polygon id="Shape" fill="#000000" points="49.5634108 62.4646776 49.5887432 62.4646776 49.5127461 66.1166928 50.6527024 66.1166928 52.4513003 62.4646776 52.4766326 62.4646776 51.5393352 66.1166928 52.6792915 66.1166928 53.9712421 61.0190882 52.1979766 61.0190882 50.6020377 64.2146016 50.6020377 64.2146016 50.6780348 61.0190882 48.8034399 61.0190882 47.5114893 66.1166928 48.6261133 66.1166928"></polygon>
                    <polygon id="Shape" fill="#000000" points="74.0851389 66.1166928 74.9211069 62.8450958 74.9464393 62.8450958 75.7570749 66.1166928 77.3276815 66.1166928 78.619632 61.0190882 77.4543433 61.0190882 76.5930429 64.3414076 76.5930429 64.3414076 75.8077396 61.0190882 74.2371331 61.0190882 72.9198502 66.1166928"></polygon>
                    <path d="M62.6095781,63.5552099 C63.1668901,61.3995065 62.0016014,61.0190882 61.3682923,61.0190882 L58.9617177,61.0190882 L57.6697672,66.1166928 L59.7976857,66.1166928 C61.2416305,66.1166928 62.2295927,65.0261605 62.6095781,63.5552099 M61.2669628,63.5552099 C61.0643039,64.2906852 60.5323243,65.0007993 59.7976857,65.0007993 L59.2150414,65.0007993 L59.9496799,62.0842593 L60.6083214,62.0842593 C61.3429599,62.1096205 61.4949541,62.6168449 61.2669628,63.5552099" id="Shape" fill="#000000"></path>
                    <path d="M80.291568,62.3885939 C80.3675651,62.1096205 80.7475506,62.0335369 80.9502095,62.0081757 C81.3555273,62.0081757 81.5835186,62.1096205 81.8368422,62.2617878 C81.8368422,62.2617878 82.0901659,61.2473392 82.0901659,61.1966167 C81.684848,60.9683658 81.2288655,60.9176433 80.8742124,60.9176433 C79.6835913,60.9176433 79.0502822,61.6277574 78.9489527,62.2364266 C78.7209615,63.4284038 80.1395738,64.0877955 79.9875797,64.620381 C79.8862502,65.0261605 79.4809324,65.0515217 79.2782735,65.0515217 C78.898288,65.0515217 78.5436349,64.9247156 78.2396466,64.7471871 L77.9609906,65.9391643 C78.340976,66.0659704 78.898288,66.1927765 79.3289382,66.1927765 C80.7222182,66.1927765 81.1528684,65.5587461 81.3048626,64.8739932 C81.5328538,63.682016 80.1142415,63.0733468 80.291568,62.3885939" id="Shape" fill="#000000"></path>
                    <path d="M28.5882136,68.9317879 C28.9681991,68.703537 29.8041671,68.2723963 29.9054965,68.1963126 C30.0574907,68.0948678 30.1588202,68.120229 30.1588202,68.1709514 C30.1841525,68.3484799 30.1841525,68.7542594 30.4121438,68.8303431 C30.4881409,68.8557043 30.6654674,68.7796206 30.6907998,68.8303431 C30.7667969,68.9571491 30.7921292,68.9317879 30.8174616,68.9825104 C30.842794,69.0332328 30.9694558,69.0078716 30.9947882,69.0332328 C31.0707852,69.0839552 30.9947882,69.1600389 31.0201205,69.2107613 C31.0961176,69.286845 31.1974471,69.1600389 31.2481118,69.1854001 C31.3494412,69.2107613 31.3747736,69.3375674 31.3747736,69.413651 C31.3494412,69.5404571 31.4254383,69.641902 31.6280972,69.4643735 C31.7294267,69.3629286 31.7547591,69.413651 31.8307562,69.3629286 C31.8814209,69.3375674 31.9827503,69.3375674 32.0080827,69.3629286 C32.0587474,69.413651 32.1094122,69.4643735 32.1600769,69.4897347 C32.236074,69.5150959 32.3374034,69.4897347 32.3880682,69.5150959 C32.4640653,69.5404571 32.4640653,69.6672632 32.5400623,69.6926244 C32.6160594,69.6926244 32.6920565,69.5658183 32.7173889,69.6165408 C32.8440507,69.7433469 32.6160594,69.9462366 32.7680536,69.9715978 C32.8440507,69.996959 32.8947154,69.9208754 32.9707125,69.9208754 C33.0467096,69.9208754 33.072042,69.8194305 33.1480391,69.8194305 C33.1987038,69.8194305 33.2493685,69.8955142 33.3253656,69.8447917 C33.3760303,69.8194305 33.4266951,69.7940693 33.5026922,69.7433469 C33.5786893,69.6926244 33.6800187,69.7179856 33.7306834,69.6926244 C33.7813482,69.641902 33.7560158,69.5150959 33.90801,69.5404571 C34.0853365,69.5658183 33.8826776,69.7433469 33.9586747,69.7940693 C34.0093394,69.8447917 34.1613336,69.7940693 34.2119984,69.7687081 C34.3133278,69.7433469 34.3893249,69.6165408 34.4399896,69.5404571 C34.4906544,69.4390123 34.6173162,69.1093164 34.6933133,69.0332328 C34.743978,68.9317879 34.8959722,68.6020921 34.9719693,68.475286 C35.0479664,68.3484799 35.3772871,67.8412556 35.4026194,67.7651719 C35.4279518,67.6890883 35.5546136,67.5622822 35.579946,67.5115598 C35.6052784,67.4608373 35.6812754,67.2579476 35.7572725,67.0804191 C35.8332696,66.9282518 36.0612609,66.598556 36.0865933,66.5478335 C36.1119256,66.4971111 36.2639198,66.0913316 36.3399169,65.9898867 C36.3905816,65.8630807 36.6185729,65.5841073 36.6692376,65.4573012 C36.7199024,65.3304951 36.8465642,65.0515217 36.8465642,65.0515217 L36.9985584,64.7979095 C36.9985584,64.7979095 37.0492231,64.6964647 37.1252202,64.5442974 C37.2012173,64.3921301 37.4038762,64.0877955 37.4545409,63.9609894 C37.5052056,63.8595445 37.6825322,63.6312936 37.6825322,63.6312936 L37.809194,63.326959 L37.9105235,63.098708 C37.9105235,63.098708 37.9865206,62.8450958 38.0371853,62.7690122 C38.08785,62.6929285 38.2145118,62.5407612 38.2651766,62.4393164 C38.3158413,62.3378715 38.4171707,61.9574532 38.4931678,61.8306471 C38.5438326,61.7038411 38.8478209,61.1966167 38.8731533,61.0951719 C38.8984856,60.993727 39.202474,60.4611414 39.2278064,60.3596966 C39.2531387,60.2582517 39.2784711,60.1060844 39.3038035,60.0300007 C39.3544682,59.9539171 39.4557976,59.7763886 39.48113,59.7256661 C39.5064624,59.6749437 39.7091213,59.1930806 39.7344537,59.1169969 C39.759786,59.0409133 39.7851184,58.9141072 39.8611155,58.9141072 C39.9371126,58.9141072 39.9877773,58.9901908 40.0637744,59.0662745 C40.1144391,59.1423581 40.2411009,59.1423581 40.317098,59.1930806 C40.3930951,59.2691642 40.6210864,59.5227764 40.6210864,59.5481376 C40.6210864,59.59886 40.7477482,59.59886 40.7984129,59.6495825 C40.8237453,59.7003049 40.8490777,59.8017498 40.8997424,59.8017498 C40.9504071,59.827111 41.1277337,59.9539171 41.1783984,60.0300007 C41.2290631,60.0807232 41.2543955,60.2075293 41.3303926,60.2582517 C41.3810573,60.3089741 41.6090486,60.4357802 41.6343809,60.4865026 C41.6597133,60.5372251 41.989034,60.9430046 42.0396988,61.0190882 C42.0903635,61.0951719 42.1156958,61.2219779 42.1410282,61.2473392 C42.1663606,61.2980616 42.2930224,61.3741452 42.2930224,61.4248677 C42.2930224,61.4755901 42.3183548,61.6531186 42.3436871,61.7038411 C42.3690195,61.7545635 42.5210137,61.8052859 42.5210137,61.8560084 C42.546346,61.9067308 42.5970108,62.0842593 42.6223431,62.1349818 C42.6476755,62.160343 42.7236726,62.2110654 42.7236726,62.2364266 C42.7490049,62.2871491 42.7743373,62.4900388 42.7996697,62.5407612 C42.825002,62.5914837 42.9263315,62.743651 42.9516638,62.8197346 C42.9769962,62.8958183 43.0783257,63.0226244 43.103658,63.0733468 C43.1289904,63.1240692 43.1289904,63.326959 43.1543228,63.3776814 C43.1796551,63.453765 43.2556522,63.6059323 43.2809846,63.6312936 C43.2809846,63.6566548 43.3063169,63.7834609 43.3063169,63.7834609 L43.382314,63.9609894 C43.382314,63.9609894 43.4836435,64.1385179 43.4836435,64.2146016 C43.4836435,64.2906852 43.5089759,64.3667689 43.5089759,64.4174913 C43.5089759,64.4682137 43.6103053,64.5950198 43.6103053,64.6457422 C43.6103053,64.6964647 43.7116348,64.9247156 43.7116348,64.9247156 C43.7116348,64.9247156 43.6863024,65.1276054 43.7116348,65.1783278 C43.7369671,65.2290502 43.8129642,65.3558563 43.8129642,65.4065788 C43.8129642,65.4573012 43.7876319,65.5841073 43.7876319,65.5841073 L43.8382966,65.6601909 C43.8382966,65.6601909 43.8129642,65.7616358 43.8382966,65.8123582 C43.8636289,65.8630807 43.8129642,65.9391643 43.8382966,65.9645255 C43.8636289,65.9898867 43.939626,66.2181377 43.939626,66.2181377 C43.8889613,66.2942213 39.7344537,68.2216738 37.9358558,69.0332328 C35.3772871,70.22521 30.0321583,72.913499 29.4748463,73.2431948 C28.9175343,73.5728906 28.5375489,73.7504192 28.4108871,73.6996967 C28.1068987,73.5475294 27.574919,73.0910275 27.220266,72.1019401 C26.9162776,71.2650199 26.9162776,70.6056282 26.94161,70.2505712 C26.9669423,69.996959 26.94161,69.7940693 27.3469278,69.5658183 C27.498922,69.5658183 28.2335605,69.1346777 28.5882136,68.9317879" id="Shape" fill="#EE0000"></path>
                    <path d="M21.2164957,54.1969208 C21.2418281,54.2476433 21.3178252,54.222282 21.3938223,54.2476433 C21.4191547,54.2476433 21.4951517,54.3237269 21.5458165,54.3237269 C21.5964812,54.3237269 21.6471459,54.2983657 21.6724783,54.3237269 C21.7484754,54.3744493 21.723143,54.450533 21.7738077,54.5012554 C21.8244725,54.5519779 21.8244725,54.6534227 21.9004696,54.6787839 C21.9511343,54.7041452 22.0524637,54.6787839 22.0524637,54.7548676 C22.0777961,54.80559 22.0271314,54.9070349 22.0777961,54.9831185 C22.1791256,55.1860083 22.1031285,55.7185938 22.2044579,55.7693163 C22.3057874,55.7946775 22.6097758,55.7185938 22.7111052,55.617149 C22.8124347,55.5157041 22.9644288,55.3635368 23.0404259,55.3128144 C23.1924201,55.2367307 23.4964085,55.0845634 23.6484027,55.0592022 C23.8003968,55.033841 23.8763939,54.7802288 24.0030558,54.7802288 C24.1550499,54.7548676 24.1043852,54.6534227 24.1803823,54.6280615 C24.2817118,54.5773391 24.4590383,54.4758942 24.5350354,54.5519779 C24.5603678,54.5773391 24.6110325,54.6534227 24.7123619,54.6787839 C24.8136914,54.7295064 24.9403532,54.6787839 24.9656856,54.7802288 C24.9910179,54.9577573 25.2696739,54.80559 25.2696739,54.80559 C25.2696739,54.80559 25.5989947,54.5773391 25.7509889,54.5266166 C25.8776507,54.4758942 26.2576361,54.2730045 26.2576361,54.2730045 C26.2576361,54.2730045 26.5362921,54.1208372 26.662954,54.0701147 C31.1467823,51.9144113 34.6933133,50.7224341 37.9358558,49.4543732 C43.0023286,47.5015595 51.7419941,45.2444112 53.4139301,44.8386317 C53.5912566,44.7879093 53.9712421,44.7371869 54.0219068,44.7118256 C54.0725715,44.6864644 54.1485686,44.6611032 54.173901,44.5089359 C54.2245657,44.3567686 54.0979039,44.1285177 54.0979039,44.052434 C54.0979039,43.9763504 54.2752304,43.6466545 54.3005628,43.5198484 C54.3258952,43.3930424 54.173901,43.3676811 54.173901,43.3676811 C54.173901,43.3676811 54.1992334,43.1901526 54.1485686,43.0633465 C54.1232363,42.9365405 53.895245,42.8350956 53.8445803,42.7336507 C53.7939155,42.6322058 53.8445803,42.3278712 53.7939155,42.2264264 C53.7432508,42.1249815 53.6419214,42.0488979 53.6419214,42.0488979 C53.6419214,42.0488979 53.6672537,41.9981754 53.6419214,41.9220918 C53.616589,41.8460081 53.5152595,41.8460081 53.5152595,41.8460081 C53.5152595,41.8460081 53.5405919,41.6431184 53.5405919,41.5923959 C53.5152595,41.5163123 53.4139301,41.4655899 53.4139301,41.4655899 C53.4139301,41.4655899 53.2872683,41.3895062 53.2872683,41.3134226 C53.2872683,41.2373389 53.2619359,41.1866165 53.2112712,41.135894 C53.1606064,41.0851716 52.9832799,41.0851716 52.9072828,41.0851716 C52.8566181,41.0598104 52.7046239,41.0344492 52.6032944,41.0344492 C52.501965,41.0598104 52.4513003,41.135894 52.1726443,41.1866165 C51.8939883,41.2373389 51.7673264,41.1866165 51.665997,41.2119777 C51.5393352,41.2373389 51.4126733,41.3134226 51.2606792,41.3387838 C49.9180639,41.6938408 43.6863024,43.4944872 39.1011446,45.21905 C34.8453074,46.8168067 29.7788347,49.1246774 26.662954,50.7477953 C24.3323765,51.9651337 23.0657583,52.6752478 22.559111,53.0049436 C22.280455,53.1571109 22.001799,53.3600007 21.9511343,53.4360843 C21.8751372,53.5628904 21.7991401,53.7404189 21.6471459,53.7657801 C21.4698194,53.7911413 21.4951517,53.8925862 21.4191547,53.9179474 C21.3431576,53.9433086 21.2671605,54.0193923 21.2164957,54.0701147 C21.165831,54.0701147 21.1911634,54.1461984 21.2164957,54.1969208" id="Shape" fill="#EE0000"></path>
                    <path d="M40.5450893,51.4071869 C40.3424304,51.2803809 40.4184275,51.178936 40.6464187,51.0521299 C42.1410282,50.4180995 45.8648857,49.073955 48.0181366,48.3892021 C49.8420668,47.8058941 54.9085395,46.157415 56.3271519,45.7516355 C56.6564726,45.6501907 56.8084668,45.6501907 56.960461,45.8277192 C57.3404465,46.2334987 57.7204319,46.7914454 58.075085,47.4508371 C58.4044057,48.0848675 58.6830617,48.9978713 58.7843912,49.5558181 C58.8603883,49.9615976 58.6830617,50.0376812 58.4550705,50.1391261 C56.8844639,50.8492402 53.0339446,52.5484417 51.4126733,53.283917 C49.8420668,54.0193923 46.9795097,55.4142592 45.9915475,55.8961224 C45.5862297,56.0990121 45.6622268,56.1750957 45.3582384,55.8707611 C45.2822413,55.7693163 45.1302471,55.5410653 45.1049148,55.4903429 C45.05425,55.4396205 44.5222704,54.9577573 44.4716057,54.8816737 C44.4209409,54.8309512 44.1169526,54.450533 44.0409555,54.3998106 C43.9649584,54.3490881 43.7116348,53.9940311 43.6103053,53.9433086 C43.5343082,53.8925862 43.4076464,53.8418638 43.3316493,53.7657801 C43.2809846,53.7150577 43.1796551,53.5882516 43.103658,53.5375292 C43.0529933,53.4868067 42.9009991,53.3600007 42.9009991,53.3600007 L42.7236726,53.1824721 L42.5716784,53.0049436 C42.5716784,53.0049436 42.4450166,52.8274151 42.3436871,52.7766927 C42.2423577,52.7259702 42.1156958,52.5738029 42.0650311,52.5230805 C42.0143664,52.4723581 41.710378,52.0665786 41.5330515,51.9651337 C41.3810573,51.8636889 41.0010718,51.6100767 40.8997424,51.5593542 C40.8237453,51.5847155 40.7224158,51.5086318 40.5450893,51.4071869" id="Shape" fill="#EE0000"></path>
                    <path d="M46.2448711,56.8852098 C46.092877,56.7330425 46.2955359,56.7076813 46.4728624,56.6315977 C47.1315039,56.3779855 51.0326879,55.1606471 54.4272246,54.2730045 C57.796429,53.3853619 62.7109076,52.3709132 63.4202138,52.2187459 C63.7242021,52.1680235 63.8508639,52.1933847 64.0028581,52.4469968 C64.1801847,52.7259702 64.5601701,53.7150577 64.686832,54.4758942 C64.8641585,55.4649817 64.686832,56.4794304 64.6108349,56.7076813 C64.5348378,56.910571 64.2561818,56.9359323 63.5975403,57.0880996 C63.1922225,57.1895444 61.5202865,57.6206851 60.8109803,57.8235749 C60.025677,58.0518258 57.8977585,58.660495 57.1377876,58.9394684 C56.1751577,59.2691642 54.9085395,59.6749437 54.9085395,59.6749437 L48.1954631,59.7763886 C48.1954631,59.7763886 48.0941337,59.3198867 48.043469,59.2691642 C47.9928042,59.2184418 47.8914748,59.0155521 47.8154777,58.9394684 C47.764813,58.888746 47.6634835,58.660495 47.6634835,58.660495 C47.6634835,58.660495 47.6128188,58.4322441 47.5368217,58.3815216 C47.486157,58.3307992 47.3341628,58.0011034 47.283498,57.9503809 C47.2328333,57.8996585 47.0808391,57.72213 47.0301744,57.6460463 C46.9795097,57.5699627 46.928845,57.4685178 46.8275155,57.3924342 C46.726186,57.3163505 46.5995242,57.1641832 46.5235271,57.1134608 C46.4728624,57.138822 46.4221977,57.0373771 46.2448711,56.8852098" id="Shape" fill="#EE0000"></path>
                    <path d="M38.1385147,43.9256279 C37.9358558,43.9256279 37.7838616,43.9256279 37.7331969,43.8749055 C37.7078645,43.8495443 37.7331969,43.7988218 37.6825322,43.7480994 C37.6318675,43.697377 37.530538,43.7227382 37.5052056,43.7480994 C37.4798733,43.7734606 37.4798733,43.7734606 37.4038762,43.7988218 C37.3278791,43.824183 37.0745555,43.7227382 36.9985584,43.7734606 C36.8972289,43.7988218 36.7199024,43.7988218 36.6439053,43.7734606 C36.5679082,43.7480994 36.5679082,43.5705709 36.4665787,43.5198484 C36.415914,43.4944872 36.2132551,43.3930424 36.1625904,43.2915975 C36.1119256,43.1901526 35.9345991,43.0379853 35.9092667,42.9619017 C35.8839344,42.885818 35.8332696,42.7590119 35.8079373,42.7082895 C35.7826049,42.6575671 35.7319402,42.530761 35.6812754,42.4800385 C35.6559431,42.4293161 35.6052784,42.4039549 35.5546136,42.3532325 C35.5039489,42.30251 35.4786165,42.1757039 35.4532842,42.0996203 C35.4279518,42.0742591 35.3772871,41.9981754 35.3772871,41.947453 C35.3519547,41.8967306 35.3519547,41.8460081 35.3266224,41.7952857 C35.30129,41.7445633 35.2252929,41.6684796 35.2252929,41.6177572 C35.1999605,41.5670347 35.1999605,41.2119777 35.1999605,40.9583655 C35.1999605,40.6793921 35.1999605,40.4511412 35.2252929,40.3243351 C35.2506253,40.2228902 35.30129,40.1214454 35.3266224,39.9946393 C35.3519547,39.8931944 35.4786165,39.5127762 35.5292813,39.3352476 C35.5546136,39.1577191 35.6559431,38.8533845 35.7066078,38.7265784 C35.7572725,38.6251336 35.858602,38.320799 35.9345991,38.2193541 C35.9852638,38.1179092 36.2132551,37.7882134 36.3145845,37.6867685 C36.3905816,37.5853237 36.8212318,37.154183 36.9225613,37.0780993 C37.0238907,37.0020157 37.251882,36.8498484 37.3278791,36.7991259 C37.3785438,36.7737647 37.6571998,36.570875 37.7585293,36.5201525 C37.8345264,36.4694301 37.9358558,36.4694301 37.9358558,36.4694301 L38.0371853,36.3679852 C38.0371853,36.3679852 38.08785,36.3172628 38.1385147,36.2665404 C38.1891795,36.2411792 38.3158413,36.2411792 38.3158413,36.2411792 C38.3158413,36.2411792 38.4678355,36.1397343 38.6198296,36.1650955 C38.6958267,36.1904567 38.7211591,36.0636506 38.7971562,36.0382894 C38.8478209,36.0129282 39.0758122,35.987567 39.1011446,36.0129282 C39.1264769,36.0382894 39.1771416,36.0890119 39.2784711,36.1143731 C39.4051329,36.1397343 39.5064624,36.1143731 39.5571271,36.1143731 C39.6077918,36.1397343 39.6837889,36.2158179 39.7344537,36.2158179 C39.7851184,36.2411792 40.317098,36.7230423 40.3930951,36.8498484 C40.4184275,36.9005708 40.4184275,36.9766544 40.4437598,37.0020157 C40.4690922,37.0527381 40.5704217,37.1034605 40.595754,37.2556278 C40.6210864,37.3570727 40.7224158,37.4077951 40.7477482,37.5599624 C40.7477482,37.6614073 40.9250747,37.737491 40.9757395,37.9403807 C40.9757395,37.9911031 41.0010718,38.1686316 41.0264042,38.1939929 C41.0517366,38.2193541 41.0770689,38.2447153 41.1024013,38.2954377 C41.1277337,38.3715214 41.1277337,38.447605 41.1277337,38.5490499 C41.1277337,38.6251336 41.2797278,38.9294682 41.2543955,39.1323579 C41.2290631,39.3098864 41.2037307,39.5127762 41.153066,39.6649435 C41.1024013,39.8171108 41.1277337,40.0707229 41.1024013,40.197529 C41.0770689,40.2989739 41.0010718,40.5779473 40.9757395,40.6540309 C40.9504071,40.7301146 40.7224158,41.3134226 40.6970835,41.364145 C40.6464187,41.4148674 40.5197569,41.6684796 40.4690922,41.7445633 C40.4184275,41.8206469 39.9371126,42.4546773 39.8611155,42.530761 C39.7851184,42.6068446 39.5824595,42.7590119 39.5317947,42.8350956 C39.48113,42.9111792 39.4304653,43.0126241 39.3798006,43.114069 C39.2784711,43.2662363 39.1518093,43.1394302 39.1011446,43.2662363 C39.0251475,43.4184036 38.8478209,43.4437648 38.8224886,43.5198484 C38.7718238,43.6466545 38.6704944,43.7480994 38.6198296,43.7988218 C38.4931678,43.8495443 38.2398442,43.9002667 38.1385147,43.9256279" id="Shape" fill="#EE0000"></path>
                    <path d="M24.7123619,63.6059323 C24.7123619,63.6059323 22.7364376,64.265324 21.9511343,64.5442974 C21.2164957,64.7979095 20.4058601,65.1022441 19.8485481,65.3304951 C19.1899066,65.6094685 17.9992855,66.0913316 17.7206295,66.1674153 C17.2899794,66.3195826 17.0873205,66.2181377 16.985991,65.9645255 C16.8593292,65.7109134 16.5806732,65.1529666 16.428679,64.5189362 C16.2766848,63.8849057 16.2006877,63.3523202 16.2006877,63.1494304 C16.2006877,62.9465407 16.3526819,62.5914837 16.5806732,62.4646776 C16.8339968,62.3378715 17.3913088,61.9828145 17.8472914,61.7292023 C18.7339241,61.2219779 21.7484754,59.6242213 23.5470732,58.6858562 C25.4470005,57.6967688 28.4615518,56.2511794 30.0574907,55.4396205 C31.678762,54.6534227 34.3133278,53.3853619 34.6426485,53.2585558 C34.9719693,53.1063885 35.30129,52.9542212 35.4532842,52.9542212 C35.6052784,52.9542212 35.5546136,53.0303048 35.5546136,53.0810273 C35.5546136,53.1317497 35.5039489,53.1571109 35.4786165,53.283917 C35.4532842,53.4107231 35.4786165,53.5375292 35.4279518,53.6643353 C35.4026194,53.7911413 35.2759576,53.8925862 35.2759576,53.9686699 C35.2506253,54.0447535 35.2506253,54.3237269 35.1492958,54.4251718 C35.0732987,54.5266166 34.7946427,55.0845634 34.7186456,55.3381756 C34.6679809,55.5917878 34.5159867,56.0229284 34.465322,56.1243733 C34.4146573,56.2258182 34.2119984,56.6062364 34.186666,56.7076813 C34.1613336,56.8344874 34.0346718,57.1134608 34.0093394,57.2402669 C33.9586747,57.367073 33.7306834,57.7982136 33.6800187,57.8742973 C33.629354,57.9503809 33.4773598,58.4829665 33.4520274,58.5590502 C33.4013627,58.6351338 33.2493685,58.8633848 33.2493685,58.8633848 L33.1733714,59.1930806 C33.1733714,59.1930806 32.9453802,59.5227764 32.9453802,59.5734988 C32.9453802,59.6242213 32.793386,60.182168 32.7173889,60.2836129 C32.6413918,60.410419 32.2614063,61.2473392 32.1854093,61.5516738 C32.1094122,61.8560084 31.957418,62.2871491 31.9320856,62.3885939 C31.8814209,62.4900388 31.678762,62.8450958 31.6280972,62.9719019 C31.5774325,63.098708 31.400106,63.682016 31.3494412,63.8088221 C31.2987765,63.9356282 31.12145,64.265324 31.12145,64.3921301 C31.12145,64.5189362 30.9947882,64.7725483 30.8934587,65.0007993 C30.7921292,65.2290502 30.6654674,65.6094685 30.6148027,65.7362746 C30.564138,65.8630807 30.4628085,65.9645255 30.4628085,66.0659704 C30.4374762,66.142054 30.4374762,66.370305 30.4121438,66.4210274 C30.3868114,66.4717499 30.3614791,66.5731947 30.3614791,66.5731947 C30.2601496,66.6239172 24.8896885,68.9317879 24.1550499,69.286845 C23.395079,69.641902 17.9486208,72.2287461 17.6193001,72.3809134 C17.2899794,72.5330807 16.8339968,72.8881378 16.5046761,72.6598868 C16.0740259,72.3809134 15.6687081,71.746883 15.3900521,71.2142975 C15.1620608,70.7577955 14.9087372,69.996959 14.8834048,69.4643735 C14.8327401,68.7796206 15.1367284,68.6528145 16.1246906,68.0695065 C16.6060055,67.7905332 20.5325219,65.7109134 21.7991401,65.0768829 C22.1537932,64.9754381 24.7123619,63.6059323 24.7123619,63.6059323" id="Shape" fill="#EE0000"></path>
                    <path d="M198.213721,35.049202 L197.757739,35.0238407 C196.845774,41.364145 195.807147,45.2444112 193.349907,51.6607991 C192.108622,55.4903429 185.268883,65.786997 176.630547,71.7976054 C167.257573,78.9748299 148.79028,81.916731 112.919653,81.916731 L112.337008,81.916731 C104.737299,81.9420923 100.45613,82.3478717 94.8070125,83.0072634 L94.8070125,83.4637653 C100.481462,84.0977957 104.762631,84.5289364 112.337008,84.5542976 C116.162195,84.6050201 119.582064,84.6303813 122.773942,84.6303813 C122.773942,84.6303813 122.773942,84.6303813 122.773942,84.6303813 C153.40077,84.6303813 165.914958,82.3985942 178.581139,74.7395066 C187.903449,68.2723963 194.591193,56.4794304 195.807147,52.6498866 C198.492377,45.574107 198.720369,40.9837267 198.213721,35.049202 Z" id="Shape" fill="#000000"></path>
                    <path d="M86.067347,0.0760836511 C82.3434895,0.025361217 79.0249498,0 75.9090691,0 C45.1049148,0 32.51473,2.2317871 19.8485481,9.91623586 C10.5262382,16.3833462 3.83849421,28.1763121 2.62254075,32.0058559 C-0.0626898105,39.0816355 -0.290681084,43.6466545 0.215966191,49.6065405 L0.671948738,49.6319018 C1.58391383,43.2915975 2.59720838,39.4113313 5.05444767,32.9949434 C6.29573349,29.1653996 13.1354717,18.8687455 21.7738077,12.858137 C31.1721147,5.6555514 49.715405,2.71365022 85.7633586,2.71365022 L86.067347,2.71365022 C93.6670561,2.68828901 97.9482256,2.25714832 103.597343,1.62311789 L103.597343,1.14125477 C97.9482256,0.507224341 93.6670561,0.0760836511 86.067347,0.0760836511 Z" id="Shape" fill="#000000"></path>
                </g>
            </g>
        </g>
    </g>
</svg>
