<svg width="384" height="512" viewBox="0 0 384 512" fill="none" xmlns="http://www.w3.org/2000/svg">
<g clip-path="url(#clip0_26_417)">
<path d="M64 0C28.7 0 0 28.7 0 64V448C0 483.3 28.7 512 64 512H320C355.3 512 384 483.3 384 448V160H256C238.3 160 224 145.7 224 128V0H64ZM256 0V128H384L256 0ZM112 256H272C280.8 256 288 263.2 288 272C288 280.8 280.8 288 272 288H112C103.2 288 96 280.8 96 272C96 263.2 103.2 256 112 256ZM112 320H272C280.8 320 288 327.2 288 336C288 344.8 280.8 352 272 352H112C103.2 352 96 344.8 96 336C96 327.2 103.2 320 112 320ZM112 384H272C280.8 384 288 391.2 288 400C288 408.8 280.8 416 272 416H112C103.2 416 96 408.8 96 400C96 391.2 103.2 384 112 384Z" fill="#D7211E"/>
<path d="M72.3492 144.104L72.5584 141.713C73.3819 135.361 74.8313 130.268 76.9066 126.434C79.1148 122.612 82.2005 119.469 86.1637 117.005C90.1384 114.408 95.17 111.971 101.258 109.693C107.757 107.317 112.609 105.399 115.815 103.94C119.033 102.347 120.787 99.8908 121.078 96.5702C121.368 93.2495 119.68 90.3581 116.014 87.8959C112.481 85.4453 107.527 83.9411 101.151 83.3833C95.3067 82.872 89.9613 83.542 85.1148 85.3933C80.4012 87.2562 76.9602 90.6358 74.7919 95.5322L48.3677 83.1822C52.9003 74.2097 60.0969 67.6788 69.9575 63.5893C79.8181 59.4998 91.3233 58.0303 104.473 59.1807C113.24 59.9477 121.364 61.93 128.847 65.1277C136.342 68.1926 142.26 72.4579 146.6 77.9236C151.084 83.2682 152.984 89.8588 152.298 97.6955C151.531 106.462 148.476 113.088 143.131 117.572C137.931 121.936 131.666 125.47 124.335 128.174C118.114 130.441 113.305 132.63 109.908 134.742C106.511 136.854 104.344 140.211 103.406 144.814L103.032 146.789L72.3492 144.104ZM83.4449 196.27C78.1319 195.805 73.7179 193.478 70.203 189.289C66.8208 185.112 65.3622 180.366 65.827 175.053C66.3035 169.608 68.5639 165.188 72.6085 161.794C76.7858 158.412 81.531 156.953 86.844 157.418C92.2899 157.895 96.7097 160.155 100.103 164.2C103.497 168.244 104.956 172.989 104.479 178.435C104.015 183.748 101.754 188.168 97.6979 191.694C93.6418 195.221 88.8908 196.746 83.4449 196.27Z" fill="#D9D9D9"/>
</g>
<defs>
<clipPath id="clip0_26_417">
<rect width="384" height="512" fill="white"/>
</clipPath>
</defs>
</svg>
