<svg width="384" height="512" viewBox="0 0 384 512" fill="none" xmlns="http://www.w3.org/2000/svg">
<g clip-path="url(#clip0_26_417)">
<path d="M64 0C28.7 0 0 28.7 0 64V448C0 483.3 28.7 512 64 512H320C355.3 512 384 483.3 384 448V160H256C238.3 160 224 145.7 224 128V0H64ZM256 0V128H384L256 0ZM112 256H272C280.8 256 288 263.2 288 272C288 280.8 280.8 288 272 288H112C103.2 288 96 280.8 96 272C96 263.2 103.2 256 112 256ZM112 320H272C280.8 320 288 327.2 288 336C288 344.8 280.8 352 272 352H112C103.2 352 96 344.8 96 336C96 327.2 103.2 320 112 320ZM112 384H272C280.8 384 288 391.2 288 400C288 408.8 280.8 416 272 416H112C103.2 416 96 408.8 96 400C96 391.2 103.2 384 112 384Z" fill="#D7211E"/>
<path d="M250.587 250.196L251.162 248.772C252.855 245.038 254.695 242.192 256.682 240.234C258.749 238.308 261.226 236.962 264.112 236.195C267.031 235.35 270.566 234.799 274.719 234.544C279.141 234.306 282.469 234.04 284.705 233.747C286.972 233.375 288.505 232.199 289.304 230.221C290.104 228.243 289.612 226.158 287.829 223.965C286.125 221.804 283.374 219.956 279.576 218.422C276.095 217.015 272.698 216.425 269.385 216.652C266.152 216.91 263.414 218.334 261.17 220.925L247.309 208.422C251.762 203.779 257.388 201.128 264.189 200.47C270.989 199.813 278.305 201.066 286.138 204.231C291.36 206.341 295.962 209.074 299.943 212.431C303.957 215.71 306.781 219.427 308.414 223.585C310.159 227.695 310.088 232.084 308.202 236.752C306.092 241.974 302.982 245.457 298.872 247.202C294.873 248.9 290.377 249.89 285.385 250.174C281.153 250.397 277.8 250.837 275.326 251.494C272.852 252.151 270.897 253.8 269.461 256.441L268.863 257.58L250.587 250.196ZM247.616 284.199C244.452 282.921 242.186 280.671 240.818 277.449C239.53 274.26 239.525 271.082 240.804 267.918C242.114 264.674 244.325 262.392 247.435 261.071C250.625 259.783 253.802 259.778 256.967 261.057C260.211 262.367 262.493 264.578 263.813 267.688C265.133 270.799 265.138 273.976 263.827 277.22C262.549 280.385 260.338 282.667 257.196 284.066C254.053 285.466 250.86 285.51 247.616 284.199Z" fill="#1E91CE"/>
<path d="M250.587 250.196L251.162 248.772C252.855 245.038 254.695 242.192 256.682 240.234C258.749 238.308 261.226 236.962 264.112 236.195C267.031 235.35 270.566 234.799 274.719 234.544C279.141 234.306 282.47 234.04 284.705 233.747C286.972 233.375 288.505 232.199 289.305 230.221C290.104 228.243 289.612 226.158 287.829 223.965C286.125 221.804 283.374 219.956 279.576 218.422C276.095 217.015 272.698 216.425 269.385 216.652C266.152 216.91 263.414 218.334 261.17 220.925L247.309 208.422C251.762 203.779 257.388 201.128 264.189 200.47C270.989 199.813 278.305 201.066 286.138 204.231C291.36 206.341 295.962 209.074 299.943 212.431C303.957 215.71 306.781 219.427 308.414 223.585C310.159 227.695 310.088 232.084 308.202 236.752C306.092 241.974 302.982 245.457 298.872 247.202C294.873 248.9 290.377 249.89 285.385 250.174C281.153 250.397 277.8 250.837 275.326 251.494C272.852 252.151 270.897 253.8 269.461 256.441L268.863 257.58L250.587 250.196ZM247.616 284.199C244.452 282.921 242.186 280.671 240.818 277.449C239.53 274.26 239.525 271.082 240.804 267.918C242.114 264.674 244.325 262.392 247.435 261.071C250.625 259.783 253.802 259.778 256.967 261.057C260.211 262.367 262.493 264.578 263.813 267.688C265.133 270.799 265.138 273.976 263.827 277.22C262.549 280.385 260.338 282.667 257.196 284.066C254.054 285.466 250.86 285.51 247.616 284.199Z" fill="#1E91CE"/>
<path d="M72.3492 144.104L72.5584 141.713C73.3819 135.361 74.8313 130.268 76.9066 126.434C79.1148 122.612 82.2005 119.469 86.1637 117.005C90.1384 114.408 95.17 111.971 101.258 109.693C107.757 107.317 112.609 105.399 115.815 103.94C119.033 102.347 120.787 99.8908 121.078 96.5702C121.368 93.2495 119.68 90.3581 116.014 87.8959C112.481 85.4453 107.527 83.9411 101.151 83.3833C95.3067 82.872 89.9613 83.542 85.1148 85.3933C80.4012 87.2562 76.9602 90.6358 74.7919 95.5322L48.3677 83.1822C52.9003 74.2097 60.0969 67.6788 69.9575 63.5893C79.8181 59.4998 91.3233 58.0303 104.473 59.1807C113.24 59.9477 121.364 61.93 128.847 65.1277C136.342 68.1926 142.26 72.4579 146.6 77.9236C151.084 83.2682 152.984 89.8588 152.298 97.6955C151.531 106.462 148.476 113.088 143.131 117.572C137.931 121.936 131.666 125.47 124.335 128.174C118.114 130.441 113.305 132.63 109.908 134.742C106.511 136.854 104.344 140.211 103.406 144.814L103.032 146.789L72.3492 144.104ZM83.4449 196.27C78.1319 195.805 73.7179 193.478 70.203 189.289C66.8208 185.112 65.3622 180.366 65.827 175.053C66.3035 169.608 68.5639 165.188 72.6085 161.794C76.7858 158.412 81.531 156.953 86.844 157.418C92.2899 157.895 96.7097 160.155 100.103 164.2C103.497 168.244 104.956 172.989 104.479 178.435C104.015 183.748 101.754 188.168 97.6979 191.694C93.6418 195.221 88.8908 196.746 83.4449 196.27Z" fill="#D9D9D9"/>
<path d="M97.8236 316.358L97.0325 315.041C95.0692 311.442 93.9037 308.26 93.5361 305.494C93.2417 302.685 93.657 299.896 94.7821 297.13C95.8632 294.29 97.5515 291.135 99.847 287.665C102.318 283.99 104.109 281.172 105.22 279.21C106.287 277.176 106.271 275.244 105.172 273.415C104.074 271.587 102.112 270.724 99.2875 270.829C96.5363 270.889 93.4052 271.974 89.8942 274.083C86.6758 276.017 84.1602 278.375 82.3472 281.157C80.6075 283.894 80.0972 286.939 80.8164 290.29L62.4889 293.835C61.4604 287.485 62.7298 281.396 66.2969 275.569C69.8641 269.742 75.2683 264.653 82.5097 260.302C87.3372 257.402 92.2898 255.372 97.3672 254.212C102.401 252.98 107.069 252.962 111.372 254.16C115.705 255.24 119.168 257.938 121.761 262.253C124.661 267.081 125.572 271.661 124.491 275.993C123.44 280.209 121.526 284.395 118.748 288.553C116.379 292.067 114.713 295.01 113.749 297.381C112.784 299.753 112.925 302.306 114.171 305.042L114.72 306.205L97.8236 316.358ZM123.192 339.193C120.267 340.951 117.106 341.407 113.71 340.56C110.387 339.67 107.847 337.762 106.089 334.836C104.287 331.837 103.795 328.698 104.612 325.419C105.503 322.097 107.411 319.557 110.337 317.799C113.336 315.997 116.475 315.504 119.753 316.322C123.032 317.139 125.572 319.047 127.374 322.046C129.132 324.972 129.625 328.111 128.851 331.463C128.078 334.815 126.191 337.391 123.192 339.193Z" fill="#43AA8B"/>
<path d="M227.077 396.123L226.732 394.626C225.977 390.597 225.852 387.21 226.357 384.466C226.945 381.703 228.201 379.179 230.126 376.896C232.032 374.529 234.613 372.051 237.868 369.46C241.354 366.728 243.928 364.601 245.591 363.079C247.234 361.474 247.816 359.631 247.336 357.553C246.856 355.474 245.257 354.048 242.539 353.274C239.904 352.481 236.59 352.546 232.599 353.467C228.941 354.312 225.82 355.777 223.236 357.862C220.735 359.928 219.309 362.666 218.958 366.075L200.432 363.784C201.416 357.426 204.505 352.027 209.698 347.588C214.891 343.149 221.603 339.979 229.835 338.079C235.323 336.812 240.66 336.411 245.847 336.878C251.015 337.261 255.461 338.687 259.183 341.155C262.97 343.522 265.43 347.158 266.562 352.063C267.829 357.551 267.279 362.188 264.913 365.975C262.611 369.659 259.497 373.049 255.57 376.145C252.231 378.755 249.737 381.039 248.087 382.996C246.437 384.953 245.782 387.425 246.121 390.412L246.284 391.688L227.077 396.123ZM244.148 425.68C240.822 426.448 237.675 425.905 234.707 424.05C231.822 422.176 229.996 419.576 229.228 416.251C228.441 412.842 228.943 409.704 230.734 406.839C232.607 403.954 235.207 402.128 238.533 401.36C241.942 400.573 245.079 401.075 247.945 402.865C250.811 404.656 252.637 407.256 253.424 410.665C254.192 413.99 253.69 417.128 251.918 420.076C250.147 423.025 247.557 424.893 244.148 425.68Z" fill="#003049"/>
</g>
<defs>
<clipPath id="clip0_26_417">
<rect width="384" height="512" fill="white"/>
</clipPath>
</defs>
</svg>
