<svg width="203" height="206" viewBox="0 0 203 206" fill="none" xmlns="http://www.w3.org/2000/svg">
<path d="M108.857 27.2604L110.745 11.5032L104.341 10.7356L104.837 6.59525L122.322 8.69099L121.826 12.8314L115.422 12.0637L113.533 27.821L108.857 27.2604Z" fill="#003049"/>
<path d="M125.45 31.1427C124.571 30.8075 123.832 30.3327 123.232 29.7183C122.631 29.1038 122.23 28.4156 122.029 27.6536C121.834 26.873 121.898 26.0622 122.219 25.2214C122.654 24.0816 123.392 23.3251 124.433 22.952C125.494 22.586 126.779 22.4987 128.29 22.6901C129.801 22.8815 131.479 23.2541 133.322 23.8079C133.7 22.8176 133.809 22.0563 133.648 21.5239C133.488 20.9916 132.949 20.5508 132.034 20.2013C131.455 19.9802 130.887 19.9242 130.332 20.0334C129.802 20.1309 129.356 20.4315 128.992 20.935L125.897 18.2764C126.72 17.5205 127.792 17.041 129.111 16.838C130.449 16.6421 131.912 16.8473 133.5 17.4535C135.481 18.2094 136.836 19.2298 137.566 20.5145C138.296 21.7992 138.258 23.4972 137.452 25.6087L136.286 28.6637C136.058 29.2617 135.83 29.9134 135.604 30.6191C135.377 31.3247 135.184 32.0001 135.023 32.6452C134.862 33.2903 134.75 33.8363 134.687 34.283L130.735 32.7747L130.872 30.9005C130.071 31.4295 129.208 31.6995 128.283 31.7105C127.384 31.71 126.44 31.5207 125.45 31.1427ZM128.132 28.8269C128.972 29.1478 129.759 29.191 130.49 28.9565C131.222 28.722 131.83 27.9694 132.315 26.6988L132.444 26.3625C130.918 25.9299 129.653 25.6826 128.649 25.6206C127.652 25.5398 127.015 25.8638 126.737 26.5926C126.565 27.041 126.613 27.4767 126.88 27.8996C127.154 28.3038 127.571 28.6129 128.132 28.8269Z" fill="#003049"/>
<path d="M138.98 36.5668L150.36 20.0717L154.114 22.6612L147.981 31.5508L155.283 29.7365L159.727 32.803L151.41 34.6095L151.648 45.3065L147.203 42.2399L147.084 35.5974L144.863 36.0697L142.733 39.1563L138.98 36.5668Z" fill="#003049"/>
<path d="M157.737 52.5526C156.674 51.3566 155.963 50.0892 155.602 48.7505C155.27 47.4134 155.313 46.0913 155.73 44.7842C156.16 43.4921 156.988 42.3013 158.214 41.2119C159.395 40.1624 160.659 39.5214 162.004 39.289C163.363 39.0716 164.68 39.1988 165.955 39.6707C167.244 40.1575 168.367 40.9391 169.323 42.0155C170.413 43.2413 171.051 44.5469 171.239 45.9321C171.454 47.319 171.253 48.6884 170.635 50.0403C170.032 51.3789 169.04 52.5954 167.658 53.6898L160.344 45.46C159.62 46.2106 159.289 47.0128 159.352 47.8665C159.428 48.7352 159.746 49.4834 160.304 50.1113C160.769 50.6346 161.242 51.0166 161.723 51.2575C162.233 51.5001 162.701 51.6197 163.126 51.6164L164.551 55.2067C163.18 55.3809 161.902 55.2064 160.714 54.683C159.54 54.1747 158.548 53.4645 157.737 52.5526ZM162.362 43.6664L166.866 48.7344C167.57 48.0817 167.889 47.3568 167.823 46.5595C167.772 45.749 167.454 45.0148 166.869 44.3571C166.298 43.7142 165.614 43.2914 164.819 43.0887C164.036 42.9009 163.218 43.0935 162.362 43.6664Z" fill="#003049"/>
<path d="M170.662 70.1782L192.059 71.3544L193.637 76.3301L176.829 89.6236L175.269 84.705L178.309 82.4819L175.988 75.1613L172.222 75.0967L170.662 70.1782ZM180.038 75.23L181.58 80.0913L188.063 75.3283L180.038 75.23Z" fill="#003049"/>
<path d="M176.86 99.6039C176.792 97.9653 177.064 96.5628 177.677 95.3965C178.29 94.2502 179.173 93.3529 180.328 92.7046C181.503 92.0754 182.869 91.7286 184.428 91.6641C185.987 91.5996 187.359 91.863 188.544 92.4545C189.75 93.0452 190.696 93.8968 191.382 95.0093C192.07 96.1419 192.444 97.4575 192.507 98.9562C192.542 99.8155 192.457 100.67 192.252 101.519C192.048 102.388 191.671 103.194 191.121 103.938C190.592 104.7 189.848 105.332 188.888 105.832L187.351 102.082C187.981 101.816 188.416 101.438 188.656 100.947C188.896 100.477 189.005 99.9519 188.981 99.3724C188.958 98.8328 188.797 98.3191 188.497 97.8311C188.216 97.3423 187.759 96.9508 187.127 96.6567C186.495 96.3826 185.649 96.2675 184.59 96.3113C183.511 96.356 182.659 96.5514 182.032 96.8976C181.426 97.243 180.993 97.6613 180.733 98.1524C180.494 98.6628 180.386 99.1877 180.408 99.7272C180.435 100.367 180.577 100.901 180.835 101.331C181.113 101.76 181.477 102.095 181.927 102.337L180.732 106.109C179.812 105.647 179.067 105.057 178.497 104.34C177.947 103.622 177.545 102.848 177.29 102.018C177.036 101.208 176.893 100.403 176.86 99.6039Z" fill="#003049"/>
<path d="M176.013 116.984C176.207 115.779 176.46 114.837 176.772 114.158C177.103 113.482 177.591 113.034 178.234 112.813C178.894 112.616 179.796 112.609 180.942 112.793L188.05 113.937L188.441 111.508L191.877 112.061L191.486 114.489L195.159 115.08L194.434 119.582L190.762 118.992L190.247 122.19L186.811 121.638L187.326 118.439L181.402 117.486C180.711 117.375 180.236 117.43 179.978 117.652C179.736 117.896 179.556 118.384 179.438 119.115L179.229 120.418L175.556 119.827L176.013 116.984Z" fill="#003049"/>
<path d="M189.829 132.524C190.059 131.821 190.504 131.293 191.166 130.94C191.841 130.613 192.53 130.564 193.233 130.794C193.956 131.029 194.484 131.475 194.817 132.13C195.144 132.805 195.193 133.494 194.964 134.197C194.728 134.92 194.283 135.448 193.627 135.781C192.972 136.115 192.283 136.163 191.56 135.928C190.857 135.699 190.329 135.253 189.976 134.592C189.643 133.936 189.594 133.247 189.829 132.524ZM174.058 124.956L184.897 128.488L185.771 125.806L189.08 126.885L186.784 133.93L172.636 129.32L174.058 124.956Z" fill="#003049"/>
<path d="M167.342 139.796C168.026 138.597 168.909 137.616 169.99 136.851C171.071 136.087 172.299 135.671 173.673 135.603C175.065 135.545 176.533 135.957 178.079 136.84C179.643 137.732 180.736 138.782 181.359 139.99C182 141.208 182.257 142.471 182.131 143.781C182.023 145.101 181.626 146.36 180.942 147.559C180.268 148.74 179.391 149.713 178.309 150.477C177.245 151.252 176.026 151.673 174.652 151.741C173.295 151.818 171.835 151.411 170.272 150.519C168.726 149.636 167.624 148.581 166.966 147.354C166.325 146.136 166.059 144.867 166.168 143.547C166.276 142.228 166.668 140.977 167.342 139.796ZM170.416 141.551C169.96 142.35 169.87 143.173 170.146 144.022C170.412 144.887 171.222 145.707 172.577 146.48C173.949 147.263 175.063 147.531 175.919 147.282C176.782 147.061 177.432 146.568 177.868 145.804C178.314 145.022 178.418 144.195 178.179 143.322C177.948 142.476 177.146 141.662 175.774 140.878C174.419 140.105 173.302 139.824 172.421 140.035C171.541 140.247 170.872 140.752 170.416 141.551Z" fill="#003049"/>
<path d="M160.846 150.735L171.455 161.169L168.657 164.014L166.846 163.032C167.007 163.667 166.999 164.445 166.823 165.365C166.633 166.3 166.138 167.174 165.339 167.987C163.992 169.356 162.689 169.911 161.428 169.653C160.167 169.423 158.817 168.6 157.377 167.184L150.917 160.831L154.114 157.58L159.761 163.133C160.26 163.624 160.745 164.044 161.214 164.394C161.684 164.744 162.152 164.924 162.619 164.934C163.086 164.972 163.579 164.728 164.098 164.2C164.771 163.516 165.012 162.771 164.822 161.967C164.645 161.176 164.072 160.304 163.103 159.351L157.648 153.987L160.846 150.735Z" fill="#003049"/>
<path d="M121.422 171.777C129.358 169.115 137.98 173.405 140.642 181.341C143.305 189.276 139.014 197.898 131.079 200.561C123.144 203.223 114.521 198.933 111.859 190.997C109.197 183.062 113.487 174.44 121.422 171.777Z" fill="#003049"/>
<path d="M92.3599 178.402L90.1872 194.122L96.5764 195.005L96.0055 199.136L78.5613 196.725L79.1322 192.594L85.5215 193.477L87.6943 177.757L92.3599 178.402Z" fill="#003049"/>
<path d="M75.8427 174.22C76.7147 174.571 77.4453 175.059 78.0344 175.684C78.6235 176.309 79.0119 177.005 79.1996 177.77C79.3798 178.554 79.3019 179.364 78.9658 180.199C78.5101 181.33 77.7583 182.073 76.7101 182.427C75.6435 182.774 74.3565 182.838 72.8491 182.619C71.3417 182.401 69.6714 181.998 67.838 181.41C67.4421 182.394 67.3197 183.153 67.4708 183.688C67.6219 184.223 68.152 184.674 69.0611 185.04C69.6362 185.271 70.2024 185.338 70.7597 185.239C71.291 185.151 71.7429 184.858 72.1154 184.361L75.1622 187.076C74.3249 187.817 73.245 188.277 71.9224 188.456C70.5813 188.627 69.1223 188.395 67.5453 187.761C65.5787 186.969 64.2421 185.924 63.5357 184.626C62.8292 183.329 62.898 181.631 63.7421 179.535L64.9633 176.502C65.2023 175.908 65.4414 175.26 65.6807 174.559C65.92 173.858 66.1257 173.186 66.298 172.544C66.4703 171.902 66.5922 171.358 66.6638 170.912L70.5877 172.492L70.4164 174.363C71.2272 173.849 72.0949 173.595 73.0197 173.601C73.9184 173.617 74.8594 173.824 75.8427 174.22ZM73.1191 176.486C72.2842 176.15 71.4988 176.093 70.763 176.314C70.0271 176.535 69.4053 177.277 68.8973 178.538L68.7629 178.872C70.2809 179.332 71.5411 179.603 72.5437 179.683C73.5388 179.782 74.182 179.469 74.4733 178.746C74.6526 178.3 74.6127 177.864 74.3537 177.436C74.0872 177.027 73.6757 176.711 73.1191 176.486Z" fill="#003049"/>
<path d="M62.4022 168.545L50.7245 184.831L47.0187 182.174L53.312 173.397L45.9784 175.079L41.59 171.932L49.9384 170.277L49.8951 159.577L54.2835 162.724L54.2819 169.367L56.5112 168.935L58.6964 165.888L62.4022 168.545Z" fill="#003049"/>
<path d="M43.9398 152.225C44.9809 153.44 45.6694 154.72 46.0055 156.065C46.3133 157.408 46.247 158.729 45.8064 160.028C45.3528 161.312 44.5034 162.488 43.2581 163.555C42.0583 164.583 40.7837 165.201 39.4344 165.409C38.072 165.602 36.7575 165.451 35.4907 164.956C34.2108 164.446 33.1024 163.645 32.1655 162.551C31.0983 161.306 30.4835 159.989 30.321 158.601C30.1303 157.21 30.3561 155.845 30.9985 154.504C31.6256 153.177 32.6399 151.978 34.0414 150.909L41.2054 159.269C41.9431 158.532 42.2881 157.736 42.2405 156.881C42.1799 156.011 41.8763 155.257 41.3298 154.619C40.8743 154.088 40.4079 153.697 39.9307 153.448C39.4253 153.196 38.96 153.068 38.5348 153.064L37.1752 149.448C38.5484 149.299 39.8239 149.496 41.0018 150.041C42.1666 150.571 43.1459 151.299 43.9398 152.225ZM39.1552 161.026L34.7436 155.878C34.0276 156.518 33.6956 157.237 33.7475 158.035C33.7843 158.846 34.089 159.586 34.6616 160.254C35.2212 160.907 35.8968 161.342 36.6886 161.559C37.4674 161.761 38.2896 161.584 39.1552 161.026Z" fill="#003049"/>
<path d="M31.3355 134.366L9.96377 132.798L8.47695 127.795L25.525 114.811L26.9947 119.757L23.9144 121.924L26.1019 129.286L29.8658 129.42L31.3355 134.366ZM22.0535 129.144L20.6009 124.255L14.0314 128.898L22.0535 129.144Z" fill="#003049"/>
<path d="M25.6742 104.815C25.7123 106.455 25.4147 107.852 24.7814 109.007C24.1476 110.142 23.2478 111.023 22.0821 111.651C20.8959 112.258 19.523 112.58 17.9634 112.617C16.4039 112.653 15.0368 112.365 13.8622 111.752C12.6677 111.139 11.7372 110.271 11.0709 109.146C10.4041 108.001 10.0533 106.679 10.0185 105.179C9.99848 104.32 10.0987 103.467 10.3191 102.622C10.5391 101.756 10.9306 100.957 11.4937 100.224C12.0364 99.4708 12.7922 98.8531 13.7612 98.3705L15.2294 102.147C14.5952 102.402 14.1536 102.773 13.9049 103.258C13.6556 103.724 13.5378 104.247 13.5512 104.827C13.5638 105.367 13.7158 105.884 14.0074 106.377C14.2789 106.871 14.7283 107.27 15.3556 107.576C15.9824 107.861 16.8257 107.992 17.8854 107.967C18.9651 107.942 19.8211 107.762 20.4535 107.427C21.0659 107.093 21.5065 106.683 21.7753 106.196C22.0236 105.69 22.1415 105.168 22.1289 104.628C22.114 103.988 21.9815 103.451 21.7314 103.016C21.4612 102.583 21.1032 102.241 20.6572 101.991L21.9204 98.2408C22.8318 98.7198 23.566 99.3229 24.1231 100.05C24.6601 100.778 25.0484 101.559 25.2879 102.394C25.5269 103.208 25.6556 104.016 25.6742 104.815Z" fill="#003049"/>
<path d="M26.8307 87.4877C26.6153 88.6885 26.3456 89.6256 26.0216 90.299C25.6779 90.9688 25.1826 91.4082 24.5355 91.6173C23.8723 91.8031 22.9698 91.7936 21.828 91.5888L14.7411 90.3175L14.3068 92.7389L10.8814 92.1244L11.3158 89.7031L7.65422 89.0462L8.45936 84.5579L12.1209 85.2147L12.693 82.0256L16.1183 82.6401L15.5462 85.8291L21.452 86.8885C22.141 87.0121 22.6167 86.9654 22.8792 86.7483C23.1255 86.508 23.3139 86.0237 23.4446 85.2953L23.6777 83.9961L27.3392 84.6529L26.8307 87.4877Z" fill="#003049"/>
<path d="M13.3033 71.6841C13.0613 72.3834 12.6062 72.9032 11.9382 73.2434C11.2578 73.5581 10.568 73.5944 9.86867 73.3524C9.15048 73.1038 8.63074 72.6487 8.30945 71.9872C7.99471 71.3068 7.95837 70.617 8.20044 69.9177C8.44905 69.1995 8.9041 68.6798 9.5656 68.3585C10.2271 68.0372 10.9169 68.0008 11.6351 68.2495C12.3344 68.4915 12.8541 68.9466 13.1943 69.6146C13.5156 70.2761 13.552 70.966 13.3033 71.6841ZM28.9337 79.5393L18.1609 75.8101L17.2384 78.475L13.9499 77.3366L16.3738 70.3343L30.4352 75.2019L28.9337 79.5393Z" fill="#003049"/>
<path d="M35.9196 64.8231C35.2139 66.0091 34.3136 66.9744 33.2187 67.7193C32.1238 68.4641 30.8888 68.8579 29.5135 68.9007C28.121 68.9332 26.66 68.4943 25.1303 67.584C23.5835 66.6636 22.5094 65.5939 21.9082 64.375C21.2897 63.1459 21.0553 61.8776 21.2049 60.5702C21.3373 59.2526 21.7564 58.0009 22.4621 56.815C23.1576 55.6462 24.0528 54.6895 25.1477 53.9446C26.2254 53.1895 27.4518 52.7906 28.8271 52.7479C30.1852 52.6949 31.6377 53.1287 33.1845 54.0492C34.7142 54.9594 35.7968 56.0342 36.4324 57.2736C37.0509 58.5027 37.2939 59.7761 37.1615 61.0937C37.029 62.4113 36.6151 63.6544 35.9196 64.8231ZM32.8775 63.0129C33.348 62.2223 33.453 61.4004 33.1927 60.5473C32.9426 59.677 32.1472 58.8429 30.8066 58.0452C29.4488 57.2372 28.3399 56.9497 27.4798 57.1826C26.6128 57.3881 25.9542 57.869 25.5042 58.6252C25.044 59.3987 24.9252 60.224 25.1479 61.1013C25.3637 61.9511 26.1504 62.7801 27.5082 63.588C28.8488 64.3858 29.9612 64.687 30.8455 64.4917C31.7297 64.2964 32.407 63.8035 32.8775 63.0129Z" fill="#003049"/>
<path d="M42.6128 54.0026L32.1933 43.3796L35.0419 40.5856L36.8353 41.6001C36.6859 40.9622 36.7075 40.1845 36.9003 39.2671C37.1073 38.3357 37.6177 37.4709 38.4316 36.6726C39.8023 35.3282 41.1157 34.7964 42.3716 35.0772C43.6279 35.3298 44.9633 36.1772 46.3777 37.6193L52.7218 44.0874L49.4664 47.2804L43.9206 41.6262C43.4304 41.1265 42.9537 40.6976 42.4904 40.3395C42.0272 39.9814 41.5623 39.7931 41.0958 39.7744C40.6295 39.7275 40.1322 39.9631 39.6039 40.4813C38.9186 41.1535 38.6639 41.8935 38.84 42.7014C39.002 43.4949 39.5592 44.3772 40.5115 45.3481L45.8683 50.8096L42.6128 54.0026Z" fill="#003049"/>
<path d="M82.4101 33.6791C74.4275 36.196 65.8849 31.7489 63.368 23.7663C60.8512 15.7836 65.2983 7.24104 73.2809 4.7242C81.2635 2.20736 89.8061 6.65444 92.323 14.6371C94.8398 22.6197 90.3927 31.1623 82.4101 33.6791Z" fill="#003049"/>
</svg>
