<?xml version="1.0" encoding="UTF-8" standalone="no"?>
<!-- Created with Inkscape (http://www.inkscape.org/) -->

<svg
   width="43.981033mm"
   height="44.56905mm"
   viewBox="0 0 43.981033 44.56905"
   version="1.1"
   id="svg1"
   xml:space="preserve"
   xmlns="http://www.w3.org/2000/svg"
   xmlns:svg="http://www.w3.org/2000/svg"><defs
     id="defs1"><linearGradient
       id="swatch19"
       gradientTransform="scale(0.26458333)"><stop
         style="stop-color:#2d2d2d;stop-opacity:1;"
         offset="0"
         id="stop19" /></linearGradient><linearGradient
       id="swatch17"
       gradientTransform="scale(0.26458333)"><stop
         style="stop-color:#003049;stop-opacity:1;"
         offset="0"
         id="stop17" /></linearGradient><linearGradient
       id="swatch16"><stop
         style="stop-color:#43aa8b;stop-opacity:1;"
         offset="0"
         id="stop16" /></linearGradient><linearGradient
       id="swatch15"><stop
         style="stop-color:#bc1c1a;stop-opacity:1;"
         offset="0"
         id="stop15" /></linearGradient><linearGradient
       id="swatch14"><stop
         style="stop-color:#1e91ce;stop-opacity:1;"
         offset="0"
         id="stop14" /></linearGradient><linearGradient
       id="swatch13"><stop
         style="stop-color:#fdbf4a;stop-opacity:1;"
         offset="0"
         id="stop13" /></linearGradient></defs><g
     id="layer1"
     transform="translate(-686.17812,-469.35344)"><g
       id="g200"><path
         d="m 705.89457,469.35797 h -13.02814 l 0.0847,5.5303 v 0 l -0.0847,-5.5303 h -0.0367 l -5.52835,5.52152 v 35.46686 h 18.84278 l 1.45934,-2.49208 0.26355,-0.4496 0.8754,-1.49535 0.26303,-0.44908 0.10904,-0.18633 -1.38286,-1.33587 -0.46509,-0.44906 -1.54771,-1.49537 -0.46508,-0.44906 -0.17984,-0.17395 0.78962,-1.39007 0.25476,-0.44906 0.84905,-1.49536 0.25579,-0.44959 0.36794,-0.64832 -0.77463,-0.87336 -0.39791,-0.44908 -0.88056,-0.99311 2.63084,-4.05662 0.29146,-0.44907 0.12454,-0.19202 -1.28571,-1.30386 -0.44287,-0.44906 -1.47484,-1.49536 -0.44235,-0.44908 -0.65991,-0.66896 0.46147,-0.82691 0.25011,-0.44907 0.83406,-1.49536 0.25063,-0.44908 0.78703,-1.41069 -0.0713,-0.0852 -0.37621,-0.44906 -1.2516,-1.49537 -0.37672,-0.44958 -0.971,-1.15985 0.18759,-0.33551 0.25063,-0.44907 0.8356,-1.49536 0.25115,-0.44959 0.83561,-1.49536 0.25115,-0.44907 0.5674,-1.01582 z"
         style="fill:#004062;fill-opacity:1;stroke-width:0.551326"
         id="path148-0" /><path
         d="m 704.7713,469.35341 h -13.02814 l 0.0847,5.53662 v 0 l -0.0847,-5.53662 h -0.0367 l -5.52835,5.52783 v 35.50739 h 18.84278 l 1.45934,-2.49493 h -4.48396 v -0.45011 h 4.74751 l 0.8754,-1.49706 h -5.62291 v -0.44959 h 5.88594 l 0.10904,-0.18655 -1.38286,-1.33739 h -4.61212 v -0.44958 h 4.14703 l -1.54771,-1.49707 h -2.59932 v -0.44958 h 2.13424 l -0.17984,-0.17415 0.78962,-1.39165 h -2.77244 v -0.44958 h 3.0272 l 0.84905,-1.49707 h -3.87625 v -0.4501 h 4.13204 l 0.36794,-0.64906 -0.77463,-0.87436 h -3.72535 v -0.44959 h 3.32744 l -0.88056,-0.99425 2.63084,-4.06125 h -18.91099 v -0.44959 h 19.20245 l 0.12454,-0.19223 -1.28571,-1.30535 h -18.04128 v -0.44958 h 17.59841 l -1.47484,-1.49707 h -16.12357 v -0.44959 h 15.68122 l -0.65991,-0.66972 0.46147,-0.82786 h -15.48278 v -0.44958 h 15.73289 l 0.83406,-1.49707 h -16.56695 v -0.44959 h 16.81758 l 0.78703,-1.41231 -0.0713,-0.0853 h -17.5333 v -0.44958 h 17.15709 l -1.2516,-1.49707 h -15.90549 v -0.4501 h 15.52877 l -0.971,-1.16117 0.18759,-0.3359 h -14.74536 v -0.44958 h 14.99599 l 0.8356,-1.49707 h -9.76064 v -0.4501 h 10.01179 l 0.83561,-1.49707 h -10.8474 v -0.44958 h 11.09855 l 0.5674,-1.01699 z m -15.7024,22.48493 h 11.59826 v 1.89911 h -0.3359 c 0.11464,0.61699 0.43267,2.79688 -0.17983,6.03219 -0.55485,2.93086 -0.91062,4.27087 -1.08365,4.88808 h 0.34468 v 2.18229 h 1.03456 v 1.41232 h -4.48655 v -1.02681 h -2.18488 v 1.02681 h -4.48655 v -1.41232 h 1.03457 v -2.18229 h 0.69349 c -0.17303,-0.61721 -0.5288,-1.95722 -1.08365,-4.88808 -0.6125,-3.23531 -0.29498,-5.4152 -0.18035,-6.03219 h -0.6842 z"
         style="fill:#fcf3e3;stroke-width:0.551641"
         id="path148" /><rect
         style="fill:#fcf3e3;fill-opacity:1;stroke:none;stroke-width:0.552;stroke-dasharray:none;stroke-opacity:1"
         id="rect199"
         width="14.097507"
         height="18.219038"
         x="687.73962"
         y="491.15857"
         ry="0.30000001" /><g
         id="g199"
         transform="translate(-1.2584746,1.2584746)"><path
           id="path191"
           style="fill:#1e91ce;stroke-width:1.17216"
           d="m 691.58208,503.39925 v 2.18229 h -1.03457 v 1.41232 h 4.48655 v -1.02681 h 2.18488 v 1.02681 h 4.48655 v -1.41232 h -1.03456 v -2.18229 h -0.34468 -8.05068 z" /><path
           id="path185"
           style="fill:#1e91ce;stroke-width:0.665615"
           d="m 690.32737,490.57987 v 1.89911 h 0.6842 10.57816 0.3359 v -1.89911 z" /><path
           d="m 701.58973,492.47898 h -10.57816 c -0.11463,0.61699 -0.43215,2.79688 0.18035,6.03219 0.55485,2.93086 0.91062,4.27087 1.08365,4.88808 h 8.05068 c 0.17303,-0.61721 0.5288,-1.95722 1.08365,-4.88808 0.6125,-3.23531 0.29447,-5.4152 0.17983,-6.03219 z"
           style="fill:#ffffff;stroke-width:0.261735"
           id="path184" /><text
           xml:space="preserve"
           style="font-style:normal;font-variant:normal;font-weight:normal;font-stretch:normal;font-size:13.0142px;font-family:'Atkinson Hyperlegible';-inkscape-font-specification:'Atkinson Hyperlegible';letter-spacing:-0.976074px;word-spacing:9.76074px;fill:#bc1d1a;fill-opacity:1;stroke:none;stroke-width:4.30392;stroke-dasharray:none;stroke-opacity:1"
           x="791.42212"
           y="321.31735"
           id="text9-1-6-1-2-7-6-8"
           transform="rotate(13.854387)"><tspan
             id="tspan9-52-0-7-8-65-5-25"
             style="font-style:normal;font-variant:normal;font-weight:bold;font-stretch:normal;font-family:'Atkinson Hyperlegible';-inkscape-font-specification:'Atkinson Hyperlegible Bold';fill:#bc1d1a;fill-opacity:1;stroke-width:4.30393"
             x="791.42212"
             y="321.31735">?</tspan></text></g><path
         d="m 704.1071,501.57677 h -2.13424 v 0.44958 h 2.59932 z"
         style="fill:#004062;stroke-width:1.44939"
         id="path176" /><path
         d="m 704.97164,499.58481 h -3.0272 v 0.44958 h 2.77244 z"
         style="fill:#004062;stroke-width:1.44939"
         id="path174" /><path
         d="m 706.17015,497.54397 h -4.13204 v 0.4501 h 3.87625 z"
         style="fill:#004062;stroke-width:1.44939"
         id="path172" /><path
         d="m 705.27188,495.73488 h -3.32744 v 0.44959 h 3.72535 z"
         style="fill:#004062;stroke-width:1.44939"
         id="path170" /><path
         d="m 707.33704,490.13612 h -19.20245 v 0.44959 h 18.91099 z"
         style="fill:#004062;stroke-width:2.00834"
         id="path168" /><path
         d="m 705.733,488.18896 h -17.59841 v 0.44958 h 18.04128 z"
         style="fill:#004062;stroke-width:2.00834"
         id="path166" /><path
         d="m 703.81581,486.2423 h -15.68122 v 0.44959 h 16.12357 z"
         style="fill:#004062;stroke-width:2.00834"
         id="path164" /><path
         d="m 703.86748,484.29514 h -15.73289 v 0.44958 h 15.48278 z"
         style="fill:#004062;stroke-width:2.00834"
         id="path162" /><path
         d="m 704.95217,482.34848 h -16.81758 v 0.44959 h 16.56695 z"
         style="fill:#004062;stroke-width:2.00834"
         id="path160" /><path
         d="m 705.29168,480.40132 h -17.15709 v 0.44958 h 17.5333 z"
         style="fill:#004062;stroke-width:2.00834"
         id="path158" /><path
         d="m 703.66336,478.45415 h -15.52877 v 0.4501 h 15.90549 z"
         style="fill:#004062;stroke-width:2.00834"
         id="path156" /><path
         d="m 703.13058,476.5075 h -14.99599 v 0.44958 h 14.74536 z"
         style="fill:#004062;stroke-width:2.00834"
         id="path154" /><path
         d="m 704.21733,474.56033 h -10.01179 v 0.4501 h 9.76064 z"
         style="fill:#004062;stroke-width:1.7912"
         id="path152" /><path
         d="m 705.30409,472.61368 h -11.09855 v 0.44958 h 10.8474 z"
         style="fill:#004062;stroke-width:1.7912"
         id="path150" /><path
         d="m 715.213,470.87437 0.55389,2.41275 -0.7864,0.85063 -0.34795,0.37595 -1.15798,1.25208 -0.34807,0.37646 -1.15797,1.25209 -0.34745,0.37608 -0.25991,0.28089 0.67742,1.34049 0.26292,0.51968 0.8731,1.72819 0.26254,0.51907 0.0497,0.0984 -1.09118,1.18147 -0.34745,0.37609 -1.15647,1.25244 -0.34694,0.37619 -0.63975,0.69253 0.4879,0.79592 0.3269,0.53416 1.09034,1.77911 0.32741,0.53427 0.95046,1.55121 -0.16547,0.15684 -0.38718,0.36677 -3.49557,3.31361 0.62787,1.15899 0.28365,0.52403 0.5524,1.01929 -0.50755,0.54156 -0.35259,0.3754 -1.17106,1.24901 -0.35146,0.37514 -1.08894,1.16098 0.13489,0.20885 0.34901,0.53934 1.16126,1.79572 0.34903,0.53934 1.03762,1.60425 -0.14908,0.1549 -0.35952,0.37326 -1.19669,1.24299 -0.36014,0.37364 -1.99478,2.07142 14.70337,3.44662 9.45207,-39.54458 z"
         style="fill:#004062;fill-opacity:1;stroke-width:0.54896"
         id="path147-4" /><path
         d="m 707.44038,507.78534 -0.36014,0.3773 10.67943,2.52788 0.10368,-0.43801 z"
         style="fill:#004062;stroke-width:1.44939"
         id="path181" /><path
         d="m 708.99659,506.15326 -0.35951,0.37692 9.5711,2.26553 0.10356,-0.4375 z"
         style="fill:#004062;stroke-width:1.44939"
         id="path179" /><path
         d="m 707.75902,503.83227 0.34903,0.54462 10.55471,2.49836 0.10356,-0.43749 z"
         style="fill:#004062;stroke-width:1.44939"
         id="path177" /><path
         d="m 706.24875,501.47434 0.34902,0.54461 12.51339,2.96199 0.10355,-0.43749 z"
         style="fill:#004062;stroke-width:1.44939"
         id="path175" /><path
         d="m 707.55427,499.71229 -0.35147,0.37881 12.34491,2.92211 0.10356,-0.43749 z"
         style="fill:#004062;stroke-width:1.44939"
         id="path173" /><path
         d="m 709.07791,498.07197 -0.35259,0.37907 11.27079,2.66786 0.10367,-0.438 z"
         style="fill:#004062;stroke-width:1.44939"
         id="path171" /><path
         d="m 708.74941,495.96668 0.28365,0.52915 11.41763,2.70262 0.10356,-0.4375 z"
         style="fill:#004062;stroke-width:1.44939"
         id="path169" /><path
         d="m 712.00429,491.07992 -0.38718,0.37036 10.47978,2.48062 0.10356,-0.4375 z"
         style="fill:#004062;stroke-width:2.00834"
         id="path167" /><path
         d="m 710.89189,488.81564 0.32741,0.5395 11.32611,2.68095 0.10355,-0.43749 z"
         style="fill:#004062;stroke-width:2.00834"
         id="path165" /><path
         d="m 709.47465,486.47972 0.3269,0.53939 13.19225,3.12268 0.10356,-0.4375 z"
         style="fill:#004062;stroke-width:2.00834"
         id="path163" /><path
         d="m 709.97344,484.59682 -0.34694,0.37988 13.81581,3.27028 0.10356,-0.43749 z"
         style="fill:#004062;stroke-width:2.00834"
         id="path161" /><path
         d="m 711.47736,482.95235 -0.34745,0.37977 12.76079,3.02055 0.10356,-0.4375 z"
         style="fill:#004062;stroke-width:2.00834"
         id="path159" /><path
         d="m 712.25625,481.13575 0.26254,0.52415 11.82043,2.79796 0.10355,-0.43749 z"
         style="fill:#004062;stroke-width:2.00834"
         id="path157" /><path
         d="m 711.12023,478.86588 0.26291,0.52477 13.40447,3.17291 0.10367,-0.438 z"
         style="fill:#004062;stroke-width:2.00834"
         id="path155" /><path
         d="m 711.05017,476.84885 -0.34745,0.37976 14.5334,3.44014 0.10356,-0.43749 z"
         style="fill:#004062;stroke-width:2.00834"
         id="path153" /><path
         d="m 712.55621,475.20436 -0.34808,0.38015 13.47638,3.18993 0.10368,-0.438 z"
         style="fill:#004062;stroke-width:1.7912"
         id="path151" /><path
         d="m 714.06214,473.56038 -0.34796,0.37964 12.41884,2.93961 0.10356,-0.43749 z"
         style="fill:#004062;stroke-width:1.7912"
         id="path149" /><path
         d="m 714.29465,470.26506 0.55388,2.43637 -0.78639,0.85895 12.17444,2.88176 -0.10356,0.43749 -12.41884,-2.93961 -1.15797,1.26434 13.23198,3.13208 -0.10368,0.438 -13.47638,-3.18993 -1.15796,1.26434 14.28951,3.38241 -0.10356,0.43749 -14.5334,-3.44014 -0.25992,0.28366 0.67743,1.35361 13.77105,3.25968 -0.10367,0.438 -13.40447,-3.17291 0.87311,1.7451 12.18652,2.88462 -0.10355,0.43749 -11.82043,-2.79796 0.0497,0.0994 -1.09118,1.19305 12.5169,2.96282 -0.10355,0.4375 -12.7608,-3.02055 -1.15646,1.2647 13.57242,3.21266 -0.10356,0.43749 -13.8158,-3.27027 -0.63976,0.6993 0.48791,0.80372 13.6227,3.22456 -0.10356,0.4375 -13.19225,-3.12267 1.09035,1.79653 11.75707,2.78296 -0.10356,0.43749 -11.32611,-2.68095 0.95047,1.5664 -0.16547,0.15837 10.19616,2.41349 -0.10356,0.4375 -10.47979,-2.48062 -3.49556,3.34605 0.62786,1.17035 11.80484,2.79427 -0.10356,0.4375 -11.41763,-2.70262 0.5524,1.02928 -0.50755,0.54685 11.02188,2.60894 -0.10368,0.438 -11.27079,-2.66786 -1.17105,1.26124 12.097,2.86343 -0.10355,0.43749 -12.34492,-2.92211 -1.08894,1.17235 0.13489,0.21089 12.96597,3.06912 -0.10356,0.43749 -12.51339,-2.96199 1.16126,1.81331 11.00729,2.60549 -0.10355,0.43749 -10.55472,-2.49836 1.03762,1.61996 -0.14907,0.15642 9.31514,2.20494 -0.10356,0.43751 -9.5711,-2.26554 -1.19669,1.25517 10.42296,2.46717 -0.10368,0.43801 -10.67943,-2.52788 -1.99478,2.09169 14.70338,3.48037 9.45207,-39.93178 z"
         style="fill:#fcf3e3;stroke-width:0.551641"
         id="path147" /><path
         d="m 713.34583,508.18377 -4.74006,-0.26584 -0.0252,0.4494 4.47693,0.25109 z"
         style="fill:none;stroke:none;stroke-width:0.552"
         id="path182" /><path
         d="m 714.59148,506.30392 -5.87671,-0.32959 -0.0252,0.44889 5.61408,0.31486 z"
         style="fill:none;stroke:none;stroke-width:0.552"
         id="path180" /><path
         d="m 712.9658,504.23613 -4.14052,-0.23222 -0.0252,0.44887 4.60489,0.25826 z"
         style="fill:none;stroke:none;stroke-width:0.552"
         id="path178" /></g></g></svg>
