<svg width="167" height="169" viewBox="0 0 167 169" fill="none" xmlns="http://www.w3.org/2000/svg">
<g clip-path="url(#clip0_64_2)">
<path d="M74.5191 0.0170898H25.2789H25.14L4.24561 20.8858V154.934H75.4624L80.978 145.515L81.9741 143.816L85.2826 138.164L86.2769 136.467L86.6889 135.762L81.4625 130.713L79.7044 129.016L73.855 123.364L72.0972 121.667L71.4173 121.01L74.4019 115.756L75.3648 114.059L78.5736 108.407L79.5404 106.708L80.9312 104.257L78.0034 100.956L76.4995 99.2591L73.1715 95.5056L83.1146 80.1736L84.2164 78.4763L84.687 77.7505L79.8276 72.8226L78.1538 71.1253L72.5795 65.4736L70.9078 63.7762L68.4136 61.2479L70.1576 58.1226L71.1029 56.4253L74.2554 50.7736L75.2026 49.0762L78.1773 43.7445L77.9076 43.4225L76.4859 41.7252L71.7553 36.0735L70.3315 34.3743L66.6616 29.9906L67.3707 28.7225L68.3179 27.0252L71.4762 21.3735L72.4252 19.6743L75.5835 14.0225L76.5328 12.3252L78.6772 8.48585L74.5191 0.0170898Z" fill="#004062"/>
<path d="M70.2735 0H21.0333H20.8947L0 20.8925V155.094H71.2168L76.7324 145.664H59.7852V143.963H77.7285L81.0372 138.305H59.7852V136.605H82.0312L82.4435 135.9L77.2169 130.846H59.7852V129.146H75.4591L69.6094 123.488H59.7852V121.789H67.8516L67.172 121.131L70.1563 115.871H59.6777V114.172H71.1192L74.3282 108.514H59.6777V106.812H75.295L76.6856 104.359L73.7578 101.055H59.6777V99.3554H72.2539L68.9259 95.5977L78.8693 80.2481H7.39458V78.5487H79.9708L80.4414 77.8222L75.582 72.8887H7.39458V71.1894H73.9082L68.3342 65.5312H7.39458V63.832H66.6622L64.168 61.3007L65.9122 58.1718H7.39458V56.4726H66.8575L70.0098 50.8144H7.39458V49.1152H70.957L73.9317 43.7773L73.6623 43.4549H7.39458V41.7557H72.2403L67.5099 36.0974H7.39458V34.3964H66.0859L62.4162 30.0076L63.1251 28.7382H7.39458V27.0389H64.0723L67.2306 21.3807H30.34V19.6795H68.1798L71.3379 14.0213H30.34V12.3221H72.2872L74.4316 8.47833L70.2735 0ZM10.9259 84.9824H54.7619V92.1601H53.4922C53.9255 94.4921 55.1275 102.731 52.8126 114.959C50.7155 126.036 49.371 131.101 48.717 133.434H50.0197V141.682H53.9298V147.019H36.9727V143.139H28.7149V147.019H11.758V141.682H15.6681V133.434H18.2891C17.6351 131.101 16.2906 126.036 14.1935 114.959C11.8786 102.731 13.0786 94.4921 13.5119 92.1601H10.9259V84.9824Z" fill="#FCF3E3"/>
<path d="M58.0498 82.4131H7.03567C6.40945 82.4131 5.90186 82.9207 5.90186 83.5469V150.139C5.90186 150.765 6.40945 151.272 7.03567 151.272H58.0498C58.676 151.272 59.1836 150.765 59.1836 150.139V83.5469C59.1836 82.9207 58.676 82.4131 58.0498 82.4131Z" fill="#FCF3E3"/>
<path d="M15.6681 133.434V141.682H11.7578V147.02H28.7149V143.139H36.9727V147.02H53.9299V141.682H50.0198V133.434H48.7169H18.2892H15.6681Z" fill="#1E91CE"/>
<path d="M10.9258 84.9824V92.1602H13.5117H53.4921H54.7617V84.9824H10.9258Z" fill="#1E91CE"/>
<path d="M53.4922 92.1602H13.5119C13.0786 94.4921 11.8783 102.731 14.1933 114.959C16.2904 126.036 17.6351 131.101 18.2891 133.434H48.7168C49.3708 131.101 50.7155 126.036 52.8126 114.959C55.1275 102.731 53.9255 94.4921 53.4922 92.1602Z" fill="white"/>
<path d="M27.4621 114.64L27.6034 114.067C28.044 112.554 28.589 111.372 29.2385 110.519C29.9198 109.673 30.7886 109.026 31.845 108.578C32.9092 108.097 34.2241 107.695 35.7899 107.372C37.459 107.041 38.7107 106.758 39.5451 106.525C40.3873 106.26 40.9065 105.729 41.1028 104.934C41.2991 104.138 40.9985 103.371 40.2008 102.634C39.435 101.905 38.288 101.352 36.7598 100.975C35.3589 100.629 34.0346 100.59 32.7868 100.856C31.5708 101.13 30.6067 101.821 29.8944 102.929L23.9407 98.9277C25.3818 96.9189 27.3778 95.6042 29.9288 94.9838C32.4798 94.3633 35.3313 94.4417 38.4832 95.2191C40.5845 95.7373 42.4839 96.5266 44.1813 97.5869C45.8865 98.6154 47.163 99.8759 48.0108 101.368C48.8983 102.837 49.1104 104.51 48.6471 106.389C48.1288 108.49 47.1355 109.985 45.6669 110.872C44.2381 111.735 42.5818 112.357 40.6981 112.737C39.1005 113.052 37.849 113.402 36.9436 113.787C36.0381 114.171 35.3843 114.905 34.9822 115.988L34.8166 116.454L27.4621 114.64ZM28.1837 127.737C26.9102 127.422 25.9256 126.69 25.23 125.539C24.5663 124.396 24.3915 123.187 24.7056 121.914C25.0275 120.609 25.7441 119.62 26.8554 118.949C27.9986 118.285 29.2069 118.11 30.4804 118.424C31.7858 118.746 32.7742 119.463 33.4458 120.574C34.1174 121.685 34.2923 122.894 33.9703 124.199C33.6562 125.472 32.9396 126.461 31.8204 127.164C30.7013 127.868 29.489 128.058 28.1837 127.737Z" fill="#BC1D1A"/>
<path d="M67.7631 121.789H59.6965V123.488H69.5209L67.7631 121.789Z" fill="#004062"/>
<path d="M71.0306 114.26H59.5894V115.959H70.0677L71.0306 114.26Z" fill="#004062"/>
<path d="M75.5607 106.547H59.9434V108.248H74.5939L75.5607 106.547Z" fill="#004062"/>
<path d="M72.1653 99.7095H59.5894V101.409H73.6694L72.1653 99.7095Z" fill="#004062"/>
<path d="M79.9707 78.5488H7.39453V80.2482H78.8692L79.9707 78.5488Z" fill="#004062"/>
<path d="M73.9081 71.1895H7.39453V72.8887H75.582L73.9081 71.1895Z" fill="#004062"/>
<path d="M66.6621 63.832H7.39453V65.5313H68.3341L66.6621 63.832Z" fill="#004062"/>
<path d="M66.8575 56.4727H7.39453V58.1719H65.9122L66.8575 56.4727Z" fill="#004062"/>
<path d="M70.957 49.1152H7.39453V50.8145H70.0098L70.957 49.1152Z" fill="#004062"/>
<path d="M72.2403 41.7559H7.39453V43.4551H73.6622L72.2403 41.7559Z" fill="#004062"/>
<path d="M66.0859 34.3965H7.39453V36.0975H67.5099L66.0859 34.3965Z" fill="#004062"/>
<path d="M64.0722 27.0391H7.39453V28.7383H63.125L64.0722 27.0391Z" fill="#004062"/>
<path d="M68.1799 19.6797H30.3401V21.3809H67.2306L68.1799 19.6797Z" fill="#004062"/>
<path d="M72.2872 12.3223H30.3401V14.0215H71.338L72.2872 12.3223Z" fill="#004062"/>
<path d="M109.738 5.74854L111.832 14.8676L108.859 18.0826L107.544 19.5035L103.168 24.2358L101.852 25.6586L97.4755 30.3909L96.1624 31.8124L95.1799 32.874L97.7403 37.9404L98.7341 39.9045L102.034 46.4362L103.026 48.3981L103.214 48.7701L99.0898 53.2354L97.7767 54.6569L93.4057 59.3905L92.0945 60.8124L89.6765 63.4298L91.5206 66.4379L92.7561 68.4569L96.8771 75.181L98.1145 77.2003L101.707 83.0631L101.082 83.656L99.6181 85.0421L86.4066 97.5661L88.7796 101.946L89.8516 103.927L91.9395 107.78L90.0211 109.826L88.6885 111.245L84.2623 115.966L82.9341 117.384L78.8184 121.772L79.3282 122.561L80.6473 124.6L85.0363 131.386L86.3556 133.425L90.2772 139.488L89.7139 140.074L88.3549 141.484L83.8321 146.182L82.4709 147.594L74.9316 155.424L130.503 168.45L166.228 18.9903L109.738 5.74854Z" fill="#004062"/>
<path d="M80.3613 145.254L79.0002 146.68L119.363 156.235L119.755 154.579L80.3613 145.254Z" fill="#004062"/>
<path d="M86.243 139.086L84.8843 140.511L121.059 149.073L121.45 147.42L86.243 139.086Z" fill="#004062"/>
<path d="M81.5657 130.314L82.8847 132.372L122.777 141.815L123.168 140.161L81.5657 130.314Z" fill="#004062"/>
<path d="M75.8577 121.402L77.1767 123.46L124.471 134.655L124.863 133.002L75.8577 121.402Z" fill="#004062"/>
<path d="M80.7919 114.742L79.4636 116.174L126.122 127.218L126.513 125.565L80.7919 114.742Z" fill="#004062"/>
<path d="M86.5504 108.542L85.218 109.975L127.816 120.058L128.208 118.403L86.5504 108.542Z" fill="#004062"/>
<path d="M85.3088 100.585L86.3811 102.585L129.534 112.8L129.926 111.147L85.3088 100.585Z" fill="#004062"/>
<path d="M97.6107 82.116L96.1475 83.5158L135.756 92.8913L136.147 91.2378L97.6107 82.116Z" fill="#004062"/>
<path d="M93.4065 73.5581L94.6439 75.5971L137.451 85.7299L137.843 84.0764L93.4065 73.5581Z" fill="#004062"/>
<path d="M88.05 64.7292L89.2856 66.7679L139.146 78.5702L139.537 76.9166L88.05 64.7292Z" fill="#004062"/>
<path d="M89.9352 57.6128L88.624 59.0486L140.841 71.4086L141.233 69.7551L89.9352 57.6128Z" fill="#004062"/>
<path d="M95.6192 51.3975L94.3059 52.8328L142.536 64.249L142.927 62.5954L95.6192 51.3975Z" fill="#004062"/>
<path d="M98.563 44.5317L99.5554 46.5129L144.231 57.0878L144.622 55.4342L98.563 44.5317Z" fill="#004062"/>
<path d="M94.2695 35.9526L95.2631 37.9361L145.926 49.9282L146.318 48.2727L94.2695 35.9526Z" fill="#004062"/>
<path d="M94.0047 28.3291L92.6914 29.7644L147.621 42.7666L148.012 41.113L94.0047 28.3291Z" fill="#004062"/>
<path d="M99.6967 22.1138L98.3811 23.5506L149.315 35.6071L149.707 33.9516L99.6967 22.1138Z" fill="#004062"/>
<path d="M105.388 15.9004L104.073 17.3352L151.011 28.4456L151.402 26.792L105.388 15.9004Z" fill="#004062"/>
<path d="M106.267 3.44556L108.361 12.6539L105.389 15.9004L151.402 26.7921L151.011 28.4456L104.073 17.3353L99.6969 22.1138L149.708 33.9516L149.316 35.6071L98.3813 23.5506L94.0048 28.3292L148.012 41.1131L147.621 42.7667L92.6915 29.7645L91.7092 30.8366L94.2696 35.9526L146.318 48.2727L145.926 49.9282L95.2631 37.9361L98.5631 44.5317L144.622 55.4341L144.231 57.0877L99.5555 46.5128L99.7433 46.8884L95.6191 51.3976L142.927 62.5956L142.536 64.2491L94.306 52.8329L89.935 57.6129L141.232 69.7552L140.841 71.4088L88.6238 59.0487L86.2058 61.6917L88.0499 64.7293L139.537 76.9167L139.146 78.5702L89.2854 66.768L93.4064 73.5581L137.843 84.0763L137.451 85.7299L94.6437 75.5971L98.2362 81.5173L97.6108 82.1159L136.148 91.2378L135.756 92.8913L96.1473 83.5158L82.9358 96.1622L85.3089 100.586L129.925 111.147L129.534 112.8L86.3809 102.585L88.4686 106.476L86.5504 108.543L128.208 118.403L127.816 120.059L85.2178 109.975L80.7916 114.742L126.513 125.565L126.121 127.218L79.4634 116.174L75.3477 120.605L75.8575 121.402L124.863 133.002L124.471 134.655L77.1766 123.46L81.5656 130.314L123.168 140.161L122.777 141.815L82.8846 132.372L86.8065 138.495L86.2429 139.086L121.45 147.42L121.058 149.073L84.8842 140.511L80.3614 145.255L119.755 154.579L119.363 156.235L79.0001 146.681L71.4607 154.586L127.033 167.74L162.757 16.817L106.267 3.44556Z" fill="#FCF3E3"/>
</g>
<defs>
<clipPath id="clip0_64_2">
<rect width="166.228" height="168.45" fill="white"/>
</clipPath>
</defs>
</svg>
